<svg id="About_Portfolio" data-name="About Portfolio" xmlns="http://www.w3.org/2000/svg" xmlns:xlink="http://www.w3.org/1999/xlink" viewBox="0 0 1920 1081.4162">
  <defs>
    <style>
      .cls-1 {
        fill: url(#Dégradé_sans_nom_4);
      }

      .cls-2 {
        fill: #fffffd;
      }

      .cls-3 {
        fill: #e5f8ff;
      }

      .cls-4 {
        fill: #fff;
      }

      .cls-5 {
        fill: #7c9c48;
      }

      .cls-6 {
        fill: #92b35a;
      }

      .cls-7 {
        fill: #4e7729;
      }

      .cls-8 {
        fill: #98b65c;
      }

      .cls-9 {
        fill: #799a43;
      }

      .cls-10 {
        fill: #8fb057;
      }

      .cls-11 {
        fill: #8eb157;
      }

      .cls-12 {
        fill: #462a1e;
      }

      .cls-13 {
        fill: #4b5b1e;
      }

      .cls-14 {
        fill: #c3e44c;
      }

      .cls-15 {
        fill: #3d591e;
      }

      .cls-16 {
        fill: #3f631e;
      }

      .cls-17 {
        fill: #5b752a;
      }

      .cls-18 {
        fill: #5b852f;
      }

      .cls-19 {
        fill: #3e5717;
      }

      .cls-20 {
        fill: #c5e56a;
      }

      .cls-21 {
        fill: #5c822c;
      }

      .cls-22 {
        fill: #5c8328;
      }

      .cls-23 {
        fill: #89a653;
      }

      .cls-24 {
        fill: #324b13;
      }

      .cls-25 {
        fill: #405a1b;
      }

      .cls-26 {
        fill: #96b160;
      }

      .cls-27 {
        fill: #3f561f;
      }

      .cls-28 {
        fill: #406920;
      }

      .cls-29 {
        fill: #36510e;
      }

      .cls-30 {
        fill: #405a1d;
      }

      .cls-31 {
        fill: #6e8d27;
      }

      .cls-32 {
        fill: url(#Dégradé_sans_nom_70);
      }

      .cls-33 {
        fill: #698926;
      }

      .cls-34 {
        fill: #c4e756;
      }

      .cls-35 {
        fill: #593c32;
      }

      .cls-36 {
        fill: #6b8a2e;
      }

      .cls-37 {
        fill: #c9e155;
      }

      .cls-38 {
        fill: #593a2e;
      }

      .cls-39 {
        fill: #698d2d;
      }

      .cls-40 {
        fill: #c6e153;
      }

      .cls-41 {
        fill: #6b8d2e;
      }

      .cls-42 {
        fill: #c8e054;
      }

      .cls-43 {
        fill: #6e8c32;
      }

      .cls-44 {
        fill: #b3d24a;
      }

      .cls-45 {
        fill: #6e8b39;
      }

      .cls-46 {
        fill: #c5e754;
      }

      .cls-47 {
        fill: #6c8d24;
      }

      .cls-48 {
        fill: #c5e553;
      }

      .cls-49 {
        fill: #cae45c;
      }

      .cls-50 {
        fill: #88b574;
      }

      .cls-51 {
        fill: #6c9222;
      }

      .cls-52 {
        fill: #7b9b3a;
      }

      .cls-53 {
        fill: #617c4f;
      }

      .cls-54 {
        fill: #69862c;
      }

      .cls-55 {
        fill: #cddf57;
      }

      .cls-56 {
        fill: #5c850c;
      }

      .cls-57 {
        fill: #638013;
      }

      .cls-58 {
        fill: #6bd21a;
      }

      .cls-59 {
        fill: #c3e353;
      }

      .cls-60 {
        fill: #5fc60a;
      }

      .cls-61 {
        fill: #c3dd55;
      }

      .cls-62 {
        fill: #64b068;
      }

      .cls-63 {
        fill: #c0e050;
      }

      .cls-64 {
        fill: #698725;
      }

      .cls-65 {
        fill: #5dd008;
      }

      .cls-66 {
        fill: #728e1f;
      }

      .cls-67 {
        fill: #c8e453;
      }

      .cls-68 {
        fill: #c5e34f;
      }

      .cls-69 {
        fill: #3a5a28;
      }

      .cls-70 {
        fill: #749522;
      }

      .cls-71 {
        fill: #76931e;
      }

      .cls-72 {
        fill: #749005;
      }

      .cls-73 {
        fill: #c9e55c;
      }

      .cls-74 {
        fill: #74b245;
      }

      .cls-75 {
        fill: #46920e;
      }

      .cls-76 {
        fill: #468f1b;
      }

      .cls-77 {
        fill: #47901f;
      }

      .cls-78 {
        fill: #83be64;
      }

      .cls-79 {
        fill: #c8e153;
      }

      .cls-80 {
        fill: #78a524;
      }

      .cls-81 {
        fill: #46920b;
      }

      .cls-82 {
        fill: #4d9a0e;
      }

      .cls-83 {
        fill: #3c531c;
      }

      .cls-84 {
        fill: #549715;
      }

      .cls-85 {
        fill: #6ba52f;
      }

      .cls-86 {
        fill: #508419;
      }

      .cls-87 {
        fill: #c0e559;
      }

      .cls-88 {
        fill: #4e940f;
      }

      .cls-89 {
        fill: #549112;
      }

      .cls-90 {
        fill: #2c5b15;
      }

      .cls-91 {
        fill: #4f9a13;
      }

      .cls-92 {
        fill: #4e9709;
      }

      .cls-93 {
        fill: #579b14;
      }

      .cls-94 {
        fill: #709418;
      }

      .cls-95 {
        fill: #c6e452;
      }

      .cls-96 {
        fill: #5e9b2f;
      }

      .cls-97 {
        fill: #65ba24;
      }

      .cls-98 {
        fill: #7d9b29;
      }

      .cls-99 {
        fill: #789722;
      }

      .cls-100 {
        fill: #799818;
      }

      .cls-101 {
        fill: #4d7c24;
      }

      .cls-102 {
        fill: #83cb3d;
      }

      .cls-103 {
        fill: #84cc3e;
      }

      .cls-104 {
        fill: #87c941;
      }
    </style>
    <linearGradient id="Dégradé_sans_nom_4" data-name="Dégradé sans nom 4" x1="960" y1="1080" x2="960" gradientUnits="userSpaceOnUse">
      <stop offset="0" stop-color="#d7f3fa"/>
      <stop offset="0.1122" stop-color="#cef0f9"/>
      <stop offset="0.299" stop-color="#b4e9f5"/>
      <stop offset="0.5372" stop-color="#8bddef"/>
      <stop offset="0.8147" stop-color="#52cce8"/>
      <stop offset="0.9944" stop-color="#29c0e2"/>
    </linearGradient>
    <linearGradient id="Dégradé_sans_nom_70" data-name="Dégradé sans nom 70" x1="1167.9011" y1="663.269" x2="1189.9118" y2="650.5612" gradientUnits="userSpaceOnUse">
      <stop offset="0" stop-color="#6e8d27"/>
      <stop offset="0.0701" stop-color="#87a732"/>
      <stop offset="0.1514" stop-color="#9dbd3b"/>
      <stop offset="0.2473" stop-color="#adce42"/>
      <stop offset="0.3659" stop-color="#b9d947"/>
      <stop offset="0.5323" stop-color="#bfe04a"/>
      <stop offset="0.9944" stop-color="#c1e24b"/>
    </linearGradient>
  </defs>
  <g id="image">
    <rect class="cls-1" width="1920" height="1080"/>
  </g>
  <g id="Nuage">
    <g id="Nuage_3" data-name="Nuage 3">
      <path class="cls-2" d="M710.7072,491.8742s-3.863-23.1779,25.1094-21.2465c0,0,3.8629-19.3149,28.9723-13.52,0,0,9.6575-15.4519,28.9724-13.52s19.3149,15.4519,19.3149,15.4519,15.4519-11.5889,21.2464,3.863c0,0,1.9315,7.7259-1.9315,9.6574,0,0,13.52,5.7945,13.52,11.589s5.7945,5.7945,5.7945,5.7945a21.6977,21.6977,0,0,0,17.3834,13.52c13.5205,1.9315,7.726,3.863,7.726,3.863s-5.7945,1.9315-21.2464,1.9315-21.2464,5.7944-21.2464,5.7944-13.52,3.863-21.2464,1.9315c0,0-7.726,7.726-17.3834,7.726a23.1355,23.1355,0,0,1-15.452-5.7945,29.5553,29.5553,0,0,1-19.3149,7.726c-11.5889,0-19.3149-11.589-19.3149-11.589s-15.4519,5.7945-23.1779-1.9314-5.7944-9.6575-5.7944-9.6575-11.589,1.9315-11.589-5.7945S710.7072,491.8742,710.7072,491.8742Z"/>
      <path class="cls-3" d="M709.8868,503.6755S721.33,490.9084,732.9193,492.84s11.589,3.863,11.589,3.863-3.863-15.4519,13.52-15.4519l11.5889,7.7259s3.863-23.1779,13.52-19.3149,16.5,15.3684,16.5,15.3684,14.404-5.7109,20.1985-1.848,7.726,17.3835,7.726,17.3835,17.3834-1.9315,21.2464,1.9315-.3763,7.2168-.3763,7.2168-13.1442,2.4406-14.11,5.3378c0,0-14.4862,4.8288-21.2464,1.9315,0,0-16.4177,16.4177-32.8354,1.9315,0,0-20.2806,20.2807-38.63-3.863,0,0-15.3693,4.7466-20.7222-.0411A145.2889,145.2889,0,0,1,709.8868,503.6755Z"/>
    </g>
    <g id="Nuage_2" data-name="Nuage 2">
      <path class="cls-4" d="M84.0476,199.2507s12.83-9.1645,27.4934-5.4987,18.3289-3.6658,18.3289-3.6658,3.6658-18.3289,18.329-5.4987c0,0,3.6658-10.9973,12.83-7.3315,0,0,1.8329,5.4986,5.4987,1.8328,0,0,0-23.8276,10.9973-25.66s10.9974,1.8328,10.9974,1.8328,3.6658,3.6658,5.4987,1.8329-1.8329-16.496,18.3289-16.496c0,0,7.3316,1.8329,16.496-12.83s29.3263-5.4987,29.3263-5.4987,3.6658,12.83,12.83,12.83S282,138.7652,282,147.93v11.416s12.83,5.08,12.83,17.91c0,0,1.8329,1.8328,10.9974,0s20.1618-3.6658,31.1592,12.83a169.0482,169.0482,0,0,0,40.7526,9.1645s10.5684,3.6657-20.5908,3.6657c0,0-35.7414-.9164-39.4072,8.2481s-10.9974,9.1644-16.496,9.1644-18.329-10.9973-18.329-10.9973-5.4986,7.3315-10.9973,7.3315-10.9974-7.3315-10.9974-7.3315-14.6631,9.1644-27.4933,9.1644-25.6605-21.9947-25.6605-21.9947S198.6034,214.83,174.7758,214.83c0,0-9.1645,3.6658-21.9947-12.83H145.45s-7.3315,12.83-20.1618,7.3316S86.797,200.1671,84.0476,199.2507Z"/>
      <path class="cls-3" d="M125.2877,205.6658s5.4987,10.9973,12.83,3.6658,9.1644-16.4961,16.496-9.1645,12.83,14.6631,25.66,12.83,27.4934-16.4961,27.4934-16.4961,7.3315,23.8276,29.3262,20.1618,23.8276-5.4986,23.8276-5.4986,7.3316,5.4986,12.83,5.4986,9.1644-7.3315,9.1644-7.3315,7.3316,12.83,21.9948,10.9973,12.83-16.496,12.83-16.496,5.4987-21.9947-21.9947-12.83c0,0-10.9974,3.6658-12.83,1.8329s3.6658-16.496-9.1644-14.6631-10.9974-3.6658-10.9974-3.6658,9.1645-14.6631-7.3315-12.83l-7.3316,1.8329s0-12.83-12.83-9.1645-20.1618,18.3289-20.1618,18.3289-9.1644-7.3315-14.6631-5.4987-12.83,3.6658-14.6631,9.1645-3.6658,14.6631-3.6658,14.6631-16.4961,0-20.1618,3.6658c0,0-16.4961-3.6658-20.1619,0S125.2877,205.6658,125.2877,205.6658Z"/>
    </g>
    <g id="Nuage-2" data-name="Nuage">
      <path class="cls-4" d="M1526.404,156.63a45.5492,45.5492,0,0,0,8.9856,1.2836,19.3229,19.3229,0,0,0,6.2543-1.4009,4.4745,4.4745,0,0,1,4.8467,1.1451c3.1479,3.3716,8.8911,9.2414,10.721,9.2414,2.5673,0,10.2692-6.4183,14.12-3.851s8.9855,8.9856,8.9855,8.9856h10.2692s7.7019-6.4183,11.5529-6.4183,14.12,6.4183,14.12,6.4183h11.5528s10.2692-7.7019,14.12-7.7019,8.9855,3.8509,8.9855,3.8509h16.6875s6.4182-5.1346,8.9855-5.1346a26.1143,26.1143,0,0,1,6.4183,1.2837s8.9855-6.4183,11.5529-5.1346,10.2692,7.7019,10.2692,7.7019h10.2692s8.9855-6.4183,8.9855-3.851,3.851,7.7019,3.851,7.7019a28.6027,28.6027,0,0,0,11.5528,2.5673c6.4183,0,12.8365-5.1346,12.8365-5.1346s7.3469,5.1346,10.7335,5.1346,11.0886,1.2837,17.5069-7.7019c0,0,8.9855,3.851,12.8365,2.5673s10.2692-8.9855,10.2692-8.9855,7.7019,3.8509,12.8365,3.8509,8.9855-7.7019,8.9855-7.7019a28.6029,28.6029,0,0,0,11.5529,2.5673c6.4182,0,10.2692-5.1346,10.2692-5.1346s14.12,1.2837,15.4038-1.2836,0-3.851,0-3.851h-21.8221s-3.8509-5.1346-7.7019-5.1346-7.7019,5.1346-7.7019,5.1346l-2.5673,1.2837s-3.8509-6.4183-6.4182-6.4183-5.1346,3.851-5.1346,3.851,1.2836-12.8365-5.1346-12.8365-7.7019-1.2837-7.7019-1.2837,7.7019-17.9711-6.4183-17.9711H1778S1781.8505,104,1762.5957,104s-26.3148,12.1947-26.3148,12.1947-17.9711-10.2692-25.673,14.12c0,0-14.12-17.9711-25.673,11.5529,0,0-8.9856-3.851-12.8365,5.1346,0,0-3.851,3.851-3.851-2.5673s1.2837-16.6875-10.2692-16.6875l-8.9856,3.851s0-26.9567-19.2547-25.673-19.2548,11.5528-19.2548,11.5528-1.2836-11.5528-17.9711-7.7019c0,0-5.1346,3.851-5.1346,14.12,0,0-16.6874,2.5673-16.6874,14.12V149.57s-5.1347,3.851-6.4183,2.5673-5.1346-12.8365-16.6875-5.1346a167.8427,167.8427,0,0,0-17.9711,5.1346C1518.06,155.9879,1526.404,156.63,1526.404,156.63Z"/>
      <path class="cls-3" d="M1551.4352,157.9133s3.8509-6.4182,10.2692-5.1346a27.688,27.688,0,0,1,11.0612,5.1346s9.4772-8.9855,12.0445-7.7019c0,0-3.8509-16.6874,5.1346-16.6874s11.5529,3.8509,11.5529,3.8509-1.2837-10.2692,7.7019-8.9855c0,0,5.1346,1.2836,7.7019,5.1346,0,0,8.9855-10.2692,16.6874-6.4183s0,12.9185,0,12.9185,11.5529-3.9329,14.12,1.2017a9.94,9.94,0,0,1,0,9.286l12.8365-.3s5.1346,2.5673,6.4183,3.851,5.1346,2.5673,5.1346,6.4182l5.1346-3.8509s7.7019-6.4183,16.6874-6.4183,12.8365,8.9856,12.8365,8.9856h2.5673s-2.5673-17.9711,10.2692-17.9711,12.29,2.1352,12.29,2.1352-2.0211-14.9717,6.9645-14.9717,10.2692,2.5673,10.2692,2.5673h7.7019s0-8.9856,12.8365-8.9856,13.1916,12.4086,13.1916,12.4086,1.42,6.8462,2.458,6.8462,12.5907-2.5673,15.158,6.4182c0,0,3.851,2.5673,6.4183,2.5673s11.5529,0,14.12,3.851-2.5673,3.8509-2.5673,3.8509-9.6274-5.7764-13.4784-3.2091-11.5528,8.9856-11.5528,8.9856H1785.06s-4.4927-5.1346-9.6273,2.5673-15.4039,2.5673-15.4039,2.5673l-6.4182-3.851a26.8566,26.8566,0,0,1-15.4038,5.1346c-8.9856,0-12.8365-3.8509-12.8365-7.7019s-5.1346-1.2836-5.1346-1.2836-10.2692,8.9855-17.9711,1.2836-8.9856-6.4182-8.9856-6.4182-6.4183,5.1346-11.5529,5.1346-11.5528,2.5673-11.5528,2.5673h-21.8221s-7.7019-6.4183-12.8365,0-19.2547,3.8509-19.2547,3.8509-7.702-6.4182-12.8366-5.1346-11.5528,6.4183-11.5528,6.4183-11.5529,1.2836-15.4038-2.5673,0-6.4183-11.5529-5.1346S1551.4352,157.9133,1551.4352,157.9133Z"/>
    </g>
  </g>
  <g id="Plaine">
    <path class="cls-5" d="M0,920.2121s222.8165,39.4488,411.3879,47.03L235.7142,998.6079s-38.9258-4.6674-54.0179-1.9715C99.4188,1011.3333,0,1026.03,0,1026.03Z"/>
    <path class="cls-6" d="M0,929.9684s205.694,28.4558,370.2491,34.3346L205.694,990.7576s-13.713,0-6.8565-8.8182S0,1012.0213,0,1012.0213Z"/>
    <path class="cls-7" d="M0,1026.03v16.5106s367.988-61.9149,432.5409-71.5461l-21.153-3.7524L235.7142,998.6079s-36.8767-4.9109-54.0179-1.9715S0,1026.03,0,1026.03Z"/>
    <path class="cls-8" d="M1535.8483,929.9684s-214.9575-15.6351-421.1621-9.7563S612.049,931.97,448.2961,973.1212l-15.7552-2.1264L0,1042.5409V1076H1804.4175s40.4823-48.3522,38.5129-78.5549-15.6823-50.7784-15.6823-50.7784-109.7035,35.2727-291.4-11.7576"/>
    <path class="cls-9" d="M71.9929,1076s185.1246-61.7273,284.5433-61.7273c0,0,17.1412-2.9394,0,5.8788,0,0-157.6987,20.5758-195.4093,38.2121L129.1058,1076Z"/>
    <path class="cls-9" d="M301,1080s168.6212-44.75,176.6507-44.75l4.0148,3.4424L349.1775,1080Z"/>
    <path class="cls-10" d="M1420.3935,1079s.9076-9.1441-31.0867-9.1441-47.9915,4.5721-31.9943-13.7161c0,0,46.1047-13.3269-6.2758-8.9495,0,0-4.389-4.7665-20.3861-4.7665s-42.6591,9.144-42.6591,9.144L1240,1056.14V1079Z"/>
    <path class="cls-11" d="M508,1035.5486v-3.4193s100.5483-1.8188,223.7518-26.5544c0,0,4.7516,6.0384-39.71,16.2964s-120.2337,30.774-28.51,35.903c0,0,482.5469-42.7417,510.4628-39.3223l3.988,6.8386s-63.8078-3.4193-59.82,10.258,103.6877,3.4194,103.6877,3.4194-46.4982,10.258-47.177,18.8063,0,22.2257,0,22.2257H380.3843Z"/>
  </g>
  <g id="Arbre">
    <path class="cls-12" d="M1788.47,1081.4162s38.5852-45.3916,19.1316-79.9757l-4.323-17.2921s4.323-4.323-4.323-4.323c0,0-8.646-15.13-32.4226-17.292,0,0-10.8075-34.5841-41.0685-32.4226a174.962,174.962,0,0,0-54.0377,12.969s-25.938,6.4846-56.1991-28.0995-97.2677,12.969-97.2677,12.969a16.5376,16.5376,0,0,0-4.323,10.8075c0,6.4846,2.1615,32.4226,2.1615,41.0686s6.4845,19.4536,17.292,19.4536,20.5343-1.0808,20.5343-1.0808l10.8075-4.323-2.1615,4.323-6.4845,2.1615,12.969,12.9691-6.4845,4.323-2.1615,4.323-2.1615-8.646s-2.1615-10.8076-21.615-10.8076h-6.4845l-2.1616,2.1615-12.969-2.1615-4.323-12.969V965.5687s-2.1615-14.9236-8.646-14.9236-8.646,10.8075-8.646,10.8075l-2.1615,36.7456-6.4846,17.2921-8.646,2.1615-15.13,17.292v-8.646l23.7765-28.1V946.3221L1503.91,920.384s6.4845-6.4845-2.1615-8.646c0,0,6.4845-10.8075,21.615-15.1305s2.1615-17.292,2.1615-17.292-17.292-2.1616-28.1-12.9691-12.9691,8.646-69.1682-28.1c0,0-25.938-28.1-67.0066-21.6151s-75.6527-31.3418-75.6527-31.3418l-49.7146,3.2422s-17.2921,12.9691-32.4226,17.2921-45.3916,2.1615-45.3916,2.1615h-23.7766l-10.8075,8.646h-8.646l-4.323,19.4536-2.1615,19.4535-6.4845,4.323-2.1615-30.2611h-10.8076l-15.13,15.1306-10.8075-2.1615L1043.51,862.0234s-2.1615,23.7766-21.615,23.7766-19.4536-12.9691-19.4536-12.9691,8.6461,8.6461,17.2921,8.6461a14.7747,14.7747,0,0,0,15.1305-15.1306,16.2113,16.2113,0,0,0-6.4845-12.969s-4.323-6.4845,4.323-4.323a20.228,20.228,0,0,0,15.13-2.1615s6.4846-8.646,12.9691-10.8075,4.323-6.4846,4.323-6.4846l-17.2921-12.969h17.2921s2.1615,15.13,4.323,15.13,38.9071-17.292,58.3606-38.907c0,0,25.9381-2.1616,28.1-4.3231s0-8.646,0-8.646-23.7766-47.5531-75.6527-67.0066c0,0-28.1-10.8076-34.5841-36.7456,0,0-8.646-12.969-15.13-6.4845s-8.646-10.8076-8.646-10.8076l15.1305-4.323-12.969-10.8075h-15.13l-4.3231,4.323s-19.4535-10.8075-43.23,6.4845l-4.323,19.4536h-4.323V649.5291l-21.615.6668-28.1,30.2611-2.1615-2.1615,6.4845-8.646V663.165l-8.646-4.3231,2.1615-4.323s2.1615,2.1615,8.646,2.1615,10.6926-12.969,10.6926-12.969l-4.2081-4.323,6.4846-2.1615s2.1615,4.323,17.292,4.323,36.7456-6.4845,36.7456-6.4845,8.646-4.323,2.1615-12.969-21.6151-34.5841-71.33-49.7147L870.5893,570.22s-6.4845-10.8075,12.9691-23.7765,4.323-43.23,4.323-43.23l6.4845-4.323-6.4845-8.646-8.646-6.4846H862.4262s-11.29-2.1615-13.4519,0-10.8075,6.4846-10.8075,6.4846a7.6786,7.6786,0,0,1,4.323-6.4846c4.323-2.1615-6.4845-4.323-6.4845-4.323l2.1615-2.1615,12.969,2.1615h17.292l-2.1615-8.646-38.9071-45.3916v-8.646l36.7456,43.23v-8.646l-10.8075-8.6461.4829-25.938-4.8059-8.646,10.8075,4.323s0,19.4535,2.1615,19.4535,12.969-12.969,12.969-12.969l2.1616,4.323-10.8076,10.8075s-2.1615,25.9381,15.1306,41.0686,12.969,12.9691,12.969,12.9691L924.627,462.145s6.4845-10.8075,0-21.6151-10.8076-17.292-10.8076-17.292l6.4846-2.1615s4.323,10.8075,12.969,10.8075S963.5341,412.43,963.5341,412.43l-4.3231-12.9691,2.1615-2.1615,6.4846,8.6461,4.323-10.8076h7.9791l.6669,10.8076-10.8075,2.1615-4.323,6.4845,6.4845,8.646s-36.7456,25.9381-36.7456,32.4226,8.646,2.1615,8.646,2.1615l12.969-4.323-12.969,12.969s-15.13-4.323-12.969,15.13v6.4846s-15.1306-2.1616-19.4536,6.4845,17.2921,4.323,17.2921,4.323l-10.8076,17.292v32.4226s56.1992,23.7765,60.5222,28.1,6.4845,2.1615,6.4845,2.1615,15.13-8.6461,15.13,23.7765c0,0,8.6461,19.4536,12.9691,23.7766s21.615,12.969,21.615,12.969,17.2921,4.323,19.4536,10.8075,6.4845,2.1615,6.4845,2.1615l-6.4845-47.5531h4.323l-4.323-17.292-8.6461-4.323-28.1-25.9381s-2.1615-36.7456-8.646-41.0686,12.969-25.938,12.969-25.938l6.4845-28.1V449.176s-15.1305-21.6151-15.1305-25.9381,8.646-17.292,8.646-17.292l-8.646-17.2921,10.8075,12.9691s2.1615-15.1306,4.323-12.9691,2.1615,10.8075,2.1615,10.8075l-6.4845,15.1306s-4.323,10.8075,2.1615,23.7765,6.4845,8.6461,6.4845,8.6461l12.969-28.1s4.3231,2.1615,2.1615,6.4845-8.646,19.4536-8.646,19.4536v10.8075s-8.646-6.4845-6.4845,25.938c0,0-2.1615,12.9691,2.1615,10.8076s25.9381-17.2921,25.9381-17.2921l2.1615-4.323h6.4845l-2.1615,12.969-38.9071,28.1s-6.4845,30.2611,19.4535,49.7146a9.4677,9.4677,0,0,0,6.4846,2.1615s4.323-21.615,21.615-21.615H1086.74v2.1615s-34.584,4.323-23.7765,25.938c0,0,17.292,2.1615,17.292,34.5841s32.4226,73.4912,32.4226,73.4912l15.13,8.646s6.4845,0,12.9691,10.8075S1160.231,712.88,1160.231,712.88l6.4845-2.1615,25.9381,21.615,71.33-2.1615s49.7147-17.292,121.0443,12.969,134.0133,64.8452,188.051,73.4912,90.7832-12.969,112.3982,30.2611l25.9381,2.1615s56.1991-10.8075,64.8451,2.1615,41.0686,2.1615,41.0686,2.1615,37.8034-111.5289,32.9515-118.4481-19.9825-147.417,62.1547-287.9148c0,0-36.7456-43.23-45.3916-90.7833,0,0-38.9071-69.1681-43.23-71.33s-2.1615-64.8452-2.1615-64.8452-2.1615-15.13-30.261-15.13c0,0-41.0686-21.615-51.8762-21.615s-47.5531-6.4846-47.5531-6.4846l-19.4535,8.6461s3.8171-6.4846,10.5546-8.6461,8.8989-6.4845,8.8989-6.4845l-6.4845-8.646s21.6151,12.969,30.2611,12.969,23.7765,4.323,23.7765,4.323-19.4535-19.4535-28.1-19.4535H1675.52l14.28-4.323h11.1065L1698.8826,139l55.7623,42.1493s12.969,4.3231,4.323-8.646-2.1615-10.8075-2.1615-10.8075l32.4225,36.7456h17.2921s2.1615-8.646-21.6151-19.4536-4.323-8.646-4.323-8.646,4.323,4.323,6.4845,4.323-2.1615-23.7765-2.1615-23.7765L1783.8712,139h4.9668l.3909,14.05,2.1616-2.1615L1797.3,139h6.2546l-3.5182,9.7268h-4.323s-6.4846,30.261,17.292,41.0686l10.8075,21.615s4.323,2.1615,6.4845,0,0-15.1305,0-15.1305-4.323-12.969-4.323-34.5841S1834.0917,139,1834.0917,139l-3.7942,11.8883v8.646l17.2921-19.4535L1853.5912,139l-8.1631,14.05,12.969-2.1615,12.969-2.1615,6.4846,2.1615-17.2921,2.1615s-2.1615,2.1615,0,2.1615,23.7766,4.323,23.7766,10.8075-8.6461,0-8.6461,0l-12.969-6.4845-6.4845-4.323-10.8075,2.1615-2.1615,4.323s-12.9691-4.323-12.9691,6.4845,6.4846,19.4536,6.4846,19.4536-2.1615,69.1681,6.4845,88.6217,36.7456,43.23,36.7456,43.23,32.4225,24.7883,39.9878,49.14v712.7908Z"/>
  </g>
  <g id="Feuille">
    <path class="cls-13" d="M1483.376,906.3343s-28.1,4.323-28.1,12.969,2.1615,23.9145,2.1615,23.9145,28.1-13.107,32.4226-23.9145,2.1615-10.8075,2.1615-10.8075Z"/>
    <path class="cls-14" d="M1475.8107,922.5456l-.4563,10.6609-17.9165-11.7417s-1.5024-4.45,9.516-9.25c0,0,4.5338,3.8463,17.5028,3.8463,0,0,4.3231,2.1615,0,4.323A21.5385,21.5385,0,0,1,1475.8107,922.5456Z"/>
    <polygon class="cls-15" points="1517.96 1003.602 1517.96 1011.374 1533.091 1029.54 1535.252 1018.733 1528.768 1003.602 1517.96 1003.602"/>
    <polygon class="cls-16" points="1520.122 1005.763 1520.122 1011.593 1531.469 1025.217 1533.091 1017.111 1528.227 1005.763 1520.122 1005.763"/>
    <path class="cls-17" d="M1544.9329,947.0648s-18.1934,4.5484-22.7418,13.6451c0,0,6.8225,6.8225,11.3709,6.8225s20.4676-13.645,20.4676-13.645h13.6451S1565.4005,947.0648,1544.9329,947.0648Z"/>
    <path class="cls-18" d="M1544.8588,947.619s-14.6022,3.6506-18.2527,10.9516c0,0,5.4758,5.4758,9.1263,5.4758s16.4275-10.9516,16.4275-10.9516l9.03-1.9213S1561.2862,947.619,1544.8588,947.619Z"/>
    <path class="cls-19" d="M1634.6813,951.7259s-10.8075,12.969-23.7765,12.969-30.2611-4.323-34.5841,6.4845-8.646,19.4536,8.646,19.4536,47.6911-33.3344,47.6911-33.3344Z"/>
    <path class="cls-20" d="M1595.7743,969.0179l-8.6461-2.1615,2.1615,6.4845h-6.4845l12.9691,12.969h4.323v-8.646h8.646s8.646-6.4845,2.1615-6.4845-15.13-2.1615-15.13-2.1615"/>
    <path class="cls-21" d="M1583.37,1003.9317l-10.9158,7.2356s14.6741,9.7267,23.32,9.7267a29.9029,29.9029,0,0,0,15.13-4.323s-8.1032-8.9348-15.6663-13.1566A11.4258,11.4258,0,0,0,1583.37,1003.9317Z"/>
    <path class="cls-22" d="M1562.2709,1017.6518,1561.19,1029.54a46.6973,46.6973,0,0,0,4.323,25.9381c6.4845,12.969,6.4845,10.8075,6.4845,10.8075s8.4621-20.3992,6.3925-24.2494S1562.2709,1017.6518,1562.2709,1017.6518Z"/>
    <polygon class="cls-23" points="1481.214 1016.571 1485.078 1025.217 1487.699 1025.217 1484.457 1015.237 1481.214 1016.571"/>
    <path class="cls-24" d="M1483.376,1025.217a22.3576,22.3576,0,0,1,2.1615,8.6461v18.4187s8.646,18.3268,12.969,20.4883,4.323-30.261,4.323-30.261-8.646-17.2921-15.13-17.2921Z"/>
    <path class="cls-25" d="M1489.2669,1036.0246a22.465,22.465,0,0,1,.5936,4.7492v10.1173s4.7492,10.0669,7.1238,11.2542,2.3747-16.6223,2.3747-16.6223-4.7493-9.4984-8.3112-9.4984Z"/>
    <polygon class="cls-26" points="1460.68 1034.944 1459.599 1048.994 1457.438 1048.994 1460.68 1026.298 1460.68 1034.944"/>
    <path class="cls-27" d="M1442.1694,1081.4162h8.784l8.1057-10.3017.54-22.1209h-2.1615s-8.646,2.1615-12.969,15.13S1442.1694,1081.4162,1442.1694,1081.4162Z"/>
    <path class="cls-28" d="M1445.4928,1077.0932h6.02l5.555-7.06.37-15.16h-1.4813s-5.9253,1.4813-8.8879,10.3692S1445.4928,1077.0932,1445.4928,1077.0932Z"/>
    <polygon class="cls-26" points="1460.68 1026.298 1458.22 1037.646 1457.438 1048.994 1460.68 1026.298"/>
    <path class="cls-29" d="M1467.1642,1018.6348s-5.4033-8.5483-11.8878-8.5483-15.13,2.1615-15.13,2.1615,2.1615-8.646,15.13-8.646,12.9691,6.4845,12.9691,6.4845l2.0186,4.8849Z"/>
    <path class="cls-30" d="M1462.44,1012.5782s-3.8537-4.9147-7.8378-4.51a47.3592,47.3592,0,0,0-9.1614,2.273s.7881-5.4472,8.7564-6.2572,8.3733,3.1742,8.3733,3.1742l1.5453,2.8752Z"/>
    <path class="cls-31" d="M1165.6348,683.6993v-8.4161H1161.45s-4.461-6.7145-2.2994-13.199,4.323-6.4845,4.323-6.4845l10.8075,12.969v6.4845h-4.323l-.138,8.6461Z"/>
    <path class="cls-32" d="M1191.5728,653.4382l-4.323,8.646h-8.784v8.692h-4.185v-2.2075L1163.4733,655.6s0-6.4845,8.646-6.4845h8.646C1182.9268,649.1152,1191.5728,653.4382,1191.5728,653.4382Z"/>
    <polygon class="cls-33" points="1114.839 816.632 1123.485 816.632 1134.293 807.986 1147.883 807.986 1147.883 835.189 1144.02 850.135 1128.889 837.166 1133.212 826.359 1114.839 816.632"/>
    <polygon class="cls-34" points="1112.077 829.06 1126.728 839.328 1128.889 837.166 1133.212 826.359 1114.839 816.632 1118.082 824.197 1112.077 829.06"/>
    <polygon class="cls-35" points="1114.839 816.632 1118.082 824.197 1112.077 829.06 1114.839 816.632"/>
    <path class="cls-36" d="M1101.87,859.8619l-9.7268,7.5653v6.1856s6.4845,6.7834,10.8075,6.7834,19.4536-2.1615,19.4536-2.1615,4.323,4.323,6.4845,4.323-2.1615-21.615-2.1615-21.615-6.4845-4.9669-11.8883-4.645-6.4845-.7588-6.4845-.7588Z"/>
    <path class="cls-37" d="M1102.9511,865.2657l2.1615,2.1385-6.4845.023s0,4.323,2.1615,4.323,4.323,4.323,6.4845,4.323,0,2.1615,2.1615,2.1615h4.0241s-.3909-8.646,1.0348-8.646,10.0717,2.1615,10.0717,0,2.1615-4.323-4.323-4.323-15.3375-4.323-15.3375-4.323H1100.79v2.2534l2.1615,2.07"/>
    <polygon class="cls-38" points="1092.144 895.527 1087.821 899.85 1105.113 897.688 1105.113 880.297 1102.951 880.396 1100.896 879.982 1100.79 893.365 1092.144 895.527"/>
    <path class="cls-39" d="M1105.1126,895.5267h25.0643s9.52,6.3466,9.52,10.67v25.9381s-2.1615,10.8075-4.323,8.646-21.6151-30.1691-30.2611-32.3766Z"/>
    <path class="cls-40" d="M1111.5971,904.1728s-2.1615,4.323,12.9691,17.292l4.323-10.8075h8.646s-.5519-10.8076-6.76-10.8076-16.8432,1.0578-16.8432,1.0578Z"/>
    <path class="cls-41" d="M1087.8206,899.85s-4.323,0-12.969,6.4846-10.8076,12.969-10.8076,12.969,0,28.1,2.1615,30.2611,21.6151-24.1445,21.6151-24.1445Z"/>
    <path class="cls-42" d="M1064.6439,921.1648l1.5616.3s6.4846,12.969,8.6461,10.8075,10.8075-15.13,10.8075-15.13-1.4717-2.1615-10.4626-2.1615c-4.4955,0-6.2029,1.0807-6.7863,2.1615A9.0853,9.0853,0,0,1,1064.6439,921.1648Z"/>
    <path class="cls-43" d="M1062.8253,842.57l-13.9118,13.9118-.138,30.399s28.1-17.292,28.1-21.615,2.1615-17.2921,2.1615-17.2921l-5.4038-3.2422Z"/>
    <path class="cls-44" d="M1059.721,854.4581s-5.8406-2.1615-6.1626,0,4.0011,6.4846,4.0011,6.4846l-4.0182,3.3572,12.2344,9.5534.43-8.5876,8.6461-4.323s-2.1615-4.3231-4.3231-4.3231S1059.721,854.4581,1059.721,854.4581Z"/>
    <path class="cls-45" d="M1007.5911,881.5861l-19.9873,1.1856s-22.7722,18.4128-22.12,29.4151c.128,2.1577,10.1486-11.4286,10.1486-11.4286l39.0948,2.0115s3.4194-15.36,1.1337-17.39S1007.5911,881.5861,1007.5911,881.5861Z"/>
    <path class="cls-46" d="M996.442,886.532l-5.6009.3322a3.5635,3.5635,0,0,1-.6163,4.3672c-2.03,2.2857-4.1874,2.4137-1.9017,4.4434s8.8869,3.8034,8.8869,3.8034,8.2468-6.9851,10.4045-7.1131-2.4137-4.1874-4.5714-4.0594S996.442,886.532,996.442,886.532Z"/>
    <path class="cls-47" d="M971.0993,850.1351s-12.969,4.323-15.13,6.4845-6.4845,2.1616-6.4845,2.1616-4.323,2.1615-4.323,8.646v29.5753s13.015-23.2076,18.3957-23.1492,11.4514,0,11.4514,0,4.7369-2.1031,4.7369-6.4261S981.9068,850.1351,971.0993,850.1351Z"/>
    <polygon class="cls-48" points="956.292 857.6 948.656 863.516 959.916 873.912 962.192 865.756 971.099 863.516 971.099 859.297 956.292 857.6"/>
    <path class="cls-43" d="M981.99,847.0564l16.452,10.7893,29.7909-6.0519s-22.6491-23.9921-26.8816-23.1122-17.37,1.4031-17.37,1.4031l-2.0746,5.9505Z"/>
    <path class="cls-44" d="M994.2614,847.6762s-.9275,6.1583,1.2543,6.0336,5.5345-5.2371,5.5345-5.2371l4.1047,3.2508,6.8635-13.9227-8.4954,1.327-5.9922-7.5852s-3.7926,2.9961-3.3527,5.1123S994.2614,847.6762,994.2614,847.6762Z"/>
    <path class="cls-43" d="M1051.5809,816.6318s-17.7979-24.8573-28.6055-24.8573-23.7765,19.4535-23.7765,19.4535,25.938-2.1615,30.2611,4.3231,12.969,6.4845,12.969,6.4845l2.1615-4.323Z"/>
    <path class="cls-49" d="M1014.3294,802.582l12.969,8.646,2.1616-10.8075,4.323-2.1615s-8.6461-4.323-12.9691-2.1615A16.14,16.14,0,0,0,1014.3294,802.582Z"/>
    <polygon class="cls-50" points="1056.41 816.632 1053.237 800.421 1057.054 795.492 1060.181 816.632 1056.41 816.632"/>
    <path class="cls-51" d="M1040.2675,778.8055l-6.4845,6.4845,19.4535,15.13,3.8171-4.9282s11.3134-18.8483,11.3134-21.01,2.1615-10.8076-6.4845-8.6461-8.646,6.4846-8.646,6.4846h12.969v4.323l-4.323,4.323-6.4845,2.1615h-4.323l-6.6225-.172Z"/>
    <path class="cls-49" d="M1044.5905,770.16s-4.323-2.1616-4.323,2.1615v6.4845l4.185,4.151,10.9455.172,6.4845-2.1615,4.323-4.323v-4.323h-12.969Z"/>
    <path class="cls-52" d="M1065.1248,816.6318l7.4273-5.4038V792.0734s8.784-4.6219,15.2685-4.6219,17.7059,4.323,20.7412,4.323-3.4492,6.4845-3.4492,6.4845l-21.615,15.13-12.9691,2.1616v2.1615h-5.24Z"/>
    <path class="cls-49" d="M1097.0236,796.8416l-13.8-7.2456-1.022,10.974-4.0739,2.6008s9.05,3.3973,13.1237.7965A16.14,16.14,0,0,0,1097.0236,796.8416Z"/>
    <polygon class="cls-53" points="1163.473 711.799 1161.312 698.83 1166.42 683.699 1169.82 683.699 1167.796 694.507 1186.376 683.699 1186.376 688.804 1169.958 700.991 1166.716 710.718 1163.473 711.799"/>
    <path class="cls-54" d="M1186.376,683.6993s3.0353-15.1306,18.1659-15.1306,15.13,8.646,15.13,8.646h-15.13l-4.3231-4.323-2.1615,6.4845s-6.4845,2.1615-6.4845,4.3231c0,0,10.8076,0,8.646,2.1615s-13.8428,2.9433-13.8428,2.9433Z"/>
    <path class="cls-55" d="M1221.8339,683.6993l-2.1615-6.4846h-15.13l-4.3231-4.323-2.1615,6.4845s-6.4845,2.1615-6.4845,4.3231c0,0,10.8076,0,8.646,2.1615,0,0-4.31,2.01-6.478,2.0857s19.4011,0,19.4011,0Z"/>
    <path class="cls-55" d="M952.7265,673.9725"/>
    <path class="cls-56" d="M956.5207,673.9725l5.9326,9.7268s12.969-4.3231,17.292,12.969-4.323,25.938-4.323,25.938l-23.7765-25.938,1.0807-22.6958Z"/>
    <path class="cls-49" d="M958.1073,697.4961l12.969,8.646,2.1615-10.8075,4.323-2.1615s-8.646-4.323-12.969-2.1615A16.14,16.14,0,0,0,958.1073,697.4961Z"/>
    <path class="cls-57" d="M952.7265,673.9725l-3.2422,9.7268s-17.2921,0-19.4536,2.1615,15.1306,2.1615,15.1306,2.1615v4.323h4.323l2.97-12.65Z"/>
    <path class="cls-49" d="M932.1922,700.9913s-15.13-4.323-10.8075-8.646a37.3189,37.3189,0,0,1,8.646-6.4845s-1.0833,1.6544,7.0236,1.908l8.107.2535v4.323l-10.8076,2.1615Z"/>
    <path class="cls-58" d="M903.0119,680.457l3.2423-1.0808v12.9691s-17.2921,8.646-17.2921,12.969l-3.0969,3.097a1.5877,1.5877,0,0,1-2.3857-.1434,31.5223,31.5223,0,0,1-3.1634-5.1151c-2.9-5.8,0-19.3156,0-19.3156l20.5343-5.5417Z"/>
    <path class="cls-59" d="M904.0927,685.8608H887.3065s-6.3005,2.1615-3.4032,5.4037a70.4541,70.4541,0,0,0,8.9219,7.5653l3.6792-8.646h8.4621Z"/>
    <path class="cls-60" d="M900.85,654.5189s-18.3728-5.4037-27.0188,3.2423-6.4845,10.8075-6.4845,10.8075a28.5586,28.5586,0,0,0,15.7944-2.5754c7.9821-3.9091,15.5474-7.1514,15.5474-7.1514Z"/>
    <path class="cls-60" d="M922.4655,637.2269s-7.5653-11.8883-16.2113-11.8883-9.06,5.9442-9.06,5.9442-8.2321-1.6212-10.3936-3.7827-15.13,6.4845-15.13,6.4845,20.5343,4.8749,25.3977,4.599,18.9131.8048,18.9131.8048Z"/>
    <path class="cls-61" d="M910.6348,626.3019l-.0576-7.4478s-13.5929,1.4717-16.5232,2.8973-9.4149,3.5872-9.4149,3.5872l2.1615,2.1615s5.6567,3.2423,10.3936,3.7827C897.1942,631.2828,897.7235,622.9422,910.6348,626.3019Z"/>
    <path class="cls-62" d="M1022.8863,663.842s-10.7184,2.5652-15.0414,6.8882-2.1615,4.323-2.1615,4.323H1020.4l7.6442-3.976S1020.6356,665.6,1022.8863,663.842Z"/>
    <path class="cls-63" d="M1012.1679,662.0842s-16.97,3.9193-16.05,7.3634,9.5658,5.6056,9.5658,5.6056-.1783-7.292,17.2029-11.2112Z"/>
    <path class="cls-64" d="M1021.8947,658.8419l-11.8883-7.5652s-4.323-8.646,4.323-6.4845,11.2286.1707,11.2286.1707l12.548,8.4753-6.4845,4.323Z"/>
    <path class="cls-65" d="M1049.9774,645.5153s-3.2254-7.2077-7.5484-9.3692,2.1615-12.969-8.646-10.8075-18.1025,3.0677-18.1025,3.0677l18.771,10.7743,3.6545,1.2886Z"/>
    <path class="cls-66" d="M1027.2984,592.916l-4.323,12.9691,6.4846-4.323h17.292s3.3112,4.323,5.9786,4.323,1.5867-1.0808,1.5867-1.0808h4.323l-2.9721-11.8883-11.0777,4.3231Z"/>
    <path class="cls-67" d="M1033.783,586.4315a16.1408,16.1408,0,0,0-6.4846,6.4845h28.37s-2.4653-5.1508-5.6908-4.7369S1033.783,586.4315,1033.783,586.4315Z"/>
    <polygon class="cls-67" points="1044.59 597.239 1027.298 592.916 1055.668 592.916 1044.59 597.239"/>
    <path class="cls-68" d="M1086.74,544.2822s9.7268,9.7268,14.05,9.7268l2.1615-6.4846s12.9691-2.1615,10.8075-4.323-17.292-2.1615-17.292-2.1615H1086.74l-1.0807,2.1615Z"/>
    <path class="cls-69" d="M927.8692,489.1638s-11.818-1.9767-15.6358,4.4154,16.7166,5.3114,16.7166,5.3114,5.4037-3.2423,9.7267,3.2422,0-6.6288,0-6.6288l-7.5652-7.72Z"/>
    <path class="cls-70" d="M861.34,490.37l-4.8,9.6009s23.7765-6.4845,25.938-2.1615a8.3007,8.3007,0,0,0,6.9533,4.3708l4.935-3.29-18.3728-14.05-9.2546,1.5424A7.3952,7.3952,0,0,0,861.34,490.37Z"/>
    <path class="cls-71" d="M839.5574,486.2429l-17.6019.7594s-10.8075,8.646-8.646,10.8075,24.8573-7.5652,24.8573-7.5652Z"/>
    <path class="cls-72" d="M838.45,477.3228s-3.5017-14.6029-12.16-15.4307-19.4656,1.3336-19.4656,3.4951v6.4386l2.1615,2.2075,2.1616,2.1615h8.646l16.2113,3.2422Z"/>
    <path class="cls-73" d="M836.0053,479.437l-24.8573-5.4037s0-8.6461,4.323-8.6461,8.646,4.0471,11.8882,4.1851,5.4038,6.6225,5.4038,6.6225l5.6872,1.128Z"/>
    <path class="cls-72" d="M866.8793,446.1605s15.5983-.2268,17.76,1.9347,9.7268,11.9573,9.7268,11.9573l-13.7433-2.3455-8.9525,1.1957Z"/>
    <path class="cls-72" d="M874.9123,418.9149a29.3371,29.3371,0,0,1,14.05-3.2423s4.323,4.323,5.4038,8.6461-17.4438-1.3843-17.4438-1.3843Z"/>
    <polygon class="cls-74" points="848.974 408.107 850.055 400.542 856.54 400.542 848.974 408.107"/>
    <polygon class="cls-75" points="871.67 387.573 854.378 394.058 850.055 400.542 856.54 400.542 866.879 398.335 871.67 387.573"/>
    <polygon class="cls-76" points="848.974 408.107 845.732 389.735 850.055 389.735 850.055 400.542 848.974 408.107"/>
    <polygon class="cls-77" points="865.186 370.281 845.732 389.735 850.055 389.735 860.311 380.008 865.186 370.281"/>
    <path class="cls-78" d="M845.732,389.7346l-8.646-4.323s-2.1615-6.4845-8.646-6.4845h-8.646s0-6.4846,8.646-6.4846,12.969,8.6461,12.969,8.6461Z"/>
    <polygon class="cls-78" points="809.446 389.735 802.502 398.381 808.986 398.921 817.632 398.381 815.471 391.896 809.446 389.735"/>
    <path class="cls-79" d="M837.086,385.4116H820.3918s1.5637,4.323-2.7593,4.323-4.34,1.38-4.34,1.38l2.1782.7815,2.1615,6.4845h10.3016l3.2193-6.4845h3.7711Z"/>
    <polygon class="cls-79" points="802.502 398.381 802.502 406.521 802.502 410.729 810.067 414.109 813.309 415.673 821.955 409.188 821.955 405.417 824.117 402.704 802.502 398.381"/>
    <polygon class="cls-80" points="827.359 425.399 813.309 415.673 821.955 409.188 827.359 416.753 827.359 425.399"/>
    <polygon class="cls-12" points="828.617 426.867 811.148 424.733 811.148 428.642 830.416 428.965 828.617 426.867"/>
    <path class="cls-81" d="M811.148,424.7326s-2.1616,1.7476-6.4846,1.7476-8.646-6.4846-8.646-6.4846-12.2332-1.3336-16.9241,4.737-2.5294,8.2321-2.5294,8.2321l10.8075-2.1615,19.4535-.092,4.3231-2.07Z"/>
    <path class="cls-82" d="M800.34,426.8489s-6.4845-6.8533-12.969-4.6917-8.646,6.4845-8.646,6.4845H800.34Z"/>
    <path class="cls-83" d="M957.05,453.499s20.5343,5.4037,22.6958,9.7267l4.323,8.6461s4.3231-17.2921-2.1615-19.4536-24.8573,0-24.8573,0"/>
    <path class="cls-84" d="M980.8261,405.9459s9.7268,3.2422,9.7268,11.8882-5.073,1.1958-5.073,1.1958l-13.3,4.208s-10.8412-6.9745-3.8-12.6736S980.8261,405.9459,980.8261,405.9459Z"/>
    <polygon class="cls-85" points="977.584 411.35 971.265 415.673 980.895 417.834 984.068 415.673 977.584 411.35"/>
    <path class="cls-86" d="M910.5772,402.7036s-17.2921-12.969-23.7766-12.969h-9.8877l20.6953,17.292h12.969Z"/>
    <polygon class="cls-84" points="914.106 423.671 914.9 402.704 919.683 402.704 920.304 421.076 914.106 423.671"/>
    <polygon class="cls-84" points="910.577 407.027 914.609 410.385 914.9 402.704 910.577 402.704 910.577 407.027"/>
    <path class="cls-86" d="M919.6831,402.7036s17.568-8.646,23.6846-8.646h10.44v-4.323L943,385.4116h-8.37s-13.245,10.8075-15.4065,10.8075Z"/>
    <polygon class="cls-87" points="909.243 385.412 919.223 396.219 934.63 385.412 927.869 381.089 920.304 381.089 914.9 378.007 914.9 383.066 909.243 385.412"/>
    <path class="cls-88" d="M904.0927,368.12s-2.1615,10.8076,0,12.9691a50.1758,50.1758,0,0,0,5.1508,4.323l5.6567-2.3455v-5.0588l5.4038,3.0813h7.5652s-4.0368-8.2322-10.6644-9.52A119.83,119.83,0,0,1,904.0927,368.12Z"/>
    <path class="cls-89" d="M972.18,395.1383,961.3725,397.3s1.0808-9.7267,7.5653-11.8882c0,0,2.1615-4.323,4.323-4.323s6.4845,6.4845,6.4845,6.4845,4.323,2.1615,4.323,4.323-3.9091,3.2422-3.9091,3.2422Z"/>
    <path class="cls-90" d="M966.7763,372.4425l4.0826,10.1085s.24-1.4624,2.4019-1.4624-2.6674-8.6461-2.6674-8.6461Z"/>
    <path class="cls-91" d="M966.7763,372.4425l-4.323-6.4845s-17.292-2.1615-12.969-4.323,10.8075-2.1615,10.8075-2.1615v-4.323l8.646-2.1615s2.1615,0,2.1615,4.323v15.13Z"/>
    <path class="cls-92" d="M914.9,359.4735s6.4845-19.4535,12.969-19.4535,21.2012,9.7267,21.2012,9.7267,6.8984,1.0808,9.06,1.0808,2.1615,4.323,2.1615,4.323H930.0307Z"/>
    <path class="cls-93" d="M932.2612,346.5045s-9.7038,4.9208-12.4171,4.6219,20.9942.0131,20.9942.0131l.0689-4.635Z"/>
    <path class="cls-93" d="M959.0147,351.14s5.6-5.6008,7.7616-5.1179,4.323-8.692,4.323-8.692l-2.1615-3.7942s-8.646-12.969-21.615-12.969-17.0553,2.69-17.0553,2.69-4.56-4.8519-2.3983-7.0134,10.8075-6.4845,10.8075-6.4845l10.8076,8.646,17.292,6.4845,6.4845,8.646s4.323,6.4846,2.1615,8.6461-15.3274,11.155-15.3274,11.155Z"/>
    <path class="cls-93" d="M973.2608,333.5354h4.323l6.4845-12.969s17.2921,2.1615,17.2921,6.4845-6.4845,6.4845-6.4845,6.4845l-18.8728,7.2673-2.7423-5.1057Z"/>
    <path class="cls-94" d="M984.0683,320.5664s-6.4845-2.1615,0-4.323a63.8486,63.8486,0,0,0,12.9691-6.4845l6.4845,6.4845h21.615s.4139,4.323-7.3583,4.323H997.0374l-.1338,2.8938Z"/>
    <path class="cls-95" d="M981.1912,318.307l-1.4459,2.2594-8.646-1.8856s-5.8406-6.76-4.0011-8.9219,6.1626-4.323,6.1626-4.323l28.1,2.1615-4.323,2.1615Z"/>
    <path class="cls-96" d="M960.2918,293.2027s-8.646,3.5872-8.646,5.7487,15.4524,10.8075,15.4524,10.8075l6.1626-4.323,15.4671,1.19s-1.7775-6.6626-7.5416-7.1684-7.9255,2.0235-7.9255,2.0235Z"/>
    <path class="cls-97" d="M943,285.9823h-2.1615l.0689,6.3006a50.1821,50.1821,0,0,1,12.9-1.9776c6.4845,0,6.4845,2.8974,6.4845,2.8974l12.969,8.2781,2.7668-1.5666-.6053-5.2858s4.323,0,4.323-2.1615,2.1615-11.0835,0-10.9455a37.6791,37.6791,0,0,1-4.277-.0016l-2.2075,4.7845-6.4845-.322-.5979-4.4625s-5.8866.1395-10.21,2.301S943,285.9823,943,285.9823Z"/>
    <path class="cls-98" d="M1007.8449,316.2434s2.1615-21.615,8.646-21.615h6.4845s-6.4845,4.323-8.646,6.4845-4.323,8.646-4.323,8.646l.046,6.8506Z"/>
    <path class="cls-99" d="M1022.9754,294.6284h17.2921s4.323-4.3231,8.646-4.3231,10.8075-2.1615,8.646-4.323-8.646-4.323-15.13-4.323-15.1306,4.323-15.1306,4.323l-6.2085,8.6461Z"/>
    <path class="cls-100" d="M1025.1369,316.2434s4.3231-8.646,10.8076-8.646,9.3588,8.646,9.3588,8.646l-21.0147,2.2578Z"/>
    <path class="cls-101" d="M1672.5077,185.4724s-27.0188-7.5653-35.6649,1.0807-8.646,30.2611-4.323,38.9071,8.6461-15.13,8.6461-15.13Z"/>
    <polygon class="cls-101" points="1677.826 158.836 1647.65 147.646 1643.327 143.323 1665.954 143.323 1692.996 155.211 1680.073 156.292 1677.826 158.836"/>
    <polygon class="cls-102" points="1643.327 143.323 1640.016 139 1627.323 139 1610.905 158.454 1645.489 154.131 1650.565 148.727 1643.327 143.323"/>
    <polygon class="cls-103" points="1780.583 170.342 1764.372 156.292 1732.179 156.292 1727.626 147.646 1775.179 147.646 1783.825 158.454 1787.504 168.916 1780.583 170.342"/>
    <path class="cls-104" d="M1842.8656,161.5752s14.4508,7.6859,14.4508,14.17v10.5776l8.646-8.4161v-12.969L1855.643,155.33l-10.2149,2.043Z"/>
  </g>
</svg>
