<svg id="Contact" xmlns="http://www.w3.org/2000/svg" xmlns:xlink="http://www.w3.org/1999/xlink" viewBox="0 0 1920 1080.6319">
  <defs>
    <style>
      .cls-1 {
        fill: url(#Dégradé_sans_nom_747);
      }

      .cls-120, .cls-132, .cls-2, .cls-74, .cls-94 {
        opacity: 0.1;
      }

      .cls-2 {
        fill: url(#Dégradé_sans_nom_754);
      }

      .cls-3 {
        fill: #4b4511;
      }

      .cls-4 {
        fill: #27080f;
      }

      .cls-5 {
        fill: #431218;
      }

      .cls-6 {
        fill: #3b131e;
      }

      .cls-7 {
        fill: #4a1e25;
      }

      .cls-8 {
        fill: #984a3c;
      }

      .cls-9 {
        fill: #5c261d;
      }

      .cls-10 {
        fill: #884226;
      }

      .cls-11 {
        fill: #2d0c10;
      }

      .cls-12 {
        fill: url(#Dégradé_sans_nom_188);
      }

      .cls-13 {
        fill: url(#Dégradé_sans_nom_114);
      }

      .cls-14 {
        fill: #4e4414;
      }

      .cls-15 {
        fill: #501f23;
      }

      .cls-16 {
        fill: #30090c;
      }

      .cls-17 {
        fill: #1d0513;
      }

      .cls-18 {
        fill: #3e192d;
      }

      .cls-19 {
        fill: #1c0613;
      }

      .cls-20 {
        fill: #4d4415;
      }

      .cls-21 {
        fill: #331121;
      }

      .cls-22 {
        fill: #491528;
      }

      .cls-23 {
        fill: #6e2c44;
      }

      .cls-24 {
        fill: #571e35;
      }

      .cls-25 {
        fill: #6d2c44;
      }

      .cls-26 {
        fill: #581e36;
      }

      .cls-27 {
        fill: #702d41;
      }

      .cls-28 {
        fill: #6e2c42;
      }

      .cls-29 {
        fill: #6d2d44;
      }

      .cls-30 {
        fill: #1c0517;
      }

      .cls-31 {
        fill: #2d0e28;
      }

      .cls-32 {
        fill: #361532;
      }

      .cls-33 {
        fill: #20081e;
      }

      .cls-34 {
        fill: #311021;
      }

      .cls-35 {
        fill: #5b5e0c;
      }

      .cls-36 {
        fill: #2a0b1a;
      }

      .cls-37 {
        fill: #300e21;
      }

      .cls-38 {
        fill: #3a172f;
      }

      .cls-39 {
        fill: #49440f;
      }

      .cls-40 {
        fill: #260b1c;
      }

      .cls-41 {
        fill: #2f0f24;
      }

      .cls-42 {
        fill: #24091c;
      }

      .cls-43 {
        fill: #3a162e;
      }

      .cls-44 {
        fill: #48450e;
      }

      .cls-45 {
        fill: #351022;
      }

      .cls-46 {
        fill: #44192a;
      }

      .cls-47 {
        fill: #190511;
      }

      .cls-48 {
        fill: #2a0b1c;
      }

      .cls-49 {
        fill: #210a1e;
      }

      .cls-50 {
        fill: #1b0619;
      }

      .cls-51 {
        fill: #2f0c18;
      }

      .cls-52 {
        fill: #1d060e;
      }

      .cls-53 {
        fill: #4a4513;
      }

      .cls-54 {
        fill: #471c27;
      }

      .cls-55 {
        fill: #6a2b3b;
      }

      .cls-56 {
        fill: #330e14;
      }

      .cls-57 {
        fill: #2b0b10;
      }

      .cls-58 {
        fill: #40141d;
      }

      .cls-59 {
        fill: #26070c;
      }

      .cls-60 {
        fill: #2f0b0d;
      }

      .cls-61 {
        fill: #2a0809;
      }

      .cls-62 {
        fill: #27090b;
      }

      .cls-63 {
        fill: #421519;
      }

      .cls-64 {
        fill: #6d706b;
      }

      .cls-65 {
        fill: #afb899;
        opacity: 0.6;
      }

      .cls-66 {
        fill: #3c0f12;
      }

      .cls-67 {
        fill: #401112;
      }

      .cls-68 {
        fill: #20170a;
      }

      .cls-69 {
        fill: #380f12;
      }

      .cls-70 {
        fill: #3c4114;
      }

      .cls-71 {
        fill: #59832c;
      }

      .cls-72 {
        fill: #6c6f6a;
      }

      .cls-73 {
        fill: #7c9933;
      }

      .cls-74 {
        fill: url(#Dégradé_sans_nom_421);
      }

      .cls-75 {
        fill: #6b9b3b;
      }

      .cls-76 {
        fill: url(#Dégradé_sans_nom_289);
      }

      .cls-77 {
        fill: #753a2a;
      }

      .cls-78 {
        fill: #5d8e32;
      }

      .cls-79 {
        fill: #825e27;
      }

      .cls-80 {
        fill: #5c5d5b;
      }

      .cls-81 {
        fill: #8da324;
      }

      .cls-82 {
        fill: #8d9a37;
      }

      .cls-83 {
        fill: #62655f;
      }

      .cls-84 {
        fill: #6f8885;
      }

      .cls-85 {
        fill: #607e80;
      }

      .cls-86 {
        fill: #87a634;
      }

      .cls-87 {
        fill: #809f31;
      }

      .cls-88 {
        fill: #7d958f;
      }

      .cls-89 {
        fill: #89b436;
      }

      .cls-90 {
        fill: #699130;
      }

      .cls-91 {
        fill: #849827;
      }

      .cls-92 {
        fill: url(#Dégradé_sans_nom_445);
      }

      .cls-93 {
        fill: url(#Dégradé_sans_nom_442);
      }

      .cls-94 {
        fill: url(#Dégradé_sans_nom_421-2);
      }

      .cls-95 {
        fill: #888928;
      }

      .cls-96 {
        fill: #9ca538;
      }

      .cls-97 {
        fill: #808725;
      }

      .cls-98 {
        fill: #a0aa37;
      }

      .cls-99 {
        fill: #83932b;
      }

      .cls-100 {
        fill: #6d741f;
      }

      .cls-101 {
        fill: #69666a;
      }

      .cls-102 {
        fill: #7f8679;
      }

      .cls-103 {
        fill: #75786b;
      }

      .cls-104 {
        fill: #868d7b;
      }

      .cls-105 {
        fill: #757e6d;
      }

      .cls-106 {
        fill: #646c5d;
      }

      .cls-107 {
        fill: #77806f;
      }

      .cls-108 {
        fill: #687162;
      }

      .cls-109 {
        fill: #77806b;
      }

      .cls-110 {
        fill: #76826d;
      }

      .cls-111 {
        fill: #788070;
      }

      .cls-112 {
        fill: #676f61;
      }

      .cls-113 {
        fill: #75806f;
      }

      .cls-114 {
        fill: #6a6c69;
      }

      .cls-115 {
        fill: #767773;
      }

      .cls-116 {
        fill: #787973;
      }

      .cls-117 {
        fill: #747071;
      }

      .cls-118 {
        fill: #5f5464;
      }

      .cls-119 {
        fill: #584750;
      }

      .cls-120 {
        fill: url(#Dégradé_sans_nom_421-3);
      }

      .cls-121 {
        fill: #748f8b;
      }

      .cls-122 {
        fill: #b2b891;
      }

      .cls-123 {
        fill: #aab490;
      }

      .cls-124 {
        fill: #bac4ab;
      }

      .cls-125 {
        fill: #bec7a4;
      }

      .cls-126 {
        fill: #7f9485;
      }

      .cls-127 {
        fill: #859238;
      }

      .cls-128 {
        fill: #5e625d;
      }

      .cls-129 {
        fill: #a6ae3d;
      }

      .cls-130 {
        fill: #707a2b;
      }

      .cls-131 {
        fill: #625c66;
      }

      .cls-132 {
        fill: url(#Dégradé_sans_nom_421-4);
      }

      .cls-133 {
        fill: #59555a;
      }

      .cls-134 {
        fill: #939e3c;
      }

      .cls-135 {
        fill: #696969;
      }

      .cls-136 {
        fill: #a8af4a;
      }

      .cls-137 {
        fill: #858725;
      }

      .cls-138 {
        fill: #a7af42;
      }

      .cls-139 {
        fill: #7d8124;
      }

      .cls-140 {
        fill: #96a48b;
      }

      .cls-141 {
        fill: #728c8a;
      }

      .cls-142 {
        fill: url(#Dégradé_sans_nom_606);
      }

      .cls-143 {
        fill: #898b2e;
      }

      .cls-144 {
        fill: #514958;
      }

      .cls-145 {
        fill: #645969;
      }

      .cls-146 {
        fill: #6a6969;
      }

      .cls-147 {
        fill: #73796d;
      }

      .cls-148 {
        fill: #78806d;
      }

      .cls-149 {
        fill: #5d5460;
      }

      .cls-150 {
        fill: #737c6d;
      }

      .cls-151 {
        fill: #656e5d;
      }

      .cls-152 {
        fill: #77816f;
      }

      .cls-153 {
        fill: #a5b090;
      }

      .cls-154 {
        fill: #9eaa8c;
      }

      .cls-155 {
        fill: #869886;
      }

      .cls-156 {
        fill: #607d7f;
      }

      .cls-157 {
        fill: #789084;
      }

      .cls-158 {
        fill: #839886;
      }

      .cls-159 {
        fill: #7a9184;
      }

      .cls-160 {
        fill: #68837f;
      }

      .cls-161 {
        fill: #9da28c;
      }

      .cls-162 {
        fill: #70726c;
      }

      .cls-163 {
        fill: #6c6b63;
      }

      .cls-164 {
        fill: #60635d;
      }

      .cls-165 {
        fill: #757c71;
      }

      .cls-166 {
        fill: #939682;
      }

      .cls-167 {
        fill: #828b75;
      }

      .cls-168 {
        fill: url(#Dégradé_sans_nom_421-5);
      }

      .cls-169 {
        fill: #717a68;
      }

      .cls-170 {
        fill: #7f8b73;
      }

      .cls-171 {
        fill: #97a188;
      }

      .cls-172 {
        fill: #5e7d7f;
      }

      .cls-173 {
        fill: #607e7f;
      }

      .cls-174 {
        fill: #607d80;
      }

      .cls-175 {
        fill: #a4b5a6;
      }

      .cls-176 {
        fill: #9fa98c;
      }

      .cls-177 {
        fill: url(#Dégradé_sans_nom_445-2);
      }

      .cls-178 {
        fill: #ffd7ca;
      }

      .cls-179 {
        fill: #ffefdf;
      }

      .cls-180 {
        fill: #efd1b6;
      }

      .cls-181 {
        fill: url(#Dégradé_sans_nom_445-3);
      }

      .cls-182 {
        fill: url(#Dégradé_sans_nom_445-4);
      }

      .cls-183 {
        fill: #963d31;
      }

      .cls-184 {
        fill: #893429;
      }

      .cls-185 {
        fill: #71292b;
      }

      .cls-186 {
        fill: #813538;
      }

      .cls-187 {
        fill: #70282d;
      }

      .cls-188 {
        fill: #7c3139;
      }

      .cls-189 {
        fill: #571b24;
      }

      .cls-190 {
        fill: url(#Dégradé_sans_nom_371);
      }

      .cls-191 {
        fill: #9f4934;
      }

      .cls-192 {
        fill: url(#Dégradé_sans_nom_388);
      }

      .cls-193 {
        fill: #894d2b;
      }

      .cls-194 {
        fill: #752f3c;
      }

      .cls-195 {
        fill: #61222c;
      }

      .cls-196 {
        fill: #64212b;
      }

      .cls-197 {
        fill: #74303d;
      }

      .cls-198 {
        fill: #97ac28;
      }

      .cls-199 {
        fill: #759e38;
      }

      .cls-200 {
        fill: #7e4637;
      }

      .cls-201 {
        fill: #924d2d;
      }

      .cls-202 {
        fill: #a26337;
      }

      .cls-203 {
        fill: #6f3a25;
      }

      .cls-204 {
        fill: #8eaa3a;
      }

      .cls-205 {
        fill: #585359;
      }

      .cls-206 {
        fill: #5c5e5d;
      }
    </style>
    <linearGradient id="Dégradé_sans_nom_747" data-name="Dégradé sans nom 747" x1="1028.7948" y1="904.5169" x2="1028.7948" y2="61.2736" gradientUnits="userSpaceOnUse">
      <stop offset="0.0199" stop-color="#669fd4"/>
      <stop offset="0.4531" stop-color="#7cbde8"/>
      <stop offset="1" stop-color="#94dfff"/>
    </linearGradient>
    <linearGradient id="Dégradé_sans_nom_754" data-name="Dégradé sans nom 754" x1="1092.1073" y1="907.1159" x2="1092.1073" y2="226.446" gradientUnits="userSpaceOnUse">
      <stop offset="0.0199" stop-color="#9fb2aa" stop-opacity="0.8"/>
      <stop offset="0.3161" stop-color="#b4c0a9" stop-opacity="0.8"/>
      <stop offset="0.6445" stop-color="#c2caa9" stop-opacity="0.8"/>
      <stop offset="1" stop-color="#c7cda9" stop-opacity="0.8"/>
    </linearGradient>
    <radialGradient id="Dégradé_sans_nom_188" data-name="Dégradé sans nom 188" cx="183.6321" cy="625.8691" r="15.5835" gradientTransform="translate(-7.0588 -282.3062) scale(1.0084 1.2612)" gradientUnits="userSpaceOnUse">
      <stop offset="0" stop-color="#dc6f00"/>
      <stop offset="0.3084" stop-color="#d86e02"/>
      <stop offset="0.6091" stop-color="#cc6b07"/>
      <stop offset="0.906" stop-color="#b9670f"/>
      <stop offset="1" stop-color="#b16512"/>
    </radialGradient>
    <radialGradient id="Dégradé_sans_nom_114" data-name="Dégradé sans nom 114" cx="105.2201" cy="708.5955" r="34.8523" gradientTransform="translate(-7.0588 -282.3062) scale(1.0084 1.2612)" gradientUnits="userSpaceOnUse">
      <stop offset="0" stop-color="#dc6f00"/>
      <stop offset="0.4183" stop-color="#da6e00"/>
      <stop offset="0.5839" stop-color="#d36a02"/>
      <stop offset="0.7048" stop-color="#c76304"/>
      <stop offset="0.8039" stop-color="#b65907"/>
      <stop offset="0.8896" stop-color="#9f4c0b"/>
      <stop offset="0.9648" stop-color="#843c0f"/>
      <stop offset="1" stop-color="#743312"/>
    </radialGradient>
    <linearGradient id="Dégradé_sans_nom_421" data-name="Dégradé sans nom 421" x1="905.5809" y1="906.0634" x2="905.5809" y2="211.7714" gradientUnits="userSpaceOnUse">
      <stop offset="0.0199" stop-color="#9fb2aa" stop-opacity="0.7"/>
      <stop offset="0.2719" stop-color="#b2bfaa" stop-opacity="0.7"/>
      <stop offset="0.6215" stop-color="#c2c9a9" stop-opacity="0.7"/>
      <stop offset="1" stop-color="#c7cda9" stop-opacity="0.7"/>
    </linearGradient>
    <linearGradient id="Dégradé_sans_nom_289" data-name="Dégradé sans nom 289" x1="837.7271" y1="853.0349" x2="837.7271" y2="1004.2411" gradientUnits="userSpaceOnUse">
      <stop offset="0" stop-color="#c6c232"/>
      <stop offset="0.1329" stop-color="#bfbf32"/>
      <stop offset="0.3195" stop-color="#adb833"/>
      <stop offset="0.5372" stop-color="#8fac34"/>
      <stop offset="0.5391" stop-color="#8fac34"/>
      <stop offset="1" stop-color="#8fac34"/>
    </linearGradient>
    <linearGradient id="Dégradé_sans_nom_445" data-name="Dégradé sans nom 445" x1="609.1828" y1="905.7839" x2="609.1828" y2="777.9085" gradientUnits="userSpaceOnUse">
      <stop offset="0.0199" stop-color="#dda430" stop-opacity="0.4"/>
      <stop offset="0.2992" stop-color="#d9a333" stop-opacity="0.3884"/>
      <stop offset="0.5055" stop-color="#cc9f3d" stop-opacity="0.3513"/>
      <stop offset="0.6883" stop-color="#b7984d" stop-opacity="0.2887"/>
      <stop offset="0.8566" stop-color="#998f64" stop-opacity="0.2008"/>
      <stop offset="1" stop-color="#76857f" stop-opacity="0.1"/>
    </linearGradient>
    <linearGradient id="Dégradé_sans_nom_442" data-name="Dégradé sans nom 442" x1="400.4419" y1="607.408" x2="400.4419" y2="527.4859" gradientUnits="userSpaceOnUse">
      <stop offset="0.0255" stop-color="#dda430" stop-opacity="0.4"/>
      <stop offset="0.351" stop-color="#daa333" stop-opacity="0.3901"/>
      <stop offset="0.5463" stop-color="#cea03b" stop-opacity="0.3573"/>
      <stop offset="0.7072" stop-color="#bb9a4a" stop-opacity="0.3013"/>
      <stop offset="0.8494" stop-color="#a0925f" stop-opacity="0.2221"/>
      <stop offset="0.9781" stop-color="#7d877a" stop-opacity="0.1205"/>
      <stop offset="1" stop-color="#76857f" stop-opacity="0.1"/>
    </linearGradient>
    <linearGradient id="Dégradé_sans_nom_421-2" x1="667.9904" y1="892.0101" x2="667.9904" y2="181.8547" xlink:href="#Dégradé_sans_nom_421"/>
    <linearGradient id="Dégradé_sans_nom_421-3" x1="585.6475" y1="804.5492" x2="585.6475" y2="175.4005" xlink:href="#Dégradé_sans_nom_421"/>
    <linearGradient id="Dégradé_sans_nom_421-4" x1="787.2559" y1="904.2434" x2="787.2559" y2="182.3825" xlink:href="#Dégradé_sans_nom_421"/>
    <linearGradient id="Dégradé_sans_nom_606" data-name="Dégradé sans nom 606" x1="991.0891" y1="203.0522" x2="991.0891" y2="203.0522" gradientUnits="userSpaceOnUse">
      <stop offset="0.0199" stop-color="#4a9ddf"/>
      <stop offset="0.5196" stop-color="#72c1f0"/>
      <stop offset="1" stop-color="#94dfff"/>
    </linearGradient>
    <linearGradient id="Dégradé_sans_nom_421-5" x1="700.288" y1="338.6413" x2="700.288" y2="229.5892" xlink:href="#Dégradé_sans_nom_421"/>
    <linearGradient id="Dégradé_sans_nom_445-2" x1="986.1946" y1="642.0409" x2="998.9746" y2="642.0409" xlink:href="#Dégradé_sans_nom_445"/>
    <linearGradient id="Dégradé_sans_nom_445-3" x1="1067.135" y1="394.2824" x2="1092.6951" y2="394.2824" xlink:href="#Dégradé_sans_nom_445"/>
    <linearGradient id="Dégradé_sans_nom_445-4" x1="1018.1447" y1="356.9854" x2="1030.9248" y2="356.9854" xlink:href="#Dégradé_sans_nom_445"/>
    <linearGradient id="Dégradé_sans_nom_371" data-name="Dégradé sans nom 371" x1="332.2815" y1="948.409" x2="332.2815" y2="921.7683" gradientUnits="userSpaceOnUse">
      <stop offset="0.0199" stop-color="#eea27d" stop-opacity="0.6"/>
      <stop offset="0.4921" stop-color="#e69e7e" stop-opacity="0.6"/>
      <stop offset="1" stop-color="#d19381" stop-opacity="0.6"/>
    </linearGradient>
    <linearGradient id="Dégradé_sans_nom_388" data-name="Dégradé sans nom 388" x1="886.4014" y1="1024.4139" x2="1121.6088" y2="1024.4139" gradientUnits="userSpaceOnUse">
      <stop offset="0.0199" stop-color="#9f4934"/>
      <stop offset="0.9134" stop-color="#ca8976"/>
    </linearGradient>
  </defs>
  <g id="Caverne">
    <path class="cls-1" d="M545.2825,61.2736l-2.13,66.6018L419.612,239.7663l-60.8053,4.8976-9.4851,51.0479L346.93,254.2275l-25.2987,57.4687-17.04,21.3126,21.2243,79.1568L434.522,426.2512s4.26,93.2425-10.65,93.2425l-10.65-26.6407-41.1186,72.8011-3.7518,80.0178,2.27,7.0253,2.13,12.5835,22.1159,213.8625H419.612l8.52,5.3281,148.3864,6.5572,80.0333,3.3081,207.1424,7.4842,153.6357,2.6961,26.3751-1.3971,421.4221-50.0849,83.39-11.1887,25.56-64.5612-17.04-49.9938,146.9707-170.5h48.99L1740.49,540.316h-47.1321l-44.73-140.7055L1475.9505,255.3247l-12.6337,160.27L1456.61,207.7975H1307.8261l-12.78,15.9844-72.42,15.9844s-80.7591,0-104.28-15.9844l-17.1307,29.3048,6.39,2.664-8.52,197.1412s-2.13-213.1256-12.78-226.4459L1066.41,253.6535s-34.9413,78.7318-41.6032,85.7037c0,0-5.4383,12.13-9.2452,10.883s-7.7577-9.0012-10.0423-27.7687S998.6634,254.53,989.234,241.82s-24.5082-40.1732-45.7239-43.758-95.7662-14.2411-95.7662-14.2411l-159.7507-13.32-2.13-77.258Z"/>
    <polygon class="cls-2" points="1016.015 907.116 1168.2 887.135 1158.725 235.713 1086.305 226.446 1016.015 907.116"/>
    <path class="cls-3" d="M0,422l217.9861-23.8066L434.522,426.2512s2.13,98.5706-10.65,93.2425-14.91-53.2814-14.91-53.2814l-55.38-2.6641-97.98,250.4226,36.21-242.43-32.1768,84.0033,14.6835-99.9877h-29.367L0,460.0906Z"/>
    <polygon class="cls-4" points="244.951 455.556 0 460.091 0 780.573 70.29 780.573 138.451 783.237 244.951 455.556"/>
    <polygon class="cls-5" points="70.29 780.573 0 780.573 0 794.743 70.29 804.549 70.29 780.573"/>
    <path class="cls-6" d="M244.9511,455.556h29.367l-14.6835,99.9877L291.8114,471.54l-36.21,242.43,97.98-250.4226,55.38,2.6641,4.26,26.6407L249.2112,783.2367s-31.18-29.3048-62.45,0h-48.31Z"/>
    <polygon class="cls-7" points="186.761 783.237 138.451 783.237 161.881 815.205 186.761 783.237"/>
    <path class="cls-8" d="M249.2112,783.2367c34.08,2.664,27.0028,79.8191,27.0028,79.8191L252.42,867.0825Z"/>
    <path class="cls-9" d="M232.1711,772.58s-33.31-5.3282-45.41,10.6563h62.45Z"/>
    <polygon class="cls-10" points="249.211 783.237 252.42 867.083 229.046 871.919 178.921 871.151 161.881 815.205 186.761 783.237 249.211 783.237"/>
    <polygon class="cls-11" points="161.881 815.205 178.921 871.151 229.046 871.919 0 915.051 0 794.743 70.29 804.549 70.29 780.573 138.451 783.237 161.881 815.205"/>
    <ellipse class="cls-12" cx="178.1164" cy="507.0661" rx="15.7145" ry="19.6546"/>
    <ellipse class="cls-13" cx="99.0455" cy="611.4041" rx="35.1452" ry="43.9572"/>
    <path class="cls-14" d="M0,922.8453H191.6556l91.6357-46.3662s-2.13-18.6485-14.91-13.32S0,915.0514,0,915.0514Z"/>
    <polygon class="cls-15" points="283.291 876.479 191.656 922.845 167.206 1037.655 187.441 1044.316 283.291 876.479"/>
    <polygon class="cls-16" points="0 922.845 191.656 922.845 167.206 1037.655 71.287 1080.632 0 1080.632 0 922.845"/>
    <polygon class="cls-17" points="0 383.683 170.401 375.634 160.862 404.432 0 422 0 383.683"/>
    <path class="cls-18" d="M31.95,287.72,0,342.4181v41.2647l170.4008-8.0489h62.586L189.5709,263.743S63.9,293.0477,31.95,287.72Z"/>
    <polygon class="cls-19" points="0 285.282 0 342.418 31.95 287.72 0 285.282"/>
    <path class="cls-3" d="M181.0508,231.7741S31.95,252.0664,0,249.9125v35.37L31.95,287.72s91.59-2.6641,157.6208-23.9766S342.9316,143.86,342.9316,143.86l80.94-77.258s12.78-10.6563-46.86-15.9845-181.0509-13.32-181.0509-13.32H0V226.3326Z"/>
    <path class="cls-20" d="M349.3216,295.7118s4.26,5.3281,17.04-117.2191c0,0,10.65,15.9844,23.43-10.6563s31.95-71.93,34.08-101.2346L401.99,87.4883s13.1808,69.6918-25.0688,75.02c0,0-19.0794,3.7858-27.6-24.7478l-8.6116,8.5628Z"/>
    <polygon class="cls-21" points="232.987 375.634 217.986 398.193 160.862 404.432 170.401 375.634 232.987 375.634"/>
    <polygon class="cls-22" points="232.308 400.049 232.987 375.634 217.986 398.193 232.308 400.049"/>
    <polygon class="cls-23" points="325.816 412.166 304.591 333.009 221.521 327.681 222.989 349.867 232.987 375.634 232.308 400.049 325.816 412.166"/>
    <polygon class="cls-24" points="206.422 307.173 321.631 311.696 304.591 333.009 221.521 327.681 222.989 349.867 206.422 307.173"/>
    <path class="cls-25" d="M189.5709,263.743l16.8516,43.43,115.209,4.5235L346.93,254.2275l-.6018-10.4406s-46.245-9.9253-71.6811-33.6136C274.6473,210.1733,219.391,255.7507,189.5709,263.743Z"/>
    <path class="cls-26" d="M344.2256,207.31l-45.0782-19.0008-24.5,21.8645s18.8343,25.67,71.6811,33.6136Z"/>
    <polygon class="cls-26" points="362.443 214.515 419.612 239.766 358.807 244.664 362.443 214.515"/>
    <path class="cls-27" d="M423.872,66.6018l27.69-26.6407,93.72,21.3125-2.13,66.6018L419.612,239.7663l-57.17-25.2518,3.9192-36.0218s16.3335,18.6933,28.4018-21.29c0,0,19.4585-41.398,24.2835-64.6673S423.872,66.6018,423.872,66.6018Z"/>
    <path class="cls-28" d="M401.99,87.4883l-52.6683,50.2722s8.3388,30.0759,27.6,24.7478c0,0,28.8115-3.2,27.2311-52.2174Z"/>
    <polygon class="cls-29" points="344.226 207.31 299.147 188.309 340.71 146.323 344.226 207.31"/>
    <path class="cls-30" d="M0,226.3326v23.58s161.8808-10.1462,181.0508-18.1384Z"/>
    <polygon class="cls-30" points="300.18 44.547 323.762 2.664 323.762 0 0 0 0 37.297 300.18 44.547"/>
    <polygon class="cls-30" points="451.562 39.961 413.222 0 323.762 0 323.762 2.664 451.562 39.961"/>
    <path class="cls-31" d="M300.18,44.5473,323.7615,2.6641l127.8006,37.297-27.69,26.6407s9.357-14.9185-56.0268-16.7835Z"/>
    <polygon class="cls-32" points="585.662 0 602.793 74.594 545.283 61.274 451.562 39.961 413.222 0 585.662 0"/>
    <polygon class="cls-33" points="861.929 0 685.863 93.242 602.793 74.594 585.662 0 861.929 0"/>
    <polygon class="cls-34" points="687.993 170.5 723.795 143.123 731.68 68.979 685.863 93.242 687.993 170.5"/>
    <polygon class="cls-35" points="985.639 202.481 1075.882 226.446 1024.535 330.345 1007.495 314.36 988.325 221.118 985.639 202.481"/>
    <polygon class="cls-36" points="756.044 56.075 758.284 138.532 723.795 143.123 731.68 68.979 756.044 56.075"/>
    <polygon class="cls-37" points="861.929 0 1032.964 0 1033.055 21.313 758.284 138.532 756.044 56.075 861.929 0"/>
    <path class="cls-38" d="M687.9932,170.5005l159.7507,13.32,78.81-47.9532s46.86-2.6641,198.0909,45.2892c0,0,63.9,31.9688,115.0206,18.6485,0,0,8.52-5.3282,25.56-42.6252l51.12-79.9221V59.46s-164.0107-38.1472-221.521-38.1472h-61.77L758.2835,138.5317l-34.488,4.5912Z"/>
    <path class="cls-3" d="M1295.046,223.7819l-72.42,15.9844s-85.0191,0-104.28-15.9844h-58.19L939.3344,197.1412l-91.59-13.32,78.81-47.9532s155.4907,21.3125,198.0909,45.2892,115.0206,18.6485,115.0206,18.6485l25.56-42.6252,51.12-79.9221Z"/>
    <path class="cls-39" d="M1099.0851,452.8919s-1.6315-205.1334-12.78-226.4459c0,0-29.82,37.297-36.21,61.2736s-31.95,61.2736-31.95,61.2736-10.65,16.6079-15.975-59.63c0,0-5.3251-38.9408-15.9751-52.2611s-23.5988-35.4556-42.6845-39.04l47.579,4.99,5.7555,47.37,10.65,47.9533s7.1151,27.5614,15.2726,27.101,46.4977-93.7028,46.4977-93.7028l9.9249-7.9922h39.1559l-17.1307,29.3048,6.39,2.664S1111.8652,266.407,1099.0851,452.8919Z"/>
    <path class="cls-40" d="M1316.3461,59.46,1324.4583,0H1032.9642l.0906,21.3126S1226.8857,28.3412,1316.3461,59.46Z"/>
    <polygon class="cls-41" points="1295.046 223.782 1307.826 207.797 1456.61 207.797 1693.358 55.945 1323.442 7.449 1316.346 77.258 1295.046 223.782"/>
    <polygon class="cls-42" points="1704.008 58.61 1693.358 55.945 1456.61 207.797 1704.008 58.61"/>
    <polygon class="cls-43" points="1672.058 170.5 1679.536 73.367 1704.008 58.61 1733.828 151.852 1672.058 170.5"/>
    <polygon class="cls-3" points="1478.227 226.446 1456.61 207.797 1679.536 73.367 1672.058 170.5 1646.498 186.485 1569.817 197.141 1478.227 226.446"/>
    <path class="cls-3" d="M1463.3168,415.595l14.91-189.149L1456.61,207.7975S1456.9268,394.2824,1463.3168,415.595Z"/>
    <polygon class="cls-44" points="1558.114 200.886 1558.114 288.456 1569.817 197.141 1558.114 200.886"/>
    <polygon class="cls-45" points="1475.95 255.325 1648.628 399.611 1850.979 356.985 1874.409 476.869 1920 478.796 1920 352.961 1853.109 354.321 1831.809 314.36 1814.768 317.024 1699.748 178.493 1733.828 151.852 1672.058 170.5 1646.498 186.485 1569.817 197.141 1558.114 288.456 1558.114 200.886 1478.227 226.446 1475.95 255.325"/>
    <polygon class="cls-46" points="1648.628 399.611 1693.358 540.316 1874.409 476.869 1850.979 356.985 1648.628 399.611"/>
    <polygon class="cls-47" points="1831.809 314.36 1910.619 298.376 1865.889 122.547 1733.828 151.852 1920 101.178 1920 352.961 1853.109 354.321 1831.809 314.36"/>
    <polygon class="cls-48" points="1699.748 178.493 1814.768 317.024 1831.809 314.36 1910.619 298.376 1865.889 122.547 1733.828 151.852 1699.748 178.493"/>
    <polygon class="cls-49" points="1704.008 58.61 1800.312 7.449 1920 68.529 1920 101.178 1733.828 151.852 1704.008 58.61"/>
    <polygon class="cls-50" points="1920 0 1324.458 0 1323.442 7.449 1704.008 58.61 1800.312 7.449 1920 68.529 1920 0"/>
    <polygon class="cls-51" points="1693.358 540.316 1740.49 540.316 1920 509.744 1920 478.796 1874.409 476.869 1693.358 540.316"/>
    <polygon class="cls-52" points="1920 562.799 1920 509.744 1740.49 540.316 1752.998 556.791 1920 562.799"/>
    <path class="cls-53" d="M1920,562.799v41.4915l-89.755-12.9236-36.7767,53.3381s-19.17,29.3048-14.91,2.6641,23.43-50.6174,23.43-50.6174-8.52-7.9922-19.17-2.664-55.38-13.32-66.03-23.9767-12.78-13.32-12.78-13.32h48.99Z"/>
    <path class="cls-54" d="M1704.0079,556.7907l-121.41,138.5316,60.7052,14.3973-69.2253-3.741-17.04,21.3126,238.5612,23.9766,62.4294-155.9-27.7828-4-40.6339,58.7277s-17.2468,22.9876-9.89-8.5175c0,0,9.487-31.505,22.2671-44.8254,0,0-6.39-7.9922-19.17-2.664S1718.918,578.1032,1704.0079,556.7907Z"/>
    <polygon class="cls-55" points="1582.597 695.322 1574.077 705.979 1643.303 709.72 1582.597 695.322"/>
    <polygon class="cls-56" points="1858.028 595.367 1920 604.29 1920 760.507 1795.598 751.268 1858.028 595.367"/>
    <polygon class="cls-57" points="1810.508 777.909 1795.598 751.268 1920 760.507 1920 785.447 1810.508 777.909"/>
    <polygon class="cls-58" points="1557.037 727.291 1574.077 777.285 1810.508 777.909 1795.598 751.268 1557.037 727.291"/>
    <polygon class="cls-59" points="1548.517 841.846 1920 909.695 1920 785.447 1810.508 777.909 1574.077 777.285 1548.517 841.846"/>
    <path class="cls-3" d="M1331.2562,897.7917s-40.47,18.6485,12.78,18.6485,176.7908-31.9689,174.6608-29.3048.0272,18.4784.0272,18.4784l178.8936,40.1311,121.9852-54.3867-271.0859-49.512S1429.2367,847.1743,1331.2562,897.7917Z"/>
    <polygon class="cls-60" points="1920 909.695 1819.603 891.358 1697.618 945.745 1657.148 959.065 1920 941.891 1920 909.695"/>
    <polygon class="cls-61" points="1920 1040.291 1203.456 1017.675 1126.775 1004.354 1452.667 964.393 1920 1040.291"/>
    <polygon class="cls-62" points="1657.148 959.065 1657.148 986.329 1516.007 974.68 1920 1040.291 1920 941.891 1657.148 959.065"/>
    <path class="cls-63" d="M1331.2562,897.7917l-172.5308,39.961,293.9414,26.6407L1657.1477,986.33V959.0653l40.47-13.32-178.8936-40.1311-.0272-18.4784-90.5255,18.4039s-58.5752,13.5649-84.1353,10.9009S1303.5661,913.7761,1331.2562,897.7917Z"/>
    <polygon class="cls-64" points="378.371 651.186 391.922 631.385 398.312 519.252 372.103 565.654 378.371 651.186"/>
    <polygon class="cls-65" points="717.439 172.956 708.771 268.334 717.439 580.03 763.844 465.113 794.719 182.382 717.439 172.956"/>
    <polygon class="cls-66" points="1158.725 937.753 1126.775 1004.354 1452.667 964.393 1158.725 937.753"/>
    <polygon class="cls-67" points="1124.645 1015.011 1126.775 1004.354 1203.456 1017.675 1124.645 1015.011"/>
    <polygon class="cls-68" points="1920 1040.291 1920 1080.632 1203.456 1017.675 1920 1040.291"/>
    <polygon class="cls-69" points="1657.148 986.329 1452.667 964.393 1516.007 974.68 1657.148 986.329"/>
    <polygon class="cls-70" points="1920 1080.632 1523.388 1080.632 1203.456 1017.675 1920 1080.632"/>
    <path class="cls-71" d="M843.4839,1060.3s-21.3,0-19.17,15.9844l119.87,4.3475h579.2041l-319.932-62.9571-78.81-2.664h-3.0364l25.3789,25.28Z"/>
    <polygon class="cls-72" points="413.222 492.853 408.962 511.501 411.092 609.959 398.312 625.849 401.292 513.975 413.222 492.853"/>
    <path class="cls-73" d="M1139.9552,976.88s-89.86,11.49-111.16,22.1461l92.814,15.9845h3.0364l2.13-10.6563Z"/>
    <polygon class="cls-74" points="973.985 228.266 769.587 903.12 920.092 906.063 1041.575 224.639 989.646 213.188 983.521 211.771 973.985 228.266"/>
    <path class="cls-75" d="M843.4839,1060.3l-230.041,13.32,210.8709,2.6641S824.3138,1060.3,843.4839,1060.3Z"/>
    <path class="cls-76" d="M1139.9552,976.88l18.77-39.1275,172.5308-39.961s63.2607-33.5682,133.8708-44.7568c0,0-376.6919,42.0927-421.4221,50.0849S428.132,884.4713,428.132,884.4713l25.56,18.6485H822.1838l76.68,2.6641L660.3031,908.448l55.38,2.664h68.16s2.13,5.3282-8.52,5.3282-178.9208,2.664-178.9208,2.664v10.6563l-2.13,18.6485-74.55,13.32-93.72,2.664-2.13-10.6563L300.3314,969.7216l-40.47-13.32-12.78,5.3282-13.1144,1.1183-23.64,41.3934,93.72-2.5025,26.1039-2.7123,72.42-2.664-8.52-5.3282-74.55-2.664,57.51-5.3282,2.13-5.3281h19.17l189.5708-5.3282-19.17-2.664,21.3-2.6641,142.7107-2.6641-2.13,5.3282-40.47,2.664,359.9717,13.32s-257.7312,5.3281-272.6413,7.9922,10.65,5.3281,10.65,5.3281h240.6911l36.5973-10.1368Z"/>
    <path class="cls-77" d="M683.7332,929.7605l-85.2,2.6641,119.2805,2.6641s17.04,0,6.39,2.664-129.9306,2.6641-129.9306,2.6641v6.0083l170.4008,1.9839-78.81,5.3281H886.4014l8.2028-5.3281s4.26-10.6563,31.95-10.6563H1065.005l-48.99-5.3281-112.89,5.3281-117.15-2.664,9.0638-5.3282-11.1939-2.6641,38.34-5.3281S705.0333,921.7683,683.7332,929.7605Z"/>
    <path class="cls-78" d="M822.1838,921.7683s121.4106,0,125.6706,2.6641S960,931.9144,960,931.9144l56.0147.51-96.9154,4.5741-133.1256-1.91,9.0638-5.3282-11.1939-2.6641Z"/>
    <polygon class="cls-78" points="886.401 953.737 935.074 951.073 895.955 946.454 886.401 953.737"/>
    <polygon class="cls-79" points="947.039 953.737 903.706 952.79 935.074 951.073 897.405 946.626 913.684 946.454 922.222 948.466 932.944 948.409 947.039 953.737"/>
    <polygon class="cls-80" points="398.312 519.252 401.292 513.975 391.922 631.385 398.312 519.252"/>
    <ellipse class="cls-81" cx="952.1144" cy="952.4051" rx="4.26" ry="1.332"/>
    <path class="cls-82" d="M551.1481,889.9457s-40.8939-74.99-62.7849-78.8614l-1.5677-33.1758,90.4372,21.3126s29.231,58.61,24.2005,90.5784Z"/>
    <polygon class="cls-80" points="391.922 631.385 393.694 618.084 394.052 615.4 401.292 513.975 391.922 631.385"/>
    <ellipse class="cls-81" cx="980.8696" cy="953.7371" rx="9.585" ry="2.6641"/>
    <polyline class="cls-83" points="372.103 565.654 369.742 616.021 378.371 651.186 372.103 565.654"/>
    <ellipse class="cls-81" cx="1001.1047" cy="955.0692" rx="4.26" ry="1.332"/>
    <polygon class="cls-84" points="594.862 621.944 590.013 767.252 582.127 700.254 569.8 700.254 569.8 746.45 581.358 788.213 613.443 889.799 617.114 889.799 613.443 836.518 628.353 602.08 634.993 544.922 594.862 621.944"/>
    <polygon class="cls-85" points="613.81 841.846 698.643 625.849 696.056 895.902 673.099 894.998 639.152 893.632 617.114 889.799 613.81 841.846"/>
    <ellipse class="cls-86" cx="1030.9248" cy="955.0692" rx="10.65" ry="3.9961"/>
    <polygon class="cls-80" points="378.371 651.186 379.55 671.346 379.55 689.484 377.168 707.987 382.646 760.96 387.662 703.315 398.312 625.849 401.292 513.975 394.052 615.4 391.922 631.385 383.492 679.338 379.593 649.4 378.371 651.186"/>
    <ellipse class="cls-87" cx="1060.7449" cy="953.7371" rx="12.7801" ry="2.6641"/>
    <polygon class="cls-88" points="613.443 836.518 696.056 433.563 698.643 625.849 613.443 836.518"/>
    <ellipse class="cls-89" cx="1012.8197" cy="976.3817" rx="7.455" ry="1.332"/>
    <ellipse class="cls-90" cx="1038.3798" cy="984.374" rx="5.325" ry="1.332"/>
    <path class="cls-91" d="M453.6921,903.12l10.65,7.9922H563.365l19.5779-3.9961,11.33,9.721H778.4506s5.393-.3967,5.393-5.7249L660.439,909.9784l80.7656-2.4339,157.66-1.7606Z"/>
    <ellipse class="cls-92" cx="609.1828" cy="841.8462" rx="51.1202" ry="63.9377"/>
    <ellipse class="cls-93" cx="400.4419" cy="567.447" rx="31.9501" ry="39.9611"/>
    <polygon class="cls-94" points="824.164 181.855 878.603 188.309 635.459 786.998 598.08 892.01 457.378 885.81 824.164 181.855"/>
    <path class="cls-95" d="M1385.2487,862.0372s29.0779-62.8161,37.5979-62.8161l16.08,56.7539Z"/>
    <path class="cls-96" d="M1357.0052,865.2453s78.6215-182.3364,137.1968-185.4539,44.7075,119.43,44.7075,119.43L1528.151,843.49l-63.024,9.5449-26.2,2.94-16.08-56.7539-37.5979,62.8161Z"/>
    <path class="cls-97" d="M1532.8646,712.3241l26.2817,102.6747-10.6291,26.8474L1528.151,843.49s14.6649-53.7916,12.19-94.3194Z"/>
    <path class="cls-98" d="M1557.0372,727.2912s-6.432,58.196,2.1091,87.7076l14.931-37.7138Z"/>
    <path class="cls-99" d="M450.52,804.5492s-9.6077,50.6173-7.4777,58.61,7.4777,15.9844,7.4777,15.9844Z"/>
    <polygon class="cls-100" points="449.108 885.435 450.52 879.143 443.042 863.159 441.983 885.11 449.108 885.435"/>
    <polygon class="cls-101" points="493.12 885.435 490.22 863.159 460.082 679.338 455.822 682.002 455.822 729.955 460.082 767.252 479.162 885.435 493.12 885.435"/>
    <polygon class="cls-101" points="449.108 885.435 457.378 885.81 459.744 881.268 449.108 760.96 449.108 885.435"/>
    <polyline class="cls-102" points="448.861 710.826 447.302 559.455 455.822 556.082 455.822 682.002 455.822 700.254 448.861 710.826"/>
    <polygon class="cls-103" points="462.059 691.394 474.992 671.346 463.844 540.649 455.822 556.082 455.822 682.002 460.082 679.338 462.059 691.394"/>
    <polygon class="cls-104" points="474.145 527.486 463.844 540.649 474.992 671.346 481.382 663.353 474.145 527.486"/>
    <polygon class="cls-105" points="447.302 559.455 440.912 383.626 445.172 391.618 455.822 556.082 447.302 559.455"/>
    <polygon class="cls-106" points="463.844 540.649 451.562 393.092 440.912 383.626 445.172 391.618 455.822 556.082 463.844 540.649"/>
    <polygon class="cls-107" points="474.145 527.486 463.844 345.139 446.441 260.935 443.042 282.391 443.042 385.519 451.562 393.092 463.844 540.649 474.145 527.486"/>
    <polygon class="cls-108" points="440.912 383.626 437.012 224.007 440.912 220.475 463.844 329.154 463.844 345.139 446.441 260.935 443.042 282.391 443.042 385.519 440.912 383.626"/>
    <polygon class="cls-109" points="458.593 204.461 463.844 329.154 440.912 220.475 458.593 204.461"/>
    <polygon class="cls-110" points="409.2 240.605 409.2 341.511 384.147 242.623 409.2 240.605"/>
    <polygon class="cls-111" points="392.837 420.85 388.786 260.935 409.2 341.511 409.2 422.97 392.837 420.85"/>
    <polygon class="cls-112" points="382.291 244.664 382.291 357.836 372.752 418.247 379.459 418.247 382.291 369.923 388.786 420.325 392.837 420.85 388.786 260.935 382.291 244.664"/>
    <polygon class="cls-113" points="376.926 243.205 372.752 418.247 382.291 357.836 382.291 244.664 376.926 243.205"/>
    <polyline class="cls-114" points="369.742 616.021 368.351 645.672 370.622 652.697 378.371 651.186 369.742 616.021"/>
    <polyline class="cls-115" points="370.622 652.697 372.752 665.281 377.168 707.987 379.55 689.484 378.371 651.186 370.622 652.697"/>
    <polygon class="cls-116" points="379.593 649.4 383.492 679.338 391.922 631.385 379.593 649.4"/>
    <polygon class="cls-117" points="411.092 609.959 398.312 625.849 387.662 703.315 382.646 760.96 387.346 806.409 415.352 761.924 411.092 609.959"/>
    <path class="cls-118" d="M390.5039,836.9463l8.4951,34.9726s8.2861,7.2243,10.1895-8.76,1.9034-42.6252,1.9034-42.6252l2.13,2.6641,3.9428,55.9455h2.4473l2.9022,2.1251-7.1623-119.3442L387.346,806.4088l3.1579,30.5375"/>
    <path class="cls-119" d="M394.8676,879.1432l-4.3637-42.1969,8.4951,34.9726s8.2861,7.2243,10.1895-8.76,1.9034-42.6252,1.9034-42.6252l2.13,2.6641,3.9428,55.9455H394.8676"/>
    <polygon class="cls-120" points="746.759 175.401 372.752 665.281 387.154 804.549 798.543 179.718 746.759 175.401"/>
    <polygon class="cls-121" points="415.352 761.924 448.263 652.697 447.603 588.645 413.736 704.293 415.352 761.924"/>
    <polygon class="cls-122" points="472.613 500.373 511.202 335.673 508.874 158.921 528.434 141.206 528.434 235.629 551.673 125.315 562.019 65.15 575.865 68.357 529.375 341.511 598.533 141.196 598.533 73.607 602.793 74.594 631.686 81.08 619.924 139.864 592.143 221.118 511.157 418.247 475.319 549.531 472.613 500.373"/>
    <polygon class="cls-123" points="598.319 203.052 596.403 370.306 620.558 341.511 617.715 146.323 598.319 203.052"/>
    <polygon class="cls-124" points="598.533 482.197 596.403 370.306 620.558 341.511 620.558 420.85 619.833 450.228 598.533 482.197"/>
    <polygon class="cls-125" points="655.563 86.44 620.356 429.035 619.833 450.228 649.653 404.939 676.529 91.147 655.563 86.44"/>
    <polygon class="cls-126" points="598.533 482.197 594.862 621.944 634.993 544.922 649.653 404.939 619.833 450.228 598.533 482.197"/>
    <path class="cls-127" d="M493.12,885.4349s18.0824-24.94,5.3023-48.9168L488.86,821.5962Z"/>
    <polygon class="cls-128" points="481.382 663.353 488.86 821.596 493.12 885.435 462.059 691.394 481.382 663.353"/>
    <path class="cls-129" d="M486.7955,777.9085l-2.146-45.4129s45.723-13.1966,69.1531,26.7644l23.43,39.9611Z"/>
    <path class="cls-130" d="M488.3632,811.0843l.4967,10.5119s16.1216,17.9951,13.907,37.771-9.6469,26.0677-9.6469,26.0677l58.0281,4.5108S510.2542,812.2913,488.3632,811.0843Z"/>
    <polygon class="cls-131" points="696.056 895.902 698.643 711.307 705.033 780.573 705.033 859.701 711.423 868.487 711.423 895.902 696.056 895.902"/>
    <polygon class="cls-132" points="794.719 182.382 716.407 899.498 852.004 904.243 858.105 188.996 843.92 186.485 794.719 182.382"/>
    <path class="cls-133" d="M703.74,628.4372l-5.0965,82.87,6.39,69.2658v79.1285l6.39,8.7858s2.6739-14.92,6.662-15.452,5.4481,13.5627,5.4481,13.5627l2.41-22.0661-8.13-50.6386L703.74,685.573Z"/>
    <path class="cls-134" d="M711.4233,895.9018H722.164l1.3694-29.3042s-2.9628-22.0518-8.6015-10.0813l-3.5086,11.9706Z"/>
    <polygon class="cls-135" points="725.943 844.532 731.137 796.968 706.665 628.437 703.74 628.437 703.74 685.573 725.943 844.532"/>
    <path class="cls-136" d="M731.1372,796.9677s10.1062-35.0436,18.6263-35.0436,14.91,23.9766,14.91,23.9766l-2.13,53.2814s-6.39,31.9689-19.17,37.297-14.91,0-14.91,0l-4.93-9.8815Z"/>
    <path class="cls-137" d="M798.5434,758.24S768.11,880.8313,771.7169,898.6358l-49.5529-2.734,1.3694-29.3042,4.93,9.8815s12.1342,5.4123,18.8472-2.622,15.2329-34.675,15.2329-34.675l2.13-53.2814,2.13,47.9533S789.813,759.8835,798.5434,758.24Z"/>
    <path class="cls-138" d="M798.5434,758.24s27.9-54.9252,61.9806-52.2611,39.4052,46.3662,39.4052,46.3662,9.9023,50.674,10.8087,60.7634,1.2236,64.1709,0,70.4311-7.0319,17.6779-7.0319,17.6779l-56.9138-2.5814s-27.69-62.1177-28.2792-94.0866l-6.8886,94.0866H771.7169S787.683,762.5476,798.5434,758.24Z"/>
    <path class="cls-139" d="M899.3992,749.2163s14.3751,39.3485,16.5051,63.3251,7.1064,77.1492,7.1064,77.1492,1.4136-90.47,7.8036-90.47,12.78,31.9688,12.78,31.9688l1.9893,72.7523-41.8777-2.725,7.835-20.77s.1032-65.2414-2.0268-78.5618S899.3992,749.2163,899.3992,749.2163Z"/>
    <path class="cls-140" d="M868.15,186.7885,858.845,608.42l35.7044-94.9787s11.7748-322.5876,4.85-322.1078Z"/>
    <path class="cls-141" d="M858.845,608.42l-5.1491,97.4649s31.3282-9.3373,45.7033,43.3316c0,0,40.0258-303.0129,37.8505-315.653H922.2218L899.3992,631.3846l-12.9978,14.2873,8.148-132.2308Z"/>
    <path class="cls-142" d="M991.0891,203.0522"/>
    <path class="cls-143" d="M818.513,804.5492l-6.8886,94.0866h35.1678S816.9721,828.5258,818.513,804.5492Z"/>
    <path class="cls-144" d="M1190.1322,884.5352l21.8434-199.8691-8.52-90.5784h-5.1664l15.8165-175.8287,2.13-133.2035-4.26,5.3282-12.78,58.61-2.13-87.9143,2.13,18.6485,2.13,47.9532,17.629-87.9453,3.6711.031,2.3113,136.7268-10.3328,76.3988-7.07,64.788,2.311,84.4,27.69,111.8909v63.9377s-14.6337,5.7854-14.7719,102.7953Z"/>
    <polygon class="cls-145" points="1198.289 594.088 1196.466 826.579 1211.976 684.666 1203.456 594.088 1198.289 594.088"/>
    <path class="cls-145" d="M1222.7639,880.7038l21.27-2.4779-6.4977-100.3174S1220.7721,802.3424,1222.7639,880.7038Z"/>
    <path class="cls-146" d="M1224.937,376.4931l12.5988,337.4777-27.69-111.8909-2.311-84.4S1222.9882,377.3522,1224.937,376.4931Z"/>
    <polygon class="cls-147" points="1199.196 348.993 1198.289 594.088 1214.106 418.259 1216.236 285.056 1211.976 290.384 1199.196 348.993"/>
    <polygon class="cls-148" points="1196.466 239.013 1197.066 261.079 1201.326 327.681 1218.955 239.735 1196.466 239.013"/>
    <path class="cls-144" d="M1339.4838,867.2422l10.8972-139.951,23.2035-182.0592-6.1181-49.7149L1357.0052,529.13V449.8878l10.4612-28.9647,4.26-47.9533,10.65-74.5939,1.9034-90.5784h13.3239l-4.5772,90.5784-8.52,47.9532-10.65,34.6329V495.5171s17.04,93.2424,42.6,125.2113l4.5319,59.0045s-24.4423,7.7136-25.1371,107.558l-38.8462,77.9544Z"/>
    <path class="cls-149" d="M1424.9825,739.9473l-3.994-60.2144s-35.0923,18.37-25.1371,107.558Z"/>
    <polygon class="cls-149" points="1357.005 529.13 1350.667 725.05 1373.584 545.232 1367.466 495.517 1357.005 529.13"/>
    <path class="cls-149" d="M1416.4566,620.7284l-18.8529-412.9309-4.5772,90.5784-19.17,82.5861V495.5171S1393.0265,591.4236,1416.4566,620.7284Z"/>
    <polygon class="cls-150" points="1357.005 449.888 1357.005 251.273 1369.234 207.797 1384.28 207.797 1382.376 298.376 1371.726 372.97 1367.466 420.923 1357.005 449.888"/>
    <polygon class="cls-151" points="1365.608 207.797 1357.005 233.588 1357.005 251.273 1369.234 207.797 1365.608 207.797"/>
    <polygon class="cls-152" points="1354.913 207.797 1357.005 233.588 1365.608 207.797 1354.913 207.797"/>
    <path class="cls-153" d="M1326.9962,207.7975l21.3,47.9532,4.26,90.5784s-21.3-42.6251-27.69-37.297,14.6176,56.5123,14.6176,56.5123l17.5214,21.3126-2.0923-179.0595Z"/>
    <polygon class="cls-154" points="1411.29 207.797 1446.095 297.327 1463.317 415.595 1456.61 207.797 1411.29 207.797"/>
    <polygon class="cls-155" points="1473.126 291.157 1495.267 420.923 1463.317 415.595 1473.126 291.157"/>
    <path class="cls-156" d="M1559.1463,814.9988l-26.2817-102.6747-53.5727-219.8112,15.9751-71.59,29.82,146.5239,8.52,2.664,19.17,15.9845-15.3179-107.3,102.6483,6.065,3.195,34.4062,13.8451-29.0781,12.78,10.6563L1643.3026,552.37l5.3251,67.6111-66.03,75.3417-8.52,10.6563-11.8283,14.7941-7.5349-89.9549-21.107-26.0739,23.43,122.5473a156.1867,156.1867,0,0,0-2.3231,43.8538C1557.0372,793.8929,1559.1463,814.9988,1559.1463,814.9988Z"/>
    <polygon class="cls-157" points="1463.317 415.595 1479.292 492.513 1495.267 420.923 1463.317 415.595"/>
    <polygon class="cls-158" points="1489.837 266.928 1520.827 306.368 1537.459 478.796 1604.919 482.782 1591.259 351.675 1489.837 266.928"/>
    <polygon class="cls-159" points="1636.076 389.123 1640.108 484.861 1604.919 482.782 1601.377 360.129 1636.076 389.123"/>
    <polygon class="cls-160" points="1669.153 464.175 1657.148 490.189 1669.928 500.845 1675.729 484.861 1669.153 464.175"/>
    <polygon class="cls-161" points="698.643 625.849 708.771 605.663 698.643 345.139 693.908 338.641 696.056 433.563 698.643 625.849"/>
    <polygon class="cls-162" points="703.74 628.437 698.643 625.849 698.643 711.307 703.74 628.437"/>
    <polygon class="cls-163" points="731.137 796.968 729.388 780.632 721.808 569.211 717.439 580.03 726.333 727.291 728.743 780.478 731.137 796.968"/>
    <polygon class="cls-164" points="703.74 628.437 705.18 612.821 708.771 605.663 708.579 600.711 717.439 580.03 728.743 780.478 731.137 796.968 703.74 628.437"/>
    <polygon class="cls-165" points="698.643 625.849 703.74 628.437 705.18 612.821 698.643 625.849"/>
    <polygon class="cls-166" points="712.293 394.986 701.34 414.503 708.771 605.663 717.439 580.03 712.293 394.986"/>
    <polygon class="cls-167" points="693.908 338.641 698.643 345.139 701.34 414.503 712.293 394.986 710.045 314.132 693.908 338.641"/>
    <polygon class="cls-168" points="693.908 338.641 690.531 244.664 707.209 229.589 710.045 314.132 693.908 338.641"/>
    <polygon class="cls-169" points="687.993 170.5 690.531 244.664 695.022 240.605 693.908 211.771 700.288 235.845 704.818 231.75 690.531 170.712 687.993 170.5"/>
    <polygon class="cls-170" points="706.862 172.074 707.209 229.589 704.818 231.75 690.531 170.712 706.862 172.074"/>
    <polygon class="cls-171" points="695.022 240.605 700.288 235.845 693.908 211.771 695.022 240.605"/>
    <polygon class="cls-172" points="945.053 884.535 1016.015 878.847 1016.015 903.12 945.584 903.942 945.053 884.535"/>
    <polygon class="cls-173" points="1190.132 884.535 1016.015 903.12 1020.275 878.847 1194.504 844.532 1190.132 884.535"/>
    <polygon class="cls-174" points="1038.38 596.808 1033.055 596.808 1043.705 764.814 1020.275 711.307 1028.795 783.358 1065.005 870.037 1142.218 854.83 1161.852 733.423 1146.988 783.86 1143.362 668.578 1168.2 615.854 1142.274 628.437 1075.882 635.041 1075.882 836.518 1038.38 596.808"/>
    <polygon class="cls-175" points="1075.882 635.041 1082.045 383.229 1094.237 288.882 1099.085 452.892 1107.605 255.751 1101.215 253.087 1118.346 223.782 1158.725 235.713 1143.815 274.399 1144.913 627.157 1075.882 635.041"/>
    <polygon class="cls-176" points="1082.045 383.229 1079.915 346.329 1052.562 280.431 1064.026 258.35 1079.315 294.137 1079.362 235.6 1086.305 226.446 1090.47 245.297 1094.237 288.882 1082.045 383.229"/>
    <path class="cls-85" d="M1238.9162,799.2211l10.312,15.7777,11.7377-132.9968h15.0913l6.2088,10.6563s6.39-63.9377,12.78-66.6018a52.5485,52.5485,0,0,0,10.0156-5.3281L1339.4838,794.97l5.8109-2.3569-5.8109,74.6292-95.45,10.9837Z"/>
    <ellipse class="cls-177" cx="992.5846" cy="642.0409" rx="6.39" ry="7.9922"/>
    <ellipse class="cls-178" cx="1001.1047" cy="793.8929" rx="6.39" ry="7.9922"/>
    <ellipse class="cls-178" cx="1019.2097" cy="797.889" rx="3.195" ry="3.9961"/>
    <ellipse class="cls-178" cx="993.6496" cy="592.7556" rx="3.195" ry="3.9961"/>
    <ellipse class="cls-178" cx="965.9595" cy="598.0838" rx="3.195" ry="3.9961"/>
    <ellipse class="cls-178" cx="941.4644" cy="556.7907" rx="6.39" ry="7.9922"/>
    <ellipse class="cls-178" cx="834.9639" cy="626.0565" rx="6.39" ry="7.9922"/>
    <ellipse class="cls-179" cx="964.8945" cy="370.3058" rx="6.39" ry="7.9922"/>
    <ellipse class="cls-179" cx="982.9996" cy="363.6456" rx="3.195" ry="3.9961"/>
    <ellipse class="cls-179" cx="1034.1198" cy="424.9192" rx="3.195" ry="3.9961"/>
    <ellipse class="cls-179" cx="912.7092" cy="286.3876" rx="3.195" ry="3.9961"/>
    <ellipse class="cls-179" cx="818.9888" cy="251.7546" rx="3.195" ry="3.9961"/>
    <ellipse class="cls-180" cx="1147.0103" cy="555.4586" rx="3.195" ry="3.9961"/>
    <ellipse class="cls-181" cx="1079.915" cy="394.2824" rx="12.7801" ry="15.9844"/>
    <ellipse class="cls-182" cx="1024.5348" cy="356.9854" rx="6.39" ry="7.9922"/>
  </g>
  <polygon class="cls-183" points="582.943 907.116 563.365 911.112 544.059 911.112 511.293 916.837 543.153 924.432 564.453 927.096 582.943 927.096 594.273 916.837 582.943 907.116"/>
  <polygon class="cls-184" points="594.273 940.417 594.273 916.837 582.943 927.096 564.453 927.096 553.029 925.668 562.323 945.745 594.273 946.425 594.273 940.417"/>
  <polygon class="cls-185" points="511.293 916.837 504.812 927.096 519.043 946.425 562.323 945.745 553.029 925.668 511.293 916.837"/>
  <polygon class="cls-186" points="492.032 927.096 460.853 946.425 519.043 946.425 504.812 927.096 492.032 927.096"/>
  <polygon class="cls-187" points="372.752 935.089 372.752 945.745 460.853 946.425 492.032 927.096 372.752 935.089"/>
  <polygon class="cls-188" points="419.612 879.143 372.752 935.089 485.684 927.522 419.612 879.143"/>
  <polygon class="cls-188" points="394.868 879.143 419.612 879.143 372.752 935.089 285.013 935.089 394.868 879.143"/>
  <polygon class="cls-189" points="372.752 945.745 279.031 945.745 285.013 935.089 372.752 935.089 372.752 945.745"/>
  <polygon class="cls-35" points="259.861 956.401 279.031 945.745 372.752 945.745 460.853 946.425 519.043 946.425 562.323 945.745 594.273 946.425 594.273 948.409 519.722 961.729 426.002 964.393 423.872 953.737 300.331 969.722 259.861 956.401"/>
  <ellipse class="cls-190" cx="332.2815" cy="935.0887" rx="10.65" ry="13.3204"/>
  <path class="cls-191" d="M276.8235,1080.6319l-.9872-15.1738,54.3152-13.15-92.814-7.9922,56.6039-10.6562s368.4917-18.6485,443.042-2.6641c0,0,34.08-5.3282-4.26-7.9922s-193.8309-10.6563-193.8309-10.6563-185.7187-8.2189-186.58-8.1056,20.0208-6.8448,36.205-7.3618,135.4647-3.1811,135.4647-3.1811l-2.13-5.3281L389.7918,985.706l40.47-2.6641,238.5611-2.664,123.5406,2.664,136.3206,2.6641-159.7507,5.3281s-59.459,5.1014-33.9895,13.207l151.4573.1134,1.8127,39.961-289.6813,26.6407s-8.52,5.3282,14.91,5.3282H824.3138l104.3705,3.7854Z"/>
  <path class="cls-192" d="M1121.6088,1015.0108s-186.5344,31.9688-233.3947,29.3047l-1.8127-39.961,187.1236,3.9677Z"/>
  <path class="cls-193" d="M928.6843,985.706S738.3986,987.47,732.366,997.2444c0,0-20.8521,9.5474,38.7429,6.9967s313.2661,4.3573,313.2661,4.3573l-55.58-9.5721L783.8436,998.5s-12.9918-.3069-10.7559-2.5542,31.1895-3.8227,31.1895-3.8227L980.87,987.2286Z"/>
  <path class="cls-194" d="M372.7517,665.2807,306.4536,681.888,249.2112,783.2367s34.8356,2.458,27.0028,79.8191c0,0,7.0773,5.4311,7.0773,13.4233l-38.34,67.1346,4.26,17.2276,10.65-4.44,19.17-10.6563,5.9822-10.6562,109.8541-55.9455Z"/>
  <polygon class="cls-195" points="233.967 962.848 247.081 961.729 249.211 960.841 244.951 943.614 233.967 962.848"/>
  <polygon class="cls-196" points="372.752 665.281 370.622 652.697 323.795 651.186 306.454 681.888 372.752 665.281"/>
  <polygon class="cls-197" points="353.269 599 323.795 651.186 370.622 652.697 353.269 599"/>
  <polygon class="cls-198" points="372.103 565.654 368.351 645.672 353.269 599 372.103 565.654"/>
  <polygon class="cls-199" points="71.287 1080.632 199.813 1080.632 309.123 1050.497 237.337 1044.316 187.441 1044.316 167.206 1037.655 71.287 1080.632"/>
  <path class="cls-200" d="M210.3271,1004.2411l-4.9667,8.6969,175.9114,7.4009-189.6162,16.5966-4.2147,7.38h49.8966l56.6039-10.6562s423.8719-15.9845,443.042-2.6641c0,0,34.08-5.3282-4.26-7.9922s-380.4107-18.7619-380.4107-18.7619,23.6526-6.3516,29.5009-7.1152l-51.6621,1.9Z"/>
  <path class="cls-201" d="M824.3138,1076.2844,613.4429,1073.62l230.041-13.32,303.5038-20.0089-25.3789-25.28-233.3947,29.3047-289.6813,26.6407s-15.7258,7.9922,40.0623,5.3282Z"/>
  <polygon class="cls-202" points="568.713 969.722 587.883 972.386 379.142 977.714 377.012 983.042 319.501 988.37 394.052 991.034 402.572 996.362 523.982 993.698 521.852 988.37 389.792 985.706 447.075 982.854 544.237 981.769 620.014 980.378 747.277 982.07 980.87 987.229 687.993 972.386 730.593 969.722 732.723 964.393 635.962 966.2 590.013 967.057 568.713 969.722"/>
  <polygon class="cls-203" points="199.813 1080.632 276.823 1080.632 275.836 1065.458 330.152 1052.308 309.123 1050.497 199.813 1080.632"/>
  <polygon class="cls-204" points="191.656 1036.935 205.36 1012.938 381.272 1020.339 290.905 1028.558 191.656 1036.935"/>
  <polygon class="cls-205" points="457.378 885.81 479.162 885.435 478.616 882.056 459.744 881.268 457.378 885.81"/>
  <polygon class="cls-101" points="459.744 881.268 474.145 854.358 478.616 882.056 459.744 881.268"/>
  <polygon class="cls-206" points="449.108 760.96 448.861 710.826 455.822 700.254 455.822 729.955 474.145 854.358 459.744 881.268 449.108 760.96"/>
</svg>
