<svg id="Hero_Portfolio" data-name="Hero Portfolio" xmlns="http://www.w3.org/2000/svg" xmlns:xlink="http://www.w3.org/1999/xlink" viewBox="0 0 1920 1080"><defs><style>.cls-1{fill:url(#Dégradé_sans_nom_35);}.cls-2{fill:#fff;}.cls-3{fill:#e5f8ff;}.cls-4{fill:#fffffd;}</style><linearGradient id="Dégradé_sans_nom_35" x1="960" y1="1080" x2="960" gradientUnits="userSpaceOnUse"><stop offset="0" stop-color="#29c0e2"/><stop offset="0.2078" stop-color="#26b7df"/><stop offset="0.5523" stop-color="#1e9dd7"/><stop offset="0.5674" stop-color="#1e9cd7"/><stop offset="0.8652" stop-color="#0075be"/><stop offset="0.9944" stop-color="#005b97"/></linearGradient></defs><g id="Calque_1" data-name="Calque 1"><rect class="cls-1" width="1920" height="1080"/></g><g id="Calque_2" data-name="Calque 2"><g id="Nuage"><path class="cls-2" d="M148.1582,240.89a45.7712,45.7712,0,0,0,9.03,1.29,19.417,19.417,0,0,0,6.2852-1.4079,4.4967,4.4967,0,0,1,4.8706,1.1508c3.1635,3.3882,8.935,9.287,10.774,9.287,2.58,0,10.32-6.45,14.19-3.87s9.03,9.03,9.03,9.03h10.32s7.74-6.45,11.61-6.45,14.19,6.45,14.19,6.45h11.61s10.32-7.74,14.19-7.74,9.03,3.87,9.03,3.87h16.77s6.45-5.16,9.03-5.16a26.2425,26.2425,0,0,1,6.45,1.29s9.03-6.45,11.61-5.16,10.32,7.74,10.32,7.74h10.32s9.03-6.45,9.03-3.87,3.87,7.74,3.87,7.74a28.7436,28.7436,0,0,0,11.61,2.58c6.45,0,12.9-5.16,12.9-5.16s7.3831,5.16,10.7865,5.16,11.1433,1.29,17.5933-7.74c0,0,9.03,3.87,12.9,2.58s10.32-9.03,10.32-9.03,7.74,3.87,12.9,3.87,9.03-7.74,9.03-7.74a28.7442,28.7442,0,0,0,11.61,2.58c6.45,0,10.32-5.16,10.32-5.16s14.19,1.29,15.48-1.29,0-3.87,0-3.87h-21.93s-3.87-5.16-7.74-5.16-7.74,5.16-7.74,5.16l-2.58,1.29s-3.87-6.45-6.45-6.45-5.16,3.87-5.16,3.87,1.29-12.9-5.16-12.9-7.74-1.29-7.74-1.29,7.74-18.06-6.45-18.06h-14.19s3.87-10.32-15.48-10.32-26.4448,12.2549-26.4448,12.2549-18.06-10.32-25.8,14.19c0,0-14.19-18.06-25.8,11.61,0,0-9.03-3.87-12.9,5.16,0,0-3.87,3.87-3.87-2.58s1.29-16.77-10.32-16.77l-9.03,3.87s0-27.09-19.35-25.8-19.35,11.61-19.35,11.61-1.29-11.61-18.06-7.74c0,0-5.16,3.87-5.16,14.19,0,0-16.77,2.58-16.77,14.19v11.61s-5.16,3.87-6.45,2.58-5.16-12.9-16.77-5.16a168.6673,168.6673,0,0,0-18.06,5.16C139.7732,240.2446,148.1582,240.89,148.1582,240.89Z" transform="translate(0 0)"/><path class="cls-3" d="M173.313,242.18s3.87-6.45,10.32-5.16a27.8245,27.8245,0,0,1,11.1159,5.16s9.5239-9.03,12.1039-7.74c0,0-3.87-16.77,5.16-16.77s11.61,3.87,11.61,3.87-1.29-10.32,7.74-9.03c0,0,5.16,1.29,7.74,5.16,0,0,9.03-10.32,16.77-6.45s0,12.9823,0,12.9823,11.61-3.9524,14.19,1.2076a9.9889,9.9889,0,0,1,0,9.3318l12.9-.3019s5.16,2.58,6.45,3.87,5.16,2.58,5.16,6.45l5.16-3.87s7.74-6.45,16.77-6.45,12.9,9.03,12.9,9.03h2.58s-2.58-18.06,10.32-18.06,12.3509,2.1458,12.3509,2.1458-2.031-15.0457,6.9989-15.0457,10.32,2.58,10.32,2.58h7.74s0-9.03,12.9-9.03,13.2567,12.47,13.2567,12.47,1.4272,6.88,2.47,6.88,12.6528-2.58,15.2328,6.45c0,0,3.87,2.58,6.45,2.58s11.61,0,14.19,3.87-2.58,3.87-2.58,3.87-9.675-5.805-13.5449-3.225-11.61,9.03-11.61,9.03h-8.385s-4.5149-5.16-9.6749,2.58-15.48,2.58-15.48,2.58l-6.45-3.87a26.9891,26.9891,0,0,1-15.48,5.16c-9.03,0-12.9-3.87-12.9-7.74s-5.16-1.29-5.16-1.29-10.32,9.03-18.06,1.29-9.03-6.45-9.03-6.45-6.45,5.16-11.61,5.16-11.61,2.58-11.61,2.58h-21.93s-7.74-6.45-12.9,0-19.35,3.87-19.35,3.87-7.74-6.45-12.9-5.16-11.61,6.45-11.61,6.45-11.61,1.29-15.48-2.58,0-6.45-11.61-5.16S173.313,242.18,173.313,242.18Z" transform="translate(0 0)"/></g><g id="Nuage-2" data-name="Nuage"><path class="cls-2" d="M470.154,635.9113a54.7356,54.7356,0,0,0,10.7981,1.5426,23.2189,23.2189,0,0,0,7.516-1.6835,5.377,5.377,0,0,1,5.8244,1.3761c3.783,4.0517,10.6847,11.1056,12.8838,11.1056,3.0852,0,12.3408-7.713,16.9686-4.6278s10.7981,10.7982,10.7981,10.7982h12.3408s9.2556-7.713,13.8834-7.713,16.9686,7.713,16.9686,7.713h13.8833s12.3408-9.2556,16.9686-9.2556,10.7982,4.6278,10.7982,4.6278H639.84s7.713-6.17,10.7982-6.17a31.3827,31.3827,0,0,1,7.713,1.5426s10.7982-7.713,13.8834-6.17,12.3408,9.2556,12.3408,9.2556h12.3407s10.7982-7.713,10.7982-4.6278,4.6278,9.2556,4.6278,9.2556a34.3729,34.3729,0,0,0,13.8834,3.0852c7.713,0,15.426-6.17,15.426-6.17s8.8289,6.17,12.8987,6.17,13.3254,1.5426,21.0384-9.2556c0,0,10.7982,4.6278,15.426,3.0852s12.3407-10.7982,12.3407-10.7982,9.2556,4.6278,15.426,4.6278,10.7982-9.2556,10.7982-9.2556a34.3729,34.3729,0,0,0,13.8834,3.0852c7.7129,0,12.3407-6.17,12.3407-6.17s16.9686,1.5426,18.5112-1.5425,0-4.6278,0-4.6278H848.09s-4.6278-6.17-9.2556-6.17-9.2556,6.17-9.2556,6.17l-3.0852,1.5426s-4.6278-7.713-7.713-7.713-6.17,4.6278-6.17,4.6278,1.5426-15.426-6.17-15.426-9.2556-1.5426-9.2556-1.5426,9.2556-21.5964-7.7129-21.5964H772.503s4.6278-12.3407-18.5112-12.3407S722.3686,587.32,722.3686,587.32s-21.5964-12.3407-30.852,16.9686c0,0-16.9685-21.5964-30.8519,13.8834,0,0-10.7982-4.6278-15.426,6.17,0,0-4.6278,4.6278-4.6278-3.0852s1.5426-20.0538-12.3407-20.0538l-10.7982,4.6278s0-32.3945-23.139-30.8519-23.1389,13.8833-23.1389,13.8833-1.5426-13.8833-21.5964-9.2556c0,0-6.17,4.6278-6.17,16.9686,0,0-20.0537,3.0852-20.0537,16.9686v13.8834s-6.17,4.6277-7.713,3.0851-6.17-15.4259-20.0538-6.17a201.6842,201.6842,0,0,0-21.5963,6.17C460.1271,635.14,470.154,635.9113,470.154,635.9113Z" transform="translate(0 0)"/><path class="cls-3" d="M500.2346,637.4539s4.6278-7.7129,12.3408-6.17a33.2724,33.2724,0,0,1,13.2926,6.17s11.3889-10.7981,14.4741-9.2555c0,0-4.6278-20.0538,6.17-20.0538s13.8834,4.6278,13.8834,4.6278-1.5426-12.3408,9.2556-10.7982c0,0,6.17,1.5426,9.2556,6.17,0,0,10.7981-12.3408,20.0537-7.713s0,15.5244,0,15.5244,13.8834-4.7262,16.9686,1.4442a11.9451,11.9451,0,0,1,0,11.1592l15.426-.361s6.17,3.0851,7.7129,4.6277,6.17,3.0852,6.17,7.713l6.17-4.6278s9.2556-7.7129,20.0538-7.7129,15.426,10.7981,15.426,10.7981h3.0851S686.8889,617.4,702.3148,617.4s14.77,2.566,14.77,2.566-2.4288-17.992,8.3694-17.992,12.3408,3.0852,12.3408,3.0852H747.05s0-10.7982,15.426-10.7982,15.8527,14.9118,15.8527,14.9118,1.7067,8.2272,2.9539,8.2272,15.13-3.0852,18.2157,7.713c0,0,4.6278,3.0852,7.713,3.0852s13.8834,0,16.9686,4.6277-3.0852,4.6278-3.0852,4.6278-11.5695-6.9417-16.1973-3.8565-13.8833,10.7982-13.8833,10.7982H780.9873s-5.3991-6.17-11.5695,3.0852-18.5112,3.0852-18.5112,3.0852l-7.713-4.6278a32.2736,32.2736,0,0,1-18.5111,6.17c-10.7982,0-15.426-4.6278-15.426-9.2556s-6.17-1.5426-6.17-1.5426-12.3408,10.7982-21.5963,1.5426-10.7982-7.713-10.7982-7.713-7.713,6.17-13.8834,6.17-13.8834,3.0852-13.8834,3.0852H616.7007s-9.2556-7.713-15.426,0-23.1389,4.6278-23.1389,4.6278-9.2556-7.713-15.426-6.17-13.8834,7.713-13.8834,7.713-13.8834,1.5426-18.5112-3.0852,0-7.713-13.8833-6.17S500.2346,637.4539,500.2346,637.4539Z" transform="translate(0 0)"/></g><g id="Nuage-3" data-name="Nuage"><path class="cls-2" d="M179.11,828.26a31.3794,31.3794,0,0,0,6.1907.8844,13.3126,13.3126,0,0,0,4.3091-.9652,3.0829,3.0829,0,0,1,3.3392.7889c2.1689,2.323,6.1257,6.3671,7.3865,6.3671,1.7688,0,7.0752-4.422,9.7284-2.6532s6.1908,6.1908,6.1908,6.1908H223.33s5.3064-4.422,7.96-4.422,9.7284,4.422,9.7284,4.422h7.96s7.0752-5.3064,9.7284-5.3064,6.1908,2.6532,6.1908,2.6532h11.4972s4.422-3.5376,6.1908-3.5376a17.9922,17.9922,0,0,1,4.422.8844s6.1908-4.422,7.96-3.5376,7.0752,5.3064,7.0752,5.3064h7.0752s6.1908-4.422,6.1908-2.6532,2.6532,5.3064,2.6532,5.3064a19.7066,19.7066,0,0,0,7.96,1.7688c4.422,0,8.844-3.5376,8.844-3.5376s5.0617,3.5376,7.3951,3.5376,7.64.8844,12.0617-5.3064c0,0,6.1908,2.6532,8.844,1.7688s7.0751-6.1908,7.0751-6.1908,5.3064,2.6532,8.844,2.6532,6.1908-5.3064,6.1908-5.3064a19.7066,19.7066,0,0,0,7.96,1.7688,9.5506,9.5506,0,0,0,7.0752-3.5376s9.7284.8844,10.6128-.8844,0-2.6532,0-2.6532H395.7878s-2.6532-3.5376-5.3064-3.5376-5.3064,3.5376-5.3064,3.5376l-1.7688.8844s-2.6532-4.422-4.422-4.422-3.5376,2.6532-3.5376,2.6532.8844-8.844-3.5376-8.844-5.3063-.8844-5.3063-.8844,5.3063-12.3816-4.422-12.3816h-9.7284S355.1055,792,341.84,792s-18.13,8.4018-18.13,8.4018-12.3816-7.0752-17.688,9.7284c0,0-9.7284-12.3816-17.688,7.96,0,0-6.1908-2.6532-8.844,3.5376,0,0-2.6532,2.6532-2.6532-1.7688s.8844-11.4972-7.0752-11.4972l-6.1908,2.6532s0-18.5724-13.266-17.688-13.266,7.96-13.266,7.96-.8844-7.96-12.3816-5.3064c0,0-3.5376,2.6532-3.5376,9.7284,0,0-11.4972,1.7688-11.4972,9.7284v7.96s-3.5376,2.6532-4.422,1.7688-3.5376-8.844-11.4972-3.5376a115.6258,115.6258,0,0,0-12.3816,3.5376C173.3614,827.8182,179.11,828.26,179.11,828.26Z" transform="translate(0 0)"/><path class="cls-3" d="M196.3557,829.1448s2.6532-4.422,7.0752-3.5376a19.0758,19.0758,0,0,1,7.6209,3.5376s6.53-6.1908,8.2983-5.3064c0,0-2.6532-11.4972,3.5376-11.4972s7.96,2.6532,7.96,2.6532-.8844-7.0752,5.3064-6.1908a10.0207,10.0207,0,0,1,5.3064,3.5376s6.1908-7.0752,11.4972-4.422,0,8.9,0,8.9,7.96-2.71,9.7284.828a6.8484,6.8484,0,0,1,0,6.3978l8.844-.207a28.3729,28.3729,0,0,1,4.422,2.6532c.8844.8844,3.5376,1.7688,3.5376,4.422l3.5376-2.6532s5.3064-4.422,11.4972-4.422,8.844,6.1908,8.844,6.1908h1.7688s-1.7688-12.3816,7.0752-12.3816,8.4676,1.4711,8.4676,1.4711-1.3924-10.3151,4.7984-10.3151,7.0752,1.7688,7.0752,1.7688H337.86s0-6.1908,8.844-6.1908,9.0886,8.5492,9.0886,8.5492.9785,4.7168,1.6935,4.7168,8.6747-1.7688,10.4434,4.422c0,0,2.6532,1.7688,4.422,1.7688s7.96,0,9.7284,2.6532-1.7688,2.6532-1.7688,2.6532-6.633-3.98-9.2862-2.211-7.96,6.1908-7.96,6.1908h-5.7486s-3.0954-3.5376-6.633,1.7688-10.6128,1.7688-10.6128,1.7688l-4.422-2.6532a18.5033,18.5033,0,0,1-10.6128,3.5376c-6.1908,0-8.844-2.6532-8.844-5.3064s-3.5376-.8844-3.5376-.8844-7.0752,6.1908-12.3816.8844-6.1908-4.422-6.1908-4.422-4.422,3.5376-7.96,3.5376a26.14,26.14,0,0,0-7.96,1.7688H263.1279s-5.3064-4.422-8.844,0-13.266,2.6532-13.266,2.6532-5.3064-4.422-8.844-3.5376-7.96,4.422-7.96,4.422-7.96.8844-10.6128-1.7688,0-4.422-7.96-3.5376S196.3557,829.1448,196.3557,829.1448Z" transform="translate(0 0)"/></g><g id="Nuage_2" data-name="Nuage 2"><path class="cls-2" d="M1345.627,279.87s14.6075-10.4339,31.3018-6.26,20.8679-4.1736,20.8679-4.1736,4.1736-20.8679,20.8679-6.26c0,0,4.1735-12.5207,14.6075-8.3471,0,0,2.0868,6.26,6.26,2.0868,0,0,0-27.1283,12.5207-29.2151s12.5208,2.0868,12.5208,2.0868,4.1735,4.1736,6.26,2.0868-2.0868-18.7811,20.8679-18.7811c0,0,8.3471,2.0868,18.7811-14.6075s33.3886-6.26,33.3886-6.26,4.1735,14.6075,14.6075,14.6075S1571,211.0059,1571,221.44v12.9973s14.6075,5.7838,14.6075,20.3913c0,0,2.0868,2.0868,12.5207,0s22.9547-4.1736,35.4754,14.6075a192.4691,192.4691,0,0,0,46.3977,10.4339s12.0323,4.1736-23.443,4.1736c0,0-40.6924-1.0434-44.866,9.39s-12.5207,10.434-18.781,10.434-20.8679-12.5208-20.8679-12.5208-6.26,8.3472-12.5207,8.3472-12.5207-8.3472-12.5207-8.3472-16.6943,10.434-31.3019,10.434-29.215-25.0415-29.215-25.0415-10.4339,20.8679-37.5621,20.8679c0,0-10.434,4.1736-25.0415-14.6075h-8.3471s-8.3472,14.6075-22.9547,8.3471S1348.7572,280.9132,1345.627,279.87Z" transform="translate(0 0)"/><path class="cls-3" d="M1392.58,287.1736s6.26,12.5207,14.6075,4.1735,10.434-18.781,18.7811-10.4339,14.6075,16.6943,29.215,14.6075,31.3018-18.7811,31.3018-18.7811,8.3472,27.1283,33.3886,22.9547,27.1283-6.26,27.1283-6.26,8.3471,6.26,14.6075,6.26,10.4339-8.3472,10.4339-8.3472,8.3471,14.6076,25.0414,12.5208,14.6075-18.7811,14.6075-18.7811,6.26-25.0415-25.0414-14.6075c0,0-12.5207,4.1736-14.6075,2.0868s4.1736-18.7811-10.4339-16.6943-12.5208-4.1736-12.5208-4.1736,10.434-16.6943-8.3471-14.6075l-8.3472,2.0868s0-14.6075-14.6075-10.434-22.9546,20.8679-22.9546,20.8679-10.434-8.3471-16.6943-6.26-14.6075,4.1736-16.6943,10.434-4.1736,16.6943-4.1736,16.6943-18.7811,0-22.9546,4.1736c0,0-18.7811-4.1736-22.9547,0S1392.58,287.1736,1392.58,287.1736Z" transform="translate(0 0)"/></g><g id="Nuage_3" data-name="Nuage 3"><path class="cls-4" d="M1008.6575,338.3679s-3.863-23.1779,25.1093-21.2464c0,0,3.863-19.315,28.9724-13.5205,0,0,9.6575-15.4519,28.9724-13.52s19.3149,15.4519,19.3149,15.4519,15.4519-11.5889,21.2464,3.863c0,0,1.9315,7.726-1.9315,9.6574,0,0,13.52,5.7945,13.52,11.589s5.7945,5.7945,5.7945,5.7945a21.6977,21.6977,0,0,0,17.3834,13.52c13.52,1.9315,7.726,3.863,7.726,3.863s-5.7945,1.9315-21.2464,1.9315-21.2464,5.7944-21.2464,5.7944-13.52,3.863-21.2464,1.9315c0,0-7.726,7.726-17.3834,7.726a23.1355,23.1355,0,0,1-15.452-5.7945,29.5553,29.5553,0,0,1-19.3149,7.726c-11.5889,0-19.3149-11.589-19.3149-11.589s-15.4519,5.7945-23.1779-1.9314-5.7945-9.6575-5.7945-9.6575S999,351.8883,999,344.1623,1008.6575,338.3679,1008.6575,338.3679Z" transform="translate(0 0)"/><path class="cls-3" d="M1007.8371,350.1692s11.4436-12.7671,23.0325-10.8356,11.5889,3.863,11.5889,3.863-3.8629-15.4519,13.5205-15.4519l11.5889,7.7259s3.863-23.1779,13.5205-19.3149,16.5,15.3684,16.5,15.3684,14.404-5.7109,20.1985-1.848,7.726,17.3835,7.726,17.3835,17.3834-1.9315,21.2464,1.9315-.3763,7.2168-.3763,7.2168-13.1442,2.4406-14.11,5.3378c0,0-14.4862,4.8288-21.2464,1.9315,0,0-16.4177,16.4177-32.8354,1.9315,0,0-20.2806,20.2807-38.63-3.863,0,0-15.3693,4.7466-20.7222-.0411A145.2889,145.2889,0,0,1,1007.8371,350.1692Z" transform="translate(0 0)"/></g><g id="Nuage_3-2" data-name="Nuage 3"><path class="cls-4" d="M953.04,826.3985s-6.0472-36.283,39.3065-33.2594c0,0,6.0471-30.2358,45.3537-21.165,0,0,15.1179-24.1887,45.3537-21.1651s30.2358,24.1886,30.2358,24.1886,24.1886-18.1414,33.2593,6.0472c0,0,3.0236,12.0943-3.0236,15.1179,0,0,21.1651,9.0707,21.1651,18.1415s9.0707,9.0707,9.0707,9.0707a33.966,33.966,0,0,0,27.2123,21.1651c21.165,3.0235,12.0943,6.0471,12.0943,6.0471s-9.0708,3.0236-33.2594,3.0236-33.2594,9.0707-33.2594,9.0707-21.165,6.0472-33.2593,3.0236c0,0-12.0944,12.0943-27.2123,12.0943a36.2163,36.2163,0,0,1-24.1886-9.0707s-12.0943,12.0943-30.2358,12.0943-30.2358-18.1415-30.2358-18.1415-24.1886,9.0708-36.2829-3.0235-9.0708-15.1179-9.0708-15.1179-18.1414,3.0235-18.1414-9.0708S953.04,826.3985,953.04,826.3985Z" transform="translate(0 0)"/><path class="cls-3" d="M951.7557,844.8725S969.67,824.8867,987.8111,827.91s18.1415,6.0471,18.1415,6.0471-6.0472-24.1886,21.165-24.1886l18.1415,12.0943s6.0472-36.2829,21.1651-30.2358,25.8291,24.0579,25.8291,24.0579,22.5481-8.94,31.6189-2.8928,12.0943,27.2122,12.0943,27.2122,27.2122-3.0236,33.2594,3.0236-.5891,11.2973-.5891,11.2973-20.576,3.8206-22.0878,8.3559c0,0-22.6768,7.559-33.2593,3.0236,0,0-25.7005,25.7-51.4009,3.0236,0,0-31.7476,31.7476-60.4716-6.0472,0,0-24.0593,7.43-32.4388-.0643A227.4442,227.4442,0,0,1,951.7557,844.8725Z" transform="translate(0 0)"/></g><g id="Nuage_2-2" data-name="Nuage 2"><path class="cls-2" d="M1523.0476,626.2507s12.83-9.1645,27.4934-5.4987,18.3289-3.6658,18.3289-3.6658,3.6658-18.3289,18.329-5.4987c0,0,3.6658-10.9973,12.83-7.3315,0,0,1.8329,5.4986,5.4987,1.8328,0,0,0-23.8276,10.9973-25.66s10.9974,1.8328,10.9974,1.8328,3.6658,3.6658,5.4987,1.8329-1.8329-16.496,18.3289-16.496c0,0,7.3316,1.8329,16.496-12.83s29.3263-5.4987,29.3263-5.4987,3.6658,12.83,12.83,12.83S1721,565.7652,1721,574.93v11.416s12.83,5.08,12.83,17.91c0,0,1.8329,1.8328,10.9974,0s20.1618-3.6658,31.1592,12.83a169.0482,169.0482,0,0,0,40.7526,9.1645s10.5684,3.6657-20.5908,3.6657c0,0-35.7414-.9164-39.4072,8.2481s-10.9974,9.1644-16.496,9.1644-18.329-10.9973-18.329-10.9973-5.4986,7.3315-10.9973,7.3315-10.9974-7.3315-10.9974-7.3315-14.6631,9.1644-27.4933,9.1644-25.66-21.9947-25.66-21.9947-9.1645,18.3289-32.9921,18.3289c0,0-9.1645,3.6658-21.9947-12.83H1584.45s-7.3315,12.83-20.1618,7.3316S1525.797,627.1671,1523.0476,626.2507Z" transform="translate(0 0)"/><path class="cls-3" d="M1564.2877,632.6658s5.4987,10.9973,12.83,3.6658,9.1644-16.4961,16.496-9.1645,12.83,14.6631,25.66,12.83,27.4934-16.4961,27.4934-16.4961,7.3315,23.8276,29.3262,20.1618,23.8276-5.4986,23.8276-5.4986,7.3316,5.4986,12.83,5.4986,9.1644-7.3315,9.1644-7.3315,7.3316,12.83,21.9948,10.9973,12.83-16.496,12.83-16.496,5.4987-21.9947-21.9947-12.83c0,0-10.9974,3.6658-12.83,1.8329s3.6658-16.496-9.1644-14.6631-10.9974-3.6658-10.9974-3.6658,9.1645-14.6631-7.3315-12.83l-7.3316,1.8329s0-12.83-12.83-9.1645-20.1618,18.3289-20.1618,18.3289-9.1644-7.3315-14.6631-5.4987-12.83,3.6658-14.6631,9.1645-3.6658,14.6631-3.6658,14.6631-16.4961,0-20.1618,3.6658c0,0-16.4961-3.6658-20.1619,0S1564.2877,632.6658,1564.2877,632.6658Z" transform="translate(0 0)"/></g></g></svg>