<svg id="Salle" xmlns="http://www.w3.org/2000/svg" xmlns:xlink="http://www.w3.org/1999/xlink" viewBox="0 0 1921 1086"><defs><style>.cls-1{fill:url(#Dégradé_sans_nom_25);}.cls-2{fill:#432101;}.cls-3{fill:#2b1c0b;}.cls-4{fill:#57320a;}.cls-5{fill:#502c08;}.cls-6{fill:#100100;}.cls-7{fill:#291700;}.cls-8{fill:#481f00;}.cls-9{fill:#5c3305;}.cls-10{fill:#2b1b07;}.cls-11{fill:#412202;}.cls-12{fill:#281600;}.cls-13{fill:#5f2d00;}.cls-14{fill:#61360a;}.cls-15{fill:#402203;}.cls-16{fill:#301500;}.cls-17{fill:#2b1500;}.cls-18{fill:#4c2a07;}.cls-19{fill:#3e2203;}.cls-20{fill:#412207;}.cls-21{fill:#3f1b00;}.cls-22{fill:#0a0500;}.cls-23{fill:#311700;}.cls-24{fill:#442707;}.cls-25{fill:#331802;}.cls-26{fill:#1e0f01;}.cls-27{fill:#432207;}.cls-28{fill:#2b1708;}.cls-29{fill:#371800;}.cls-30{fill:#451e00;}.cls-31{fill:#3e1b00;}.cls-32{fill:#533007;}.cls-33{fill:#523315;}.cls-34{fill:#603104;}.cls-35{fill:#673d0d;}.cls-36{fill:#512a06;}.cls-37{fill:#4d2402;}.cls-38{fill:#411f00;}.cls-39{fill:#4f2c04;}.cls-40{fill:#301b04;}.cls-41{fill:#5d3001;}.cls-42{fill:#6e4117;}.cls-43{fill:#412201;}.cls-44{fill:#2e1800;}.cls-45{fill:#110701;}.cls-46{fill:#462001;}.cls-47{fill:#4f2905;}.cls-48{fill:#764610;}.cls-49{fill:#432102;}.cls-50{fill:#461f00;}.cls-51{fill:#572f03;}.cls-52{fill:#422409;}.cls-53{fill:#351300;}.cls-54{fill:#190c00;}.cls-55{fill:#422201;}.cls-56{fill:#5c310b;}.cls-57{fill:#452105;}.cls-58{fill:#130502;}.cls-59{fill:#6b3f12;}.cls-60{fill:#5e2f00;}.cls-61{fill:#371a03;}.cls-62{fill:#4d2806;}.cls-63{fill:#2c1a03;}.cls-64{fill:#633807;}.cls-65{fill:#190802;}.cls-66{fill:#462100;}.cls-67{fill:#2f1904;}.cls-68{fill:#1b0600;}.cls-69{fill:#5c360b;}.cls-70{fill:#300f02;}.cls-71{fill:#542e04;}.cls-72{fill:#6f4012;}.cls-73{fill:#6f4318;}.cls-74{fill:#301901;}.cls-75{fill:#542d06;}.cls-76{fill:#714214;}.cls-77{fill:#562c06;}.cls-78{fill:#773900;}.cls-79{fill:#0a0000;}.cls-80{fill:#060204;}.cls-81{fill:#3d230f;}.cls-82{fill:#572f06;}.cls-83{fill:#4c2101;}.cls-84{fill:#281604;}.cls-85{fill:#4b2102;}.cls-86{fill:#0b0000;}.cls-87{fill:#2c1103;}.cls-88{fill:#442303;}.cls-89{fill:#0b0100;}.cls-90{fill:#4a2000;}.cls-91{fill:#613810;}.cls-92{fill:#160500;}.cls-93{fill:#140300;}.cls-94{fill:#271002;}.cls-95{fill:#180400;}.cls-96{fill:#793c01;}.cls-97{fill:#452200;}.cls-98{fill:#28130a;}.cls-99{fill:#291301;}.cls-100{fill:#281300;}.cls-101{fill:#241206;}.cls-102{fill:#311402;}.cls-103{fill:#2b1000;}.cls-104{fill:#291101;}.cls-105{fill:#080100;}.cls-106{fill:#412005;}.cls-107{fill:#723c0a;}.cls-108{fill:#6a3606;}.cls-109{fill:#783c0b;}.cls-110{fill:#291204;}.cls-111{fill:#472202;}.cls-112{fill:#462101;}.cls-113{fill:#532400;}.cls-114{fill:#47250a;}.cls-115{fill:#0b0200;}.cls-116{fill:#110100;}.cls-117{fill:#060003;}.cls-118{fill:#351b06;}.cls-119{fill:#291304;}.cls-120{fill:#432203;}.cls-121{fill:#452102;}.cls-122{fill:#6f4015;}.cls-123{fill:#724113;}.cls-124{fill:#120b00;}.cls-125{fill:#221101;}.cls-126{fill:#301803;}.cls-127{fill:#0f0600;}.cls-128{fill:#7d3902;}.cls-129{fill:#070004;}.cls-130{fill:#291100;}.cls-131{fill:#281401;}.cls-132{fill:#2e1900;}.cls-133{fill:#0b0400;}.cls-134{fill:#704212;}.cls-135{fill:#311a00;}.cls-136{fill:#0b0201;}.cls-137{fill:#2d1909;}.cls-138{fill:#552e07;}.cls-139{fill:#6f4111;}.cls-140{fill:#542c0a;}.cls-141{fill:#562f06;}.cls-142{fill:#331904;}.cls-143{fill:#0d0200;}.cls-144{fill:#552e09;}.cls-145{fill:#542e05;}.cls-146{fill:#6f4211;}.cls-147{fill:#6a3e10;}.cls-148{fill:#532e06;}.cls-149{fill:#311803;}.cls-150{fill:#0c0301;}.cls-151{fill:#6e4212;}.cls-152{fill:#472200;}.cls-153{fill:#482102;}.cls-154{fill:#7b3b04;}.cls-155{fill:#090000;}.cls-156{fill:#0c0000;}.cls-157{fill:#040200;}.cls-158{fill:#281302;}.cls-159{fill:#442202;}.cls-160{fill:#442100;}.cls-161{fill:#070100;}.cls-162{fill:#783c00;}.cls-163{fill:#7b3b02;}.cls-164{fill:#462000;}.cls-165{fill:#542702;}.cls-166{fill:#090103;}.cls-167{fill:#261403;}.cls-168{fill:#170902;}.cls-169{fill:#462003;}.cls-170{fill:#321804;}</style><linearGradient id="Dégradé_sans_nom_25" y1="545.2722" x2="1921" y2="545.2722" gradientUnits="userSpaceOnUse"><stop offset="0" stop-color="#3d2003"/><stop offset="0.1239" stop-color="#5a3208"/><stop offset="0.2528" stop-color="#70400d"/><stop offset="0.376" stop-color="#7d490f"/><stop offset="0.486" stop-color="#824c10"/><stop offset="0.6293" stop-color="#7e490f"/><stop offset="0.7738" stop-color="#72420d"/><stop offset="0.9185" stop-color="#5e3609"/><stop offset="0.9944" stop-color="#502d07"/></linearGradient></defs><rect class="cls-1" y="4.5445" width="1921" height="1081.4555"/><polygon class="cls-2" points="625.703 1082.714 1391.78 1082.714 1268.091 1072.061 1268.091 1011.269 1265.195 950.478 979.918 963.622 758.359 952.121 625.703 1082.714"/><polygon class="cls-3" points="1100.835 1069.596 1100.835 1047.888 1065.31 1058.742 1065.31 1069.596 1100.835 1069.596"/><polygon class="cls-4" points="1029.878 1040.022 1046.824 1058.742 1065.31 1058.742 1100.835 1047.888 1095.043 1041.665 1029.878 1040.022"/><polygon class="cls-5" points="1047.255 1071.239 1031.48 1049.382 1029.878 1040.022 1046.824 1058.742 1047.255 1071.239"/><polygon class="cls-6" points="1065.31 1069.596 1047.255 1071.239 1046.824 1058.742 1065.31 1058.742 1065.31 1069.596"/><path class="cls-7" d="M982.0906,971.3019l21.7215,36.1461-24.6177,14.787-2.8962-27.931s7.24-8.2151,7.24-11.5011A104.34,104.34,0,0,0,982.0906,971.3019Z" transform="translate(0 3)"/><polygon class="cls-8" points="941.544 994.018 929.959 1021.949 979.194 1025.235 976.298 997.304 941.544 994.018"/><path class="cls-9" d="M982.0906,971.3019l-31.8583-6.572-13.0329,16.43,2.3271,14.7217,2.0172-4.8637,34.7545,3.2861s7.24-6.5721,7.24-11.5011A65.5988,65.5988,0,0,0,982.0906,971.3019Z" transform="translate(0 3)"/><polygon class="cls-10" points="925.615 1002.233 929.959 1021.949 939.526 998.882 937.199 984.16 925.615 1002.233"/><polygon class="cls-11" points="1079.113 1003.876 1084.906 980.874 1052.247 974.302 1041.155 999.768 1053.725 1003.876 1079.113 1003.876"/><path class="cls-12" d="M1097.9388,956.5148l17.6545,34.5031-36.48,9.8581,5.7924-23.0021S1093.5945,968.0159,1097.9388,956.5148Z" transform="translate(0 3)"/><path class="cls-13" d="M1052.2465,956.5148s14.5119-14.3326,30.8261-8.8093,14.8662,8.8093,14.8662,8.8093l-5.8909,11.5844-39.8014-3.3693Z" transform="translate(0 3)"/><polygon class="cls-14" points="1052.247 974.302 1050.336 967.73 1052.247 959.515 1052.247 967.73 1092.048 971.099 1084.906 980.874 1052.247 974.302"/><polygon class="cls-15" points="1048.62 982.628 1047.255 964.444 1052.247 959.515 1050.336 967.73 1052.247 974.302 1048.62 982.628"/><polygon class="cls-16" points="1041.155 999.768 1041.463 974.302 1047.255 964.444 1048.62 982.628 1041.155 999.768"/><polygon class="cls-17" points="1154.415 1023.592 1251.438 1020.306 1255.782 1005.519 1242.749 994.018 1244.197 1000.59 1249.989 1003.876 1249.989 1013.734 1194.962 1013.734 1176.136 1017.02 1152.967 1017.02 1152.967 1023.592 1154.415 1023.592"/><polygon class="cls-18" points="1196.41 994.018 1158.759 1005.519 1152.967 1017.02 1176.136 1017.02 1196.41 1010.448 1229.716 1010.448 1229.716 1002.268 1242.749 1002.233 1242.749 994.018 1196.41 994.018"/><polygon class="cls-19" points="1176.136 1017.02 1196.41 1010.448 1229.716 1010.448 1229.716 1013.734 1194.962 1013.734 1176.136 1017.02"/><polygon class="cls-20" points="1242.749 994.018 1242.749 1002.233 1229.716 1002.268 1229.716 1010.448 1229.716 1013.734 1249.989 1013.734 1249.989 1003.876 1244.197 1000.59 1242.749 994.018"/><polygon class="cls-21" points="1122.557 964.444 1154.415 984.16 1135.589 998.947 1118.212 997.304 1122.557 964.444"/><polygon class="cls-22" points="1187.892 996.62 1158.759 1005.519 1128.287 1005.519 1125.104 997.956 1135.589 998.947 1154.415 984.16 1173.641 984.16 1187.892 996.62"/><polygon class="cls-23" points="1242.749 994.018 1231.164 957.872 1194.962 977.588 1177.584 977.588 1173.641 984.16 1187.892 996.62 1196.41 994.018 1202.202 990.732 1239.853 991.396 1242.749 994.018"/><polygon class="cls-24" points="1242.749 994.018 1239.853 991.396 1202.202 990.732 1196.41 994.018 1242.749 994.018"/><polygon class="cls-25" points="1177.584 977.588 1173.641 984.16 1171.176 984.16 1179.032 967.73 1192.065 967.73 1192.065 972.659 1202.202 972.659 1205.098 961.158 1223.924 956.229 1231.164 957.872 1194.962 977.588 1177.584 977.588"/><polygon class="cls-26" points="1231.164 957.872 1249.989 956.229 1249.989 967.765 1242.749 979.231 1242.749 987.446 1265.919 987.446 1269.678 996.62 1269.678 1010.448 1253.958 1011.727 1255.782 1005.519 1242.749 994.018 1231.164 957.872"/><polygon class="cls-27" points="1249.989 967.765 1255.782 952.943 1252.886 949.657 1274.607 915.154 1283.296 923.369 1276.055 939.799 1276.055 961.158 1263.022 980.874 1257.292 984.16 1245.553 983.978 1242.749 979.231 1249.989 967.765"/><polygon class="cls-28" points="1242.749 979.231 1242.749 987.446 1265.919 987.446 1257.292 984.16 1245.553 983.978 1242.749 979.231"/><polygon class="cls-29" points="1276.055 961.158 1272.851 1010.448 1269.678 1010.448 1269.678 996.62 1265.919 987.446 1257.292 984.16 1263.022 980.874 1276.055 961.158"/><polygon class="cls-30" points="1309.362 862.578 1276.055 903.583 1274.607 915.154 1283.296 923.369 1309.362 862.578"/><polygon class="cls-31" points="1275.263 973.343 1293.433 918.44 1286.192 925.012 1276.055 951.964 1276.055 961.158 1275.263 973.343"/><polygon class="cls-32" points="1122.557 964.444 1125.453 956.229 1157.311 975.945 1173.641 968.254 1179.032 967.73 1173.149 980.033 1146.471 979.244 1122.557 964.444"/><polygon class="cls-33" points="1171.176 984.16 1154.415 984.16 1146.471 979.244 1173.149 980.033 1171.176 984.16"/><polygon class="cls-34" points="1125.453 956.229 1166 911.868 1199.306 948.014 1198.967 964.444 1192.065 967.73 1179.032 967.73 1173.641 968.254 1164.626 972.5 1143.674 967.506 1125.453 956.229"/><polygon class="cls-35" points="1157.311 975.945 1143.674 967.506 1164.626 972.5 1157.311 975.945"/><polygon class="cls-36" points="1192.065 967.73 1192.065 972.659 1202.202 972.659 1205.098 961.158 1217.065 958.025 1184.825 921.726 1176.282 923.026 1199.306 948.014 1198.967 964.444 1192.065 967.73"/><polygon class="cls-37" points="1166 911.868 1179.98 922.463 1176.282 923.026 1166 911.868"/><polygon class="cls-38" points="1231.164 957.872 1218.131 952.943 1204.374 904.841 1166 911.868 1179.98 922.463 1184.825 921.726 1217.065 958.025 1231.164 957.872"/><polygon class="cls-39" points="1255.782 952.943 1231.164 957.872 1218.131 952.943 1204.374 904.841 1226.82 934.87 1232.612 941.442 1257.98 941.565 1252.886 949.657 1255.782 952.943"/><path class="cls-40" d="M1204.3743,901.8412s28.238-11.0466,36.9266-9.4035,33.3063,19.716,33.3063,19.716L1257.98,938.5651l-25.3676-.1233Z" transform="translate(0 3)"/><polygon class="cls-41" points="764.875 956.229 770.668 969.373 755.108 1009.626 739.765 1009.626 712.59 956.229 704.055 928.298 734.465 906.939 764.875 956.229"/><polygon class="cls-42" points="662.06 939.799 696.814 933.227 706.951 969.373 715.64 971.016 739.765 1009.626 712.59 956.229 704.055 928.298 725.081 913.53 680.885 928.298 662.06 939.799"/><polygon class="cls-43" points="739.765 1009.626 705.503 1015.377 682.333 990.732 705.472 964.099 706.951 969.373 715.64 971.016 739.765 1009.626"/><polygon class="cls-44" points="662.06 939.799 651.923 951.3 651.923 991.886 682.333 990.732 705.472 964.099 696.814 933.227 662.06 939.799"/><polygon class="cls-45" points="705.503 1015.377 650.475 1017.02 651.923 991.886 682.333 990.732 705.503 1015.377"/><polygon class="cls-46" points="734.465 906.939 635.994 928.298 651.923 941.442 651.923 951.3 662.06 939.799 680.885 928.298 725.081 913.53 734.465 906.939"/><polygon class="cls-47" points="635.994 928.298 630.202 923.369 721.432 905.296 734.465 906.939 635.994 928.298"/><path class="cls-48" d="M647.03,934.4041s-47.2384,36.8978-70.408,38.5408l5.8232,15.9406L651.9233,948.3v-9.858Z" transform="translate(0 3)"/><polygon class="cls-49" points="650.475 1017.02 647.579 1040.022 618.679 1040.022 599.792 1023.592 627.306 1010.448 625.133 976.784 651.923 957.278 651.923 991.886 650.475 1017.02"/><polygon class="cls-50" points="582.445 991.886 599.792 1023.592 590.209 991.886 625.133 976.784 582.445 991.886"/><polygon class="cls-51" points="651.923 951.3 651.923 957.278 625.133 976.784 582.445 991.886 617.184 971.593 651.923 951.3"/><polygon class="cls-52" points="625.133 976.784 627.306 1010.448 599.792 1023.592 590.209 991.886 625.133 976.784"/><path class="cls-41" d="M576.622,972.9449s-39.0988-111.7243-37.6507-142.9414,86.1621,83.7932,86.1621,83.7932l5.0684,6.572,5.7924,4.9291,11.0358,9.1063-10.2032,7.5669s-24.6955,17.6019-33.0375,21.0019C603.7893,962.9729,591.103,971.3019,576.622,972.9449Z" transform="translate(0 3)"/><g id="pierre_2" data-name="pierre 2"><polyline class="cls-53" points="934.04 989.089 937.199 984.16 935.751 972.659 898.101 972.659 934.303 975.945 934.04 989.089"/><polyline class="cls-54" points="929.959 1021.949 922.718 1013.734 848.865 1015.377 844.91 1007.524 872.867 1007.162 882.48 989.089 898.101 972.659 934.303 975.945 934.04 989.089 925.615 1002.233 929.959 1021.949"/><path class="cls-55" d="M925.6146,999.233" transform="translate(0 3)"/><polygon class="cls-55" points="843.073 1003.876 844.91 1007.524 872.867 1007.162 882.48 989.089 843.478 986.347 843.073 1003.876"/><polygon class="cls-56" points="838.728 959.515 832.936 985.803 834.846 989.089 843.073 1003.876 843.478 986.347 838.728 986.013 838.728 959.515"/><polyline class="cls-57" points="937.199 984.16 935.751 972.659 939.526 952.663 966.161 952.943 969.058 971.613 950.232 967.73 937.199 984.16"/><polygon class="cls-58" points="956.025 920.083 980.642 952.943 982.091 974.302 969.058 971.613 966.161 952.943 957.473 941.442 956.025 920.083"/><polygon class="cls-59" points="838.728 959.515 838.728 986.013 882.48 989.089 898.101 972.659 935.751 972.659 939.526 952.663 966.161 952.943 957.473 941.442 944.44 941.442 929.959 963.78 889.412 964.444 885.068 977.588 844.521 979.231 845.572 957.503 838.728 959.515"/><polygon class="cls-60" points="954.577 919.314 903.893 918.44 845.969 949.307 844.521 979.231 885.068 977.588 889.412 964.444 929.959 963.78 944.44 941.442 957.473 941.442 956.025 920.083 954.577 919.314"/><polygon class="cls-61" points="815.62 994.018 808.318 1008.805 808.318 1025.235 816.021 1003.876 815.62 994.018"/><polygon class="cls-62" points="815.62 994.018 816.021 1003.876 821.536 1045.859 820.057 1025.235 815.62 994.018"/><polygon class="cls-63" points="821.536 1045.859 808.318 1025.235 816.021 1003.876 821.536 1045.859"/><polygon class="cls-64" points="820.057 1025.235 815.62 994.018 834.846 989.089 843.073 1003.876 843.073 1018.663 820.057 1025.235"/><polygon class="cls-65" points="847.417 1053.166 820.057 1054.46 821.536 1045.859 846.497 1045.859 847.417 1053.166"/><polygon class="cls-66" points="820.057 1025.235 843.073 1018.663 846.497 1045.859 821.536 1045.859 820.057 1025.235"/><polygon class="cls-67" points="843.073 1018.663 843.073 1003.876 848.865 1015.377 847.417 1053.166 843.073 1018.663"/><polygon class="cls-68" points="796.734 1064.991 786.597 1063.024 783.701 1049.88 796.734 1064.991"/><polygon class="cls-69" points="817.346 1049.382 815.097 1037.4 790.217 1037.4 790.941 1046.594 796.734 1049.382 817.346 1049.382"/><polygon class="cls-70" points="783.701 1049.88 796.734 1064.991 796.734 1049.382 790.941 1046.594 790.217 1037.4 786.597 1046.594 783.701 1049.88"/><polygon class="cls-16" points="796.734 1061.381 796.734 1049.382 817.346 1049.382 817.346 1064.991 796.734 1064.991 796.734 1061.381"/><path class="cls-71" d="M1659.8332,534.8263l36.1718-84.357,10.1367-14.787-7.487-49.2283-8.4421-6.6339,18.8253-24.645-5.7924-3.286-26.0659,18.073h-15.9291l-13.6183-18.073,16.5145-16.43,24.6178-9.858,10.1367-18.0731-18.8254,3.286-24.6177,16.43-23.17-1.643-23.17-83.7933,41.995,3.286,36.9673-42.2712,3.092,10.9438-8.201,8.3254,5.7422,7.7055s-12.9828,49.8,23.22,64.5867,46.1372,14.7936,55.6509,20.5408,23.9424,10.3646,25.4167,16.2709,6.2091,12.72-8.4672,21.6355-17.5725,8.916-17.5725,8.916-7.5325,20.6508-16.0751,26.7554-14.3351,19.2487-25.92,20.8917,5.7924,34.5031,5.7924,34.5031a36.2126,36.2126,0,0,0-26.1312,22.9687c-7.1751,19.75-6.0467,23.97-10.9552,32.5393s-26.9382,39.5809-26.9382,39.5809l-6.9016-4.16" transform="translate(0 3)"/><polygon class="cls-72" points="1692.4 461.876 1694.557 412.394 1658.909 389.454 1661.251 372.962 1677.18 372.962 1703.245 354.889 1709.038 358.175 1690.213 382.82 1698.655 389.454 1706.142 438.682 1692.4 461.876"/><polygon class="cls-73" points="1627.962 312.954 1629.392 335.173 1647.632 354.889 1664.147 338.459 1688.764 328.601 1698.901 310.528 1680.076 313.814 1655.458 330.244 1632.288 328.601 1627.962 312.954"/><path class="cls-74" d="M1415.8126-1.7415s54.2884,28.3156,74.5619,28.3156,44.1825,15.0317,44.1825,15.0317l-17.3707,26.8474s32.5912,35.8315,17.3707,52.0169-26.8053,27.2319-21.0129,43.0677,91.5694,0,91.5694,0,37.3117-17.0244,46-25.2394,14.481-21.359,26.0658-19.716,6.7938,54.1972,6.7938,54.1972l56.9227-54.1972s6.6521-8.4777,8.3944-17.3829,4.6386-18.7632,3.19-23.6923-99.9191,6.5721-99.9191,6.5721-18.7694,18.2145-23.1417,18.9652-8.1959,7.014-19.317,6.3469-67.5971-7.2391-67.5971-7.2391l65.1646-47.6471,91.5165,1.5512s35.9165-3.7186-1.01-22.351-41.6714-35.4469-41.6714-35.4469Z" transform="translate(0 3)"/><path class="cls-75" d="M1609.1188,241.8077l-34.7544-14.787h28.2842l-.77-16.43-27.5139-1.7478s1.4481-3.5657,0-4.195,34.7544-3.3559,34.7544-3.3559l10.1368-15.3463-5.7925-11.5011-11.5848,13.1441-15.9291-1.643,10.1367-8.2151-14.0176-10.594,23.0452-3.5987,46-25.2394s15.9291-23.002,26.0658-19.716,6.7938,54.1972,6.7938,54.1972l-74.8546,69.0281" transform="translate(0 3)"/><path class="cls-76" d="M1512.0463,156.2587l-1.3984,29.6869,26.0658,31.2171,27.514,8.215,10.1367,1.643h28.2842l-.77-16.43-27.5139-1.7478v-4.195l34.7544-3.3559,10.1368-15.3463-5.7925-11.5011-11.5848,13.1441-15.9291-1.643,10.1367-8.2151-14.0176-10.594S1513.4447,182.434,1512.0463,156.2587Z" transform="translate(0 3)"/><path class="cls-77" d="M1326.5849-1.7415l78.3515,33.2446S1478.79,61.0772,1484.5821,79.15c0,0,20.2734,16.43,26.0658,106.7954l1.3984-29.6869s1.5286-19.1139,22.5107-35.7886-17.3707-52.0169-17.3707-52.0169l17.3707-26.8474s-22.461-13.3887-44.1825-15.0317-74.5619-28.3156-74.5619-28.3156Z" transform="translate(0 3)"/><path class="cls-78" d="M1317.2184-1.7415s6.6243,46.3886,38.4826,75.9627S1370.182,149.8,1370.182,149.8l15.9291,50.9331,1.6022,41.0751,31.7042,55.8622s11.5848,111.7243,7.24,139.6554,15.8675,36.6355,15.8675,36.6355V345.8764l-4.2827-89.2816,27.5139-36.1461s5.0394-29.5741-17.03-6.5721-22.562,13.1441-22.562,13.1441l-18.3324-18.7373,4.3443-30.5529,13.9881-21.4718-15.4362-3.1732-11.2693,7.6557s-.3155-15.8708,4.0288-19.1568-20.2734-16.43-20.2734-16.43l21.7215-42.7181s-11.5848-29.5741-23.17-29.5741-21.7215,18.073-21.7215,18.073l17.3772-34.5031L1326.5849-1.7415Z" transform="translate(0 3)"/><path class="cls-79" d="M1406.53,32.1518s-26.2111-.6487-29.1073,4.28-17.3772,34.5031-17.3772,34.5031,10.1367-16.43,21.7215-18.073,27.5139-4.929,27.5139-4.929h18.8254l1.1235-5.8314Z" transform="translate(0 3)"/><path class="cls-80" d="M1403.4883,141.5844l31.8583-3.286s21.7215-39.4321,28.962-41.0751,29.1067-3.5853,29.1067-3.5853l8.72,27.9353s-36.3785,36.4412-50.86,46.2992-37.0486,46.9466-37.0486,46.9466l-6.3945-6.5357,1.48-10.4092s23.1377-46.4317,53.5478-61.2188,20.2734-26.2881,20.2734-26.2881l-36.2025,26.2881-36.2026,16.43-11.2693,7.6557S1399.144,144.87,1403.4883,141.5844Z" transform="translate(0 3)"/><path class="cls-81" d="M1409.3127,197.8742l2.8642-20.1437,13.9881-21.4718-15.4362-3.1732,36.2026-16.43,36.2025-26.2881s8.5395,8.775-14.5555,23.2821-30.4755,21.1034-42.7144,37.5213S1409.3127,197.8742,1409.3127,197.8742Z" transform="translate(0 3)"/><path class="cls-82" d="M1326.5849-1.7415l50.8376,38.1736s8.6886-6.572,27.5139-4.929Z" transform="translate(0 3)"/><polygon class="cls-83" points="1442.525 476.961 1452.724 487.972 1457.068 435.396 1442.525 452.63 1442.525 476.961"/><path class="cls-66" d="M1384.0347,52.5284s19.4536,16.7638,20.9017,29.9079l-21.7215,42.7181,20.2734,16.43,31.8583-3.286,26.6881-39.7718,31.3806-4.8886L1484.5821,79.15l-33.7873,17.9062-6.5131-4.9544,6.5131-19.1742-37.17,7.8654,37.17-14.5773-11.1039-6.7817,12.5493-5.8456L1429.23,42.1018l-1.1235,5.8314h-18.8254Z" transform="translate(0 3)"/><path class="cls-84" d="M1413.625,80.7932l37.17-7.8654-6.5131,19.1742,6.5131,4.9544L1484.5821,79.15S1472.03,54.315,1452.24,53.5886l-12.5493,5.8456,11.1039,6.7817Z" transform="translate(0 3)"/><path class="cls-85" d="M1414.2271,214.8191l12.9514,13.9483s8.5927,1.3046,32.2741-23.2231c0,0,9.2-4.8117,6.3041,14.9044l-27.5139,36.1461,2.6061,54.33,7.5306-28.0425,31.8582-32.86,2.619-47.2-4.0054-6.0051-1.51-32.2309s-3.0928-14.6258-13.8552-6.4914S1439.5,179.2258,1439.5,179.2258Z" transform="translate(0 3)"/><polygon class="cls-86" points="1496.598 188.946 1482.857 205.823 1480.238 253.023 1448.379 285.883 1440.849 313.925 1474.445 287.526 1490.374 259.595 1497.615 221.806 1496.598 188.946"/><path class="cls-87" d="M1463.4863,158.0951s9.5109-8.2956,13.8552,6.4914l1.51,32.2309,4.0054,6.0051,13.7415-16.8769,1.0168,32.86-7.2405,37.7891-15.9292,27.9311-10.959,20.1705,2.7657,50.7583,14.2986-38.1736,24.3049-34.3983,5.7924-46.7732v-50.164l-2.2539-25.995-6.2588-38.3773Z" transform="translate(0 3)"/><polygon class="cls-88" points="1440.849 313.925 1442.525 389.427 1466.252 358.455 1463.486 307.696 1474.445 287.526 1440.849 313.925"/><polyline class="cls-89" points="1457.068 435.396 1454.172 400.893 1463.486 367.054 1482.857 323.847 1504.855 285.883 1480.551 320.281 1466.252 358.455 1442.525 389.427 1442.525 452.63"/><path class="cls-90" d="M1396.2478,880.9366l-46.3393,3.286,5.7616,17.6186s-15.3157-16.1458-16.3311-17.7037-9.1341-14.9506.7177-17.2907,25.3188-7.2692,40.755.9458,15.4361,13.144,15.4361,13.144" transform="translate(0 3)"/><polyline class="cls-91" points="1309.362 862.578 1293.433 918.44 1286.192 925.012 1276.055 951.964 1276.055 939.799 1283.296 923.369 1309.362 862.578"/></g><polygon class="cls-92" points="1003.812 1010.448 1001.902 1021.949 983.539 1031.527 932.571 1031.527 924.166 1017.02 848.739 1018.663 848.865 1015.377 922.718 1013.734 931.839 1022.075 979.194 1025.235 1003.812 1010.448"/><polygon class="cls-93" points="1041.463 974.302 1037.334 998.947 1043.866 1008.805 1096.491 1010.448 1115.593 994.018 1079.113 1003.876 1053.725 1003.876 1041.155 999.768 1041.463 974.302"/><polygon class="cls-94" points="1097.939 959.515 1111.896 975.945 1115.593 994.018 1097.939 959.515"/><polygon class="cls-95" points="848.739 1018.663 850.313 1056.452 845.969 1059.738 817.346 1059.424 817.346 1049.382 815.097 1037.4 805.946 1037.4 805.946 1024.868 808.318 1025.235 821.536 1045.859 820.057 1054.46 847.417 1053.166 848.739 1018.663"/><path class="cls-96" d="M1269.6775,1060.129l22.307-28.2457V1000.876l27.9452-9.8581s2.65-21.359-4.6832-23.8235-20.3658-10.68-7.3329-22.1806,29.0236-6.4487,29.0236-6.4487l7.6411,8.0917,10.1059-2.4645,8.2573-13.9655-7.2714-28.3856s-30.3793-25.8336-17.3464-34.0486,42.488,0,42.488,0l-6.2854-13.1441s-28.9621-24.645-23.17-67.3632c0,0,1.4482-24.645,11.5849-24.645s2.8962-55.8622,2.8962-55.8622-33.3064-6.572,41.9949-128.1544c0,0-65.1646,34.5031-62.2684,111.7244,0,0-4.3443,72.2922-26.0658,105.1523l-10.1367,64.0772L1293.4326,915.44l-18.1694,54.9036-2.4122,37.1047Z" transform="translate(0 3)"/><path class="cls-97" d="M1269.6775,1060.129v19.585H1391.78l-69.1622-5.9569s27.5677-34.2967,29.6012-60.1609,2.0336-42.2943,2.0336-42.2943l-44.6447-6.7356s10.9047,3.45,10.3975,11.6646a129.6215,129.6215,0,0,0-.076,14.787l-27.9452,9.8581v31.0073Z" transform="translate(0 3)"/><path class="cls-98" d="M1344.5783,946.6568s-7.7027-21.359-36.6647-1.643c0,0-13.0329,9.858,1.4481,19.7161l44.8912,6.572,34.7544,18.073,63.7165,37.7892,28.962-8.2151-39.0063-11.501-34.8469-11.501-37.62-49.29Z" transform="translate(0 3)"/><path class="cls-97" d="M1407.8326,995.947s34.2307,0,38.1129-19.7161,5.33-44.3611,5.33-44.3611H1419.88l12.5708-24.6451-26.8053-17.2516-18.0859,18.8946-30.2125-.4814,5.5948,21.8405-8.2573,13.9655-10.1059,2.4645h25.6345Z" transform="translate(0 3)"/><path class="cls-99" d="M1391.78,1079.714l60.9435-52.55-98.4709-55.8622s-1.0012,70.184-31.6348,102.4552Z" transform="translate(0 3)"/><path class="cls-100" d="M1481.6858,1018.949l8.6887-14.787L1478.79,991.0179s-7.2405-21.6861,2.8962-26.4516l-4.3443-31.0535,4.3443-54.1143-21.7215-32.965-13.0329,1.643-2.8962,37.7891,11.5848,64.0772-8.9321,22.289s.2435,23.7152-38.8553,23.7152Z" transform="translate(0 3)"/><polygon class="cls-101" points="1452.724 1030.164 1354.253 974.302 1389.007 992.375 1452.724 1030.164"/><polygon class="cls-102" points="1446.931 851.077 1437.811 849.434 1431.002 887.223 1406.569 887.223 1405.645 892.973 1432.45 910.225 1419.88 934.87 1451.276 934.87 1446.688 975.232 1455.62 952.943 1444.035 888.866 1446.931 851.077"/><path class="cls-103" d="M1391.78,1079.714l34.8777-27.9049,22.4455-20.1355,27.8991-9.5334,16.2681-11.4062-4.3443-19.7161-10.0751-9.107,12.9713-18.824.3389-15.6086-9.0276-20.5375,4.3444-41.0752,1.4481-26.288-7.2406-8.285,1.4481-14.7171,4.3444-11.501-7.2406-8.2151-4.3443-36.1461-34.7544-60.7912L1425.21,622.9849l-15.9292-39.4322-4.3443,39.4322,18.8254,18.073,2.8962,54.2192,20.2734,54.2191,27.5139,41.0752,2.8962,9.858,1.4481,18.073-10.3418,40.8058,13.238,20.09-2.5556,31.8337-1.7887,22.2806,4.3443,31.0535s-7.6248,1.658-5.26,14.8763,2.3643,11.5753,2.3643,11.5753l11.5849,13.1441-10.1368,14.787-6.2074,2.1715-21.3065,6.0436-57.4947,49.576Z" transform="translate(0 3)"/><path class="cls-104" d="M1404.9364,622.9849s-15.9291,49.29-7.2405,65.72,20.2734,47.6472,20.2734,47.6472,5.7925,21.3591-7.24,31.2171-40.5468,9.858-40.5468,9.858v8.0053s23.17,14.9968,33.3063,16.64,36.2026-9.858,36.2026-9.858,13.0329,16.43,4.3443,29.574l34.7544-3.286-1.4481-18.073-2.8962-9.858-27.5139-41.0752-20.2734-54.2191-2.8962-54.2192Z" transform="translate(0 3)"/><polygon class="cls-105" points="1357.347 911.386 1349.909 887.223 1396.248 883.937 1444.035 824.788 1478.79 821.502 1468.448 862.308 1459.964 849.434 1446.931 851.077 1437.811 849.434 1431.002 887.223 1406.569 887.223 1405.645 892.973 1387.559 911.868 1357.347 911.386"/><path class="cls-106" d="M1409.2807,583.5527l-34.4295,54.4463-6.56,14.8685,1.891,90.1965,2.8962,1.5032,1.4481,23.0021h-18.3356s-22.2028,45.7642,18.8211,88.0946l5.8,12.1287,15.4361,13.144,47.7874-59.1482s13.0329-14.787-4.3443-29.574c0,0-17.3772,11.501-36.2026,9.858l-33.3063-16.64v-8.0053s92.6785,11.501,27.5139-88.7223c0,0-8.6886,0,7.2405-65.72Z" transform="translate(0 3)"/><path class="cls-107" d="M1407.8326,578.6237l1.4481,4.929-34.4295,54.4463S1400.5921,581.91,1407.8326,578.6237Z" transform="translate(0 3)"/><path class="cls-108" d="M1368.291,652.8675s-24.1749,39.1236-2.4533,53.9106c0,0,8.6886,46.0041-2.8962,55.8622,0,0-3.3649,0-6.7508,4.929h18.3356l-1.4481-23.0021-2.8962-1.5032Z" transform="translate(0 3)"/><path class="cls-109" d="M1539.61,271.3818l8.6886,16.43-10.1367,3.286s-11.5848,50.9331-2.8962,67.3632c0,0,2.8962,41.0751-7.24,50.9331s0,52.8209,0,52.8209,8.6886,6.3273-1.4481,27.6864,2.8962,50.9331,2.8962,50.9331l-8.6886,46.0041s-1.4481,36.88,13.757,38.9777,7.9645,36.6006,7.9645,36.6006-1.4481,21.359-14.481,26.288-21.7215-9.858-21.7215-9.858l-2.8654,10.864,8.6578,8.8521-2.3724,23.8235,22.6458,20.5376,1.4481,18.0731-18.8253,29.5741s-5.7924,18.073,14.481,21.359-11.5848,27.9311-11.5848,27.9311l-1.4481,21.3591h35.802s13.4335,26.288-14.08,32.86-24.6177,13.144-24.6177,13.144l31.8582,46.0041-11.5848,24.6451s-5.7924-27.9311-10.1367-27.9311-11.5848,1.643-11.5848,1.643-5.7308,22.861,8.7194,30.3251-9.2432,17.3221-9.2432,17.3221l-20.5815,1.1536-2.0643-9.3687-10.0751-9.107,12.9713-18.824.3389-15.6086,1.1092-237.26,17.3772-46.1584,6.5384-84.1079L1516.44,412.68l10.1367-42.7181-5.7924-29.5741Z" transform="translate(0 3)"/><path class="cls-85" d="M1533.8175,977.8739l-8.4269,10.31s.5172-5.1153-5.6646-6.8913-8.4112-14.4847-8.4112-14.4847-.6669-13.5794.7812-15.2224,11.5848-1.643,11.5848-1.643,4.9373.8185,6.8129,14.3748l3.9754,12.17Z" transform="translate(0 3)"/><path class="cls-110" d="M1548.2985,287.8119s10.1368,1.643,10.1368,16.43-5.0684,76.592-5.0684,76.592l-5.0684,51.1779,5.0684,81.3811,28.238,135.88s2.8962,36.1461-5.7924,55.8622l4.3443,90.3653-24.6177-24.6451,10.1367-26.2881-1.4481-19.716-23.17,3.286-20.2734-3.286-7.24-18.0731,2.8962-9.858,14.481,13.144,27.514-8.215,7.24-50.9332-13.0329-37.7891-4.3444-64.0772-10.1367-13.144,9.6444-16.0805-2.4039-85.7858-14.2345-29.4832s5.5459-16.5209,4.0978-46.095c0,0-13.0329,13.144,2.8962-67.3632Z" transform="translate(0 3)"/><polygon class="cls-103" points="1580.157 798.5 1565.676 795.214 1555.521 781.301 1551.195 782.07 1548.299 777.141 1548.299 747.742 1539.61 739.352 1518.335 733.196 1510.809 714.483 1513.544 709.778 1520.785 727.851 1541.058 731.137 1564.228 727.851 1565.676 747.567 1555.539 773.855 1580.157 798.5"/><path class="cls-111" d="M1516.44,861.2206l37.6507-32.86h7.2405v41.0751l13.0329,4.929v18.8072l13.0329,32.126-13.0329,9.858L1517.71,913.24s-10.2991-7.7257,1.4564-12.6208a143.6929,143.6929,0,0,1,20.4457-6.9138s23.815-6.1964,12.6307-32.4844Z" transform="translate(0 3)"/><path class="cls-112" d="M1518.3345,730.1959l14.0349,12.7283,1.4481,18.0731-14.481,22.7493,2.1537,25.53s20.5594,6.26,10.651,16.7792l8.27,2.3044,25.2648-36.1461-10.1546-13.9131-4.3264.769-2.8963-4.929V744.742l-8.6886-8.39Z" transform="translate(0 3)"/><path class="cls-113" d="M1519.3365,783.7466l-4.3443,6.8248s-4.3812,14.409,6.498,18.7055Z" transform="translate(0 3)"/><polygon class="cls-114" points="1517.709 916.24 1545.402 956.229 1564.228 943.085 1517.709 916.24"/><polygon class="cls-115" points="1574.364 938.156 1564.228 943.085 1517.709 916.24 1574.364 938.156"/><polygon class="cls-116" points="1540.411 831.36 1532.141 829.056 1517.888 842.861 1516.44 864.221 1554.091 831.36 1540.411 831.36"/><polygon class="cls-117" points="1580.157 798.5 1582.068 855.621 1597.534 874.079 1603.326 921.726 1597.534 925.012 1587.397 923.369 1577.261 870.793 1564.228 865.864 1564.228 827.096 1545.847 823.583 1565.676 795.214 1580.157 798.5"/><polygon class="cls-118" points="1540.411 831.36 1545.847 823.583 1564.228 827.096 1564.228 865.864 1577.261 870.793 1587.397 923.369 1587.397 928.298 1574.364 896.172 1574.364 877.365 1561.331 872.436 1561.331 831.36 1554.091 831.36 1540.411 831.36"/><path class="cls-119" d="M1603.3264,918.7257l18.8254-21.359s-21.7216-67.3632-31.8583-75.5783c0,0-8.6886-73.9352-14.481-116.6533l4.3443,90.3653,1.9115,57.1206,15.4657,18.4576Z" transform="translate(0 3)"/><path class="cls-120" d="M1589.04,811.2015l21.5271,41.804,17.3773-3.286s8.6886,31.2171,1.4481,39.4321l-7.24,8.2151-14.2367-40.2537s-13.2773-33.6816-17.6216-35.3246Z" transform="translate(0 3)"/><path class="cls-121" d="M1531.1678,404.5561s-16.1756,11.8995-3.1427,57.659c0,0,8.6886,9.6133-1.4481,27.6864s2.8962,50.9331,2.8962,50.9331-17.6835,61.5749-1.6012,80.8991c0,0,3.647,4.0368,7.6925,4.287s10.9908,8.5315,7.5181,33.1434-12.1613,27.8979-12.1613,27.8979-5.8049,6.6716-18.8316-1.5932l-5.7861-6.6218-2.8654,10.864,8.6578,8.8521-1.2866,12.9194,2.7347-4.7044,2.8962-9.858,14.481,13.144,27.514-8.215,7.24-50.9332-13.0329-37.7891-4.3444-64.0772-10.1367-13.144,9.6444-16.0805-2.4039-85.7858Z" transform="translate(0 3)"/><path class="cls-122" d="M1391.78,1079.714l57.3232-48.04,27.8991-9.5334,16.2681-11.4062-2.28-10.3474,20.5815-1.1536s11.1839-4.0246,13.8184-11.0488l8.4269-10.31.6516-1.3862,10.9332-23.2589,18.8254-13.144,10.1367-4.929,2.8962,3.286,2.8962,18.073L1614.48,995.947h-12.5708l-17.408-16.43s-8.7242-14.0529-28.98,1.1886-29.7761,18.5275-29.7761,18.5275-10.7712.8739-12.21,11.1165,4.1745,8.5995,4.1745,8.5995v12.6547s-25.8869-7.83-38.92,7.8305-34.1382,40.28-34.1382,40.28Z" transform="translate(0 3)"/><path class="cls-75" d="M1444.6514,1079.714h38.2053s16.2064-44.3349,88.6115-41.0489c0,0,75.3013-8.215,68.0608-21.3591s-36.2026-55.8621-37.6507-55.8621,2.8662-24.6451,30.3951-26.2881,57.2613-13.1441,56.1521-13.1441.03-36.1111.03-36.1111l-53.271-72.3272-21.7216,9.858-1.6945,8.202,16.1756,18.0861s7.2405,26.2881,1.4481,39.4321l-7.24,19.7161-18.8254,17.7945-15.9291-1.3644-13.0329,9.858s2.8962,3.286,5.7924,21.359L1614.48,995.947h-12.5708l-17.408-16.43s-7.5932-18.7-37.103,7.08l-21.653,12.6363s-11.7082,3.16-11.9546,9.7948-2.0524,9.9212,3.919,9.9212v12.6547s-25.2555-7.1784-34.9839,4.049l-21.3388,24.4381Z" transform="translate(0 3)"/><path class="cls-123" d="M1609.1188,660.774h17.0692l-4.0362,9.2987-18.8254,10.697,1.4481,6.2923h7.5487a49.3114,49.3114,0,0,1-8.9968,11.1165c-5.7924,5.3136,5.7924,16.8146,5.7924,16.8146s14.4811,1.643,7.2406,9.8581-23.17,18.073-23.17,18.073-2.8962,37.09,5.7924,45.6546c0,0,0,13.4936,8.6886,15.1366s16.7611.4544,18.5173,2.6917,6.0854,8.4875,6.0854,8.4875l-18.81,8.5368-1.6945,8.202,16.1756,18.0861-17.3773,3.286-21.5271-41.804-13.2273-106.0664s4.0054-15.65,4.8989-19.3262S1609.1188,660.774,1609.1188,660.774Z" transform="translate(0 3)"/><path class="cls-75" d="M1609.1188,660.774l44.8912-27.9311,20.2734,18.073-1.4481,32.86s-30.6258,1.1939-37.0344,27.7065-3.5275,39.6567-3.5275,39.6567L1614.48,773.8966l20.7048,39.6768-2.9113,1.3212-6.0854-8.4875-18.5173-2.6917s-7.24.9438-8.6886-15.1366c0,0-8.6886-6.2225-5.7924-45.6546,0,0,20.2734-14.787,23.17-18.073s4.3443-8.2151-7.2406-9.8581c0,0-15.6775-11.7755-2.0463-20.6748l5.2507-7.2563h-7.5487l-1.4481-6.2923,18.8254-10.697,4.0362-9.2987Z" transform="translate(0 3)"/><path class="cls-74" d="M1482.8567,1079.714h182.5225s-23.1081-11.2651-10.7222-19.585,29.7632-5.0339,29.7632-5.0339V1022.14s5.7924-14.6922,24.6177-9.7632,23.17,13.144,23.17,13.144l15.9292-1.643,36.2949-54.8145-83.5585-76.7925,3.6972,16.5967,23.2929,19.4888s4.3443,5.1563-2.8962,8.4423-11.5848,4.929-11.5848,4.929v19.7161h-23.17L1685.8683,948.3l2.5572-26.2881s-41.6861,14.7871-56.1521,13.1441c0,0-27.4989-1.643-30.3951,26.2881,0,0,37.6507,50.9331,37.6507,55.8621s.31,5.9778-11.43,10.3824-62.6026,11.0646-87.1308,12.6636S1486.9237,1061.6147,1482.8567,1079.714Z" transform="translate(0 3)"/><path class="cls-124" d="M1921,1079.714V-1.7415H1656.5057s25.0183,33.2446,53.98,39.8166c0,0,13.0329,18.0731-14.481,18.0731s-82.5419-4.929-88.3343-1.643-65.1646,47.6471-65.1646,47.6471,62.2684,9.858,75.3014,6.572,34.7544-24.645,34.7544-24.645l99.9191-6.5721s0,27.9311-11.5849,41.0752-131.7773,123.2253-131.7773,123.2253l41.995,3.286s46.3393-57.5051,57.9241-59.1481,1.4481,8.215,1.4481,8.215l-27.5139,27.9311s11.5848,18.073,20.2734,18.073h17.3772s-17.3772-23.002-2.8962-26.2881,105.7115-26.288,105.7115-26.288l2.8962-8.2151L1752.481,182.66s21.7215-13.1441,39.0987-18.0731,33.3064-24.6451,36.2026-55.8622l40.5468,6.5721,14.4811,60.7911s-23.17,34.5031-20.2735,42.7182,15.9291,9.858,15.9291,9.858,18.8254,36.1461,10.1368,52.5761-26.0659,14.7871-26.0659,14.7871L1821.99,282.8828s-20.2735-6.572-11.5849,9.8581S1845.16,323.958,1845.16,323.958l62.2684,18.073s21.7215,11.5011-2.8962,26.2881-123.0887,62.4342-123.0887,62.4342,23.17,23.0021,23.17,34.5031-10.1367,29.5741-36.2025,42.7181-31.6734,33.6816-31.6734,33.6816,31.6734,28.7526,33.1215,48.4687v18.073l53.58-1.643,34.7544-19.7161s15.9291-18.073,40.5469-9.858,5.7924,65.72,5.7924,65.72-20.2734,23.0021-26.0659,21.3591-88.4882-11.1925-88.4882-11.1925-72.2511-13.4526-88.18-38.0977-35.0626-75.7836-35.0626-75.7836l-6.9016-4.16-1.4789,30.6534s15.3129,26.5151,8.38,42.8316-12.7248,24.5316-12.7248,24.5316l20.2734,18.073,73.8533,21.3591s28.962,24.6451,40.5468,24.6451,27.514,16.43,27.514,16.43,7.2405,8.215,20.2734,0,1.4481,37.7891,1.4481,37.7891l-36.2026,32.86-58.3246-.2527s-21.4134,17.558-17.7469,36.8364,8.0107,29.1365,8.0107,29.1365l17.3773,4.5646s0-35.7817,31.8582-35.7817a377.8462,377.8462,0,0,1,59.3722,4.929l-10.1367,36.1462-20.2735,31.217-44.8911-13.144-43.4431-31.2171s-85.4681-53.0817-91.2455-62.6869-5.7773,5.1817-5.7773,5.1817l26.3508,48.6255,48.0262,54.7172,83.5585,76.7925-36.2949,54.8145-15.9292,1.643s-57.9241-50.9331-47.7873,29.5741c0,0-64.1479-6.6244-19.041,24.6189Z" transform="translate(0 3)"/><path class="cls-124" d="M1713.3822,961.4439V941.7278s21.7215-5.3835,14.481-13.3713-23.2929-19.4888-23.2929-19.4888l-3.6972-16.5967L1690.1379,880.04l-1.6822,5.86-.03,36.1111L1685.8683,948.3l4.3443,13.1441Z" transform="translate(0 3)"/><polygon class="cls-125" points="1614.48 776.897 1635.185 816.573 1688.456 888.901 1690.138 883.04 1626.496 791.928 1614.48 776.897"/><path class="cls-126" d="M1674.2834,650.9159l-1.4481,32.86s-52.1617,0-40.5619,67.3632L1614.48,773.8966l14.6018,6.6217,107.4972,75.3,30.3831,21.8325,44.8911,13.144,20.2735-31.217,10.1367-36.1462s-92.6785-30.303-91.23,30.8527l-17.3773-4.5646-8.0107-29.1365s-4.3752-14.0871,17.7469-36.8364l58.3246.2527,36.2026-32.86,4.5725-26.0884s7.7867-24.6165-14.3221-8.3c0,0-5.4869,1.7619-18.1421-9.0341S1798.82,696.92,1788.6835,696.92s-40.5468-24.6451-40.5468-24.6451Z" transform="translate(0 3)"/><path class="cls-74" d="M1823.438,606.5548s49.2354-39.4321,75.3013-29.5741,3.8793,67.8364,3.8793,67.8364-12.5679,17.6-24.1528,19.2429-140.9772-13.0832-172.58-44.3307-39.1512-80.7431-39.1512-80.7431,27.8221-34.2977,32.1664-52.3707,9.8154-39.7118,30.2495-42.858c0,0-11.4242-31.0773-4.1837-34.3633s33.3064-21.359,41.995-47.6471c0,0,33.3063-11.5011,27.5139-27.9311s-82.5418-39.4321-82.5418-39.4321-34.8548-5.948-23.22-64.5867c0,0,8.7388,10.3675,14.5312,10.3675h17.3772s-17.3772-23.002-2.8962-26.2881,105.7115-26.288,105.7115-26.288l2.8962-8.2151L1752.481,182.66s76.7494-18.0731,75.3013-73.9353l40.5468,6.5721,14.4811,60.7911s-20.4736,32.7145-20.3736,39.3594,4.4444,11.5738,16.0292,13.2168c0,0,15.702,32.7121,11.4713,49.2162s-27.4,18.147-27.4,18.147L1821.99,282.8828s-31.58-16.3659-2.7569,21.3912l25.9265,19.684,62.2684,18.073s41.193,13.0485-30.0871,41.0274l-95.8978,47.6949s58.17,34.6278-7.1177,73.9975c0,0-35.9556,18.0108-37.5886,36.9053,0,0,34.1961,30.4416,32.9347,46.8487s.1868,19.693.1868,19.693Z" transform="translate(0 3)"/><polygon class="cls-127" points="599.792 1023.592 597.727 1037.4 615.721 1066.31 650.475 1040.022 618.679 1040.022 599.792 1023.592"/><path class="cls-128" d="M597.7273,1034.4s-9.52-23.6663-64.5484-17.0943c0,0-22.3069-39.4321-18.394-69.8277s21.29-58.3267,21.29-58.3267-4.6832-8.215-15.3745,0l-10.6913,8.2151s-2.8962-13.1441-23.17-16.43-28.962-21.359-28.962-21.359-14.481-24.6451,10.1367-31.2171,46.3393-9.8581,33.3064-29.5741-18.8254-23.0021-18.8254-23.0021,27.514-34.5031,14.4811-41.0751-13.033-9.858-31.8583,3.286c0,0-28.962,16.43-36.2026,16.43s-23.17-6.572-10.1367-11.501,28.9621-6.572,28.9621-6.572L456.43,677.204s10.1367-6.572,21.7215-8.215,10.1367-32.86-2.8962-34.5031-33.3063-4.929-33.3063-4.929-20.2735-26.2881,8.6886-37.7891,23.17-23.0021,23.17-23.0021L433.26,534.2626s-1.4481-26.2881,15.9291-39.4321-7.24-50.9332-7.24-50.9332l-5.7924-11.501,1.4481-9.858,8.6886,1.643,20.2734,65.72,11.5848,57.5051,30.41,75.5783,18.8253,98.58,11.5848,108.4384L576.622,972.9449l5.8232,15.9406,17.3464,31.7065Z" transform="translate(0 3)"/><path class="cls-97" d="M437.6042,422.5383l-40.5469,80.5072s18.8253,11.501,13.0329,26.2881-15.9291,19.716-15.9291,19.716v13.5636l66.6127,2.8665-5.7924,11.501-41.1671-1.5032a41.147,41.147,0,0,1-13.8608,26.1483c-13.0329,11.501-13.0329,13.144-13.0329,13.144a7.36,7.36,0,0,0,7.24,4.929c5.7924,0,14.481-13.144,20.2734-13.144s1.4481,16.43,1.4481,16.43l-27.5139,27.931L386.9206,696.71s2.8962,8.4248,10.1367,8.4248,18.8253-6.572,18.8253-6.572,1.4481-37.7891,8.6886-37.7891,13.033,4.929,13.033,11.501-1.4481,23.0021-1.4481,23.0021l-24.6178,31.2171s-21.7215,16.43-21.7215,19.716v39.4321H439.73s21.0437-6.572,23.94-11.501,13.0329-19.7161,14.481-19.7161,7.24,0,5.7924,4.9291-15.9291,37.7891-15.9291,37.7891L428.9155,811.93l-49.2354,1.643s-7.24,19.7161-4.3443,26.2881,17.3772,4.929,17.3772,4.929l-7.24,23.0021,20.2734-4.929,15.9291,1.643s-.2464,25.8444-8.8118,34.2813-21.5983,19.9378-21.5983,19.9378,1.4481,6.5721,13.0329,6.5721,23.17-6.5721,23.17-6.5721,15.9292-27.9311,23.17-29.5741,14.481-3.286,11.5848,1.643-4.3443,19.7161-4.3443,19.7161h23.17S463.67,935.1558,463.67,940.0848s11.5848,8.215,11.5848,8.215l21.7216-1.643,7.24-23.0021,5.7924-26.288s-5.7924-16.43-23.17-16.43-37.7056-25.0039-31.8857-42.8975c0,0,1.862-8.3693,32.079-14.7745s13.3505-25.8865,13.3505-25.8865l-17.8881-21.5938s35.7722-42.0416,5.5772-45.6659c0,0-7.5341-4.6326-21.0366,6.5511s-38.12,17.7557-38.12,17.7557-31.1847-5.2895-4.7316-13.3242l23.557-4.7488L456.43,677.204s15.9291-8.215,21.7215-8.215,18.4744-33.2075-10.3122-35.4983-25.89-3.9338-25.89-3.9338-18.8254-23.0021,8.6886-37.7891,24.6177-16.43,23.17-23.0021S433.26,534.2626,433.26,534.2626s-2.2448-24.18,21.3231-47.4147c0,0,5.6023-15.21-9.3085-37.2955l-9.1184-17.1561Z" transform="translate(0 3)"/><path class="cls-129" d="M536.0751,889.1516s-19.4107,37.7892-21.29,58.3267l-30.8415,28.7526-22.3993-17.6528L380.5736,948.3l-38.4518-22.1805,11.4924-156.907s-2.8962-139.6554,1.4481-151.1565,41.995-115.01,41.995-115.01,34.7545,8.215-2.8962,46.0041v13.5636l66.6127,2.8665-5.7924,11.501-41.1671-1.5032s-22.5494-11.6408-28.3418,8.0752-2.8962,34.5031-2.8962,34.5031l11.5848,1.643s18.8253-14.787,20.2734-13.144,5.7924,3.286,1.4481,16.43-27.5139,27.931-27.5139,27.931L374.6519,685.419l-5.1085,31.2171,5.7924,29.5741-7.24,34.5031-10.1368,18.0731v24.645l31.8583-37.7891H439.73l23.94-11.501,14.481-19.7161s16.4989-2.0046-.4391,20.3568l-9.6976,22.3614L428.9155,811.93l-49.2354,1.643-24.6178,31.2171,5.7924,32.86-1.4481,41.0751h31.8583s1.4481,6.5721,13.0329,6.5721,23.17-6.5721,23.17-6.5721,17.3773-27.9311,23.17-29.5741a40.1119,40.1119,0,0,1,11.3567-1.3886l.2281,3.0316-4.3443,19.7161h23.17L463.67,940.0848s2.8962,8.215,11.5848,8.215,21.7216-1.643,21.7216-1.643l13.0329-49.29S527.3865,877.6506,536.0751,889.1516Z" transform="translate(0 3)"/><path class="cls-130" d="M394.1611,619.6988s-7.24-1.643-7.24-4.929,10.996-9.9258,15.6347-15.6424,10.6388-13.652,11.259-23.65c0,0-22.17-13.45-27.428,5.5278s-5.2581,28.8355-3.81,37.05Z" transform="translate(0 3)"/><path class="cls-131" d="M388.3687,650.9159,386.9206,696.71s7.24,18.2828,28.962,1.8528c0,0,2.8962-37.7891,8.6886-37.7891s12.91,2.4117,12.9716,14.35a124.5108,124.5108,0,0,1-1.3867,20.1532l-24.6178,31.2171s-21.7215,16.43-21.7215,19.716v39.4321l-31.8583,37.7891v-24.645l10.1368-18.0731,7.24-34.5031-5.7924-29.5741,5.1085-31.2171Z" transform="translate(0 3)"/><path class="cls-132" d="M352.5715,783.45l-35.16,26.8379L288.45,866.15s-11.5848,19.716-11.5848,36.1461l66.3568,8.8083Z" transform="translate(0 3)"/><path class="cls-133" d="M243.5585,882.58l73.8532-72.2922s-43.4431,78.8642-40.5469,92.0083-4.6216,8.8083-4.6216,8.8083l-19.9961-2.2363Z" transform="translate(0 3)"/><path class="cls-134" d="M461.5441,958.5781H388.7076l-26.4048,20.9388s-13.0329-46.0041-30.41-47.6471-46.3393,6.572-46.3393,6.572-18.8253,0-37.6506-21.3591-41.995,4.929-41.995,4.929l-14.481,3.2861,7.2405-21.3591L243.5585,882.58l8.6886,26.2881,19.9961,2.2363s8.9659,2.6927,4.6216-8.8083l66.3568,8.8083-1.1,15.0153L380.5736,948.3Z" transform="translate(0 3)"/><path class="cls-75" d="M625.7034,1079.714,597.7273,1034.4s-16.761-23.6663-64.5484-17.0943l-20.2734-8.215-28.9621-32.86-22.3993-17.6528H388.7076l-26.4048,20.9388s-1.4481-75.5782-76.7494-41.0751c0,0-17.3772,1.643-37.6506-21.3591,0,0-12.2105-9.8543-19.1382-8.2131s11.8977,18.0712,11.8977,18.0712l2.8962,60.1969s33.3063,15.3813,41.9949,13.7383,21.7216-16.43,21.7216-16.43,21.7215,6.572,30.41,13.1441,36.9668,14.1578,36.9668,14.1578,51.3674-10.8718,77.4333,18.7023,60.82,27.931,60.82,27.931,62.2684,4.9291,72.4051,13.1441,8.6886,8.215,8.6886,8.215Z" transform="translate(0 3)"/><path class="cls-126" d="M274.1717,999.0894l17.1741,8.3586,41.995,1.643,6.7475-5.0008,10.63,1.7148L326.1,1037.0221l5.7924,4.929,110.4379,5.0339,35.82,8.11,6.6859,24.6451H593.9992s-5.7924-23.0021-81.0937-21.3591c0,0-32.283,1.093-59.5846-26.5631s-64.8718-23.9855-78.669-20.07L337.6851,997.59l-30.41-13.1441S288.8558,1007.1608,274.1717,999.0894Z" transform="translate(0 3)"/><path class="cls-135" d="M191.4268,925.2978,158.12,966.3729l44.8912-3.286,15.9291,18.073,24.6178,5.9778-2.8962-60.1969s-12.3768-10.5874-13.4289-15.1518,0-2.7092,0-2.7092-16.9813,4.7169-21.3256,12.9319Z" transform="translate(0 3)"/><path class="cls-136" d="M223.9943,891.8882l19.5642-14.3774s1.4481-17.9332-31.8583-14.6472-104.2633,44.3611-104.2633,44.3611L43.72,968.0159H19.4724s5.9156-49.6923-5.9157-52.7772S0,908.6852,0,908.6852V1079.714H203.104l-42.0874-39.4059,34.7545,1.643,17.3772,4.929v24.6451l9.9211,8.1888,261.7675.0262-6.6859-24.6451-35.82-8.11-110.4379-5.0339-5.7924-4.929,24.6177-31.2171-10.63-1.7148-6.7475,5.0008-41.995-1.643-17.1741-8.3586-30.6132-11.9517L218.9407,981.16l-15.9291-18.073-44.8912,3.286,33.3064-41.0751,7.2405-21.3591Z" transform="translate(0 3)"/><polygon class="cls-137" points="203.104 1082.714 223.069 1082.714 213.148 1074.525 213.148 1049.88 195.771 1044.951 161.017 1043.308 203.104 1082.714"/><path class="cls-138" d="M154.8074,882.58s-31.349-59.1482,11.3238-72.2922,52.8095-8.215,52.8095-8.215l30.41-44.3611,31.1342-20.5376,5.0683-18.8946,18.8254-16.43s4.3443,23.0021,4.3443,24.6451-2.8962,18.073-2.8962,18.073L321.91,733.8338s-91.1616,110.77-89.1009,130.5793c0,0-9.5241-4.11-31.97.4564S154.8074,882.58,154.8074,882.58Z" transform="translate(0 3)"/><path class="cls-139" d="M262.3838,637.7719l37.6507,37.7891s-2.4033,23.0021-8.4422,26.2881-16.1756,14.787-16.1756,14.787,1.4481,6.5721,10.1367,1.643,18.8254-16.43,18.8254-16.43l4.3443,24.6451-2.8962,18.073L321.91,733.8338,326.1,664.06l-8.6886-24.82-5.7924,24.82-34.7545-26.2881Z" transform="translate(0 3)"/><path class="cls-140" d="M291.3458,526.0476s-27.668,56.3071-26.8669,69.2286,13.4249,24.4226,13.4249,24.4226,5.3834,9.089,0,9.4735-15.52,8.6-15.52,8.6h14.481L311.6193,664.06l5.7924-24.82Z" transform="translate(0 3)"/><path class="cls-141" d="M227.6293,629.5569l-7.24,6.572,37.6507,3.286,7.24,11.501L229.0774,665.703l46.3393,50.9331,16.1756-14.787s8.4422-8.215,8.4422-26.2881l-37.6507-37.7891L275.338,629.78Z" transform="translate(0 3)"/><path class="cls-142" d="M229.0774,665.703l-30.9031,19.716s-17.1-8.215-6.1313-21.359,16.761-21.9534,8.7965-30.6928-12.4685,4.4047-12.4685,4.4047-19.59,3.2663-35.057-7.4034S95.852,667.346,95.852,667.346L61.0976,708.4211V730.13L84.791,744.5672s19.75,13.1441,15.4053,24.6451S.2773,830.0035.2773,830.0035v24.8548s79.6456-37.9989,85.438-37.9989,35.9561-3.286,37.5274-6.572,8.8119-49.29,11.7081-52.5761,7.1789-13.1441,15.8983-13.1441.0308,24.6451.0308,24.6451l-18.8253,46.0041-17.3772,28.4555-28.9005,3.6048s-24.6793,30.3739-29.0236,32.0169-56.476,8.215-56.476,8.215L0,908.6852l13.5567,6.5535s10.63,6.773,5.9157,52.7772H43.72l63.7165-60.7912L154.8074,882.58s-29.9009-64.0772,11.3238-72.2922,52.8095-8.215,52.8095-8.215l30.41-44.3611,31.1342-20.5376,5.0683-18.8946s-2.8962,6.5721-10.1367-1.643S229.0774,665.703,229.0774,665.703Z" transform="translate(0 3)"/><path class="cls-143" d="M220.3888,450.4693l-40.5468-3.286S159.5685,478.4,159.5685,488.2585s-56.4759,31.217-56.4759,31.217-6.4087-16.43-11.893-16.43-32.9982,27.9311-32.9982,27.9311S44.275,500.448,26.62,506.6757A57.6279,57.6279,0,0,0,0,526.0476L.2773,830.0035s101.3672-49.29,99.919-60.7912S88.6115,738.6943,61.0976,730.13V708.4211l54.5758-60.8573s22.6974-22.9556,37.6406-17.1953,20.4164,9.0464,35.057,7.4034c0,0,1.6077-8.8093,12.4685-4.4047s.5083,19.1917-8.7965,30.6928,6.1313,21.359,6.1313,21.359l30.9031-19.716L265.28,650.9159l-7.24-11.501-37.6507-3.286,7.24-6.572,50.2745-.3846s6.8315,2.0276,0-9.4735-15.5861-14.8828-12.6569-30.4435,26.0989-63.2077,26.0989-63.2077l8.6887-11.3962-17.3773-.1049s-17.3772,49.29-33.3063,57.5052-24.6178-3.286-24.6178-3.286-31.8582-6.572-40.5468,0-55.0279,32.86-55.0279,32.86L82.8191,626.2709,61.0976,677.204l-4.4059-47.6471-31.7967,4.929s-20.2734-23.0021,8.6886-41.0751,69.509-27.9311,69.509-27.9311l15.9291-24.6451H150.88l13.0329,1.643,13.033-49.29Z" transform="translate(0 3)"/><path class="cls-74" d="M142.7767,593.8277s-26.6512,2.8691-10.7221-23.419l31.8582-27.9311-44.8911-1.643L103.0926,565.48s-86.5939,22.014-84.5679,46.3316,6.37,22.6746,6.37,22.6746l31.7967-4.929,4.4059,47.6471,21.7215-50.9331Z" transform="translate(0 3)"/><path class="cls-144" d="M249.3509,572.0517l31.7658-65.376s4.4367-51.557-18.7329-43.2021-52.1317,19.8558-52.1317,19.8558-5.7924-13.144,8.6886-14.787,34.7545,0,31.8583-11.501-17.99-7.411-17.99-7.411l7.8532-15.5911s-4.3443-23.0021-11.5849-36.1461,0-37.7891,0-37.7891L195.7711,323.958,174.05,351.8891s12.848,6.1429,2.8037,21.1445-12.94,19.9306-12.94,19.9306l39.0988,1.643s15.9291,9.858,10.1367,31.2171-9.6149,23.279-9.6149,23.279l16.8554,1.366-43.443,42.7182-13.033,49.29,24.1095,24.5215,36.7108,1.7666Z" transform="translate(0 3)"/><path class="cls-145" d="M142.7767,593.8277l45.2456-26.8286-24.1095-24.5215-31.8582,27.9311S117.2963,597.5307,142.7767,593.8277Z" transform="translate(0 3)"/><path class="cls-146" d="M229.0774,360.1041s31.9815,73.9352,59.4339,87.0792,11.5232,67.4681,11.5232,67.4681l-17.3773-.1049S260.93,565.3652,252.9683,569.53l-3.6174,4.1647s-18.8254,3.286-21.7216-1.643l-2.8962-3.286,24.6178,3.286,31.7658-65.376s2.9886-53.2-18.7329-43.2021-52.1317,19.8558-52.1317,19.8558-6.9927-13.8484,12.4328-15.1392,28.1141.3522,28.1141-11.1488-17.99-7.411-17.99-7.411l7.8532-15.5911s-8.0583-36.8953-14.1659-43.9142Z" transform="translate(0 3)"/><path class="cls-74" d="M0,407.2618s32.1355,36.6355,30.6874,46.4936,51.8852-46.4936,51.8852-46.4936l81.34-14.2976s85.0335-15.8761,39.6206,56.1391l-23.6914-1.92-20.2735,41.0752s-21.7215,23.002-56.4759,31.217c0,0-4.9606-16.43-11.893-16.43s-32.9982,27.9311-32.9982,27.9311S45.7231,502.091,26.62,506.6757A41.7407,41.7407,0,0,0,0,526.0476Z" transform="translate(0 3)"/><path class="cls-136" d="M0,355.245v52.0168l27.2514,36.3954,3.436,10.0982s-2.7862,7.8157,14.536-9.2362,37.3492-37.2574,37.3492-37.2574l81.34-14.2976,14.9756-23.4787s9.6422-17.5964-4.8388-17.5964-18.8254,16.43-18.8254,16.43L123.366,379.82l-62.2684-14.787Z" transform="translate(0 3)"/><path class="cls-147" d="M195.7711,323.958,166.809,289.4549l-2.8962,6.6419,14.4811,22.9322-21.7216,36.1461-26.0658,14.787-31.8583-4.929-7.7314-28.6652v35.77l32.3492,7.682,31.8582-11.501s5.7924-16.43,18.8254-16.43Z" transform="translate(0 3)"/><path class="cls-148" d="M91.0168,336.3679l42.7632-46.913s4.067-34.5031,12.7556-32.86,20.2734,32.86,20.2734,32.86l-2.8962,6.6419s-10.1367-32.93-15.9291-29.644-23.17,49.29-23.17,49.29Z" transform="translate(0 3)"/><path class="cls-75" d="M178.3939,319.029l-14.4811-22.9322-7.5021-19.9514s-4.0827-12.9786-8.427-9.6926-23.17,49.29-23.17,49.29l-33.7973,20.625,7.7314,28.6652,31.8583,4.929,26.0658-14.787Z" transform="translate(0 3)"/><path class="cls-149" d="M42.2723,195.8036,0,221.847v57.0507s43.72,15.4862,68.3381,13.8432c0,0-4.3443,41.0751-11.5848,50.9331S0,351.8891,0,351.8891v3.3559l91.0168,16.8931v-35.77l42.7632-46.913,9.6139-32.917v-5.3266l-73.6077-6.1176L50.9609,199.09Z" transform="translate(0 3)"/><path class="cls-124" d="M0,278.8977v72.9914s90.06,19.716,68.3381-59.1482Z" transform="translate(0 3)"/><path class="cls-150" d="M195.7711,323.958l-13.7376-67.42S74.1305,144.87,62.5457,144.87s40.5469-16.43,40.5469-16.43,1.4481-27.9311-36.2026-41.0751S29.2393,59.4342,43.72,49.5762,120.47,34.7891,139.2951,38.0751s21.7215,31.2171,21.7215,31.2171l2.8962,29.2245L234.87,92.2943s17.3772,1.643,20.2734,21.359,46.3393,24.6451,46.3393,24.6451l10.1367-3.286s-40.5469-34.5031-27.514-65.72c0,0,26.0659-14.787,18.8254-21.359s-27.514-14.7871-27.514-14.7871-18.8253-9.858-20.2734-23.0021L253.6952-3H0V221.847l42.2723-26.0434,8.6886,3.286,18.8253,46.0041,73.6077,6.1176,23.4151,38.2436Z" transform="translate(0 3)"/><path class="cls-74" d="M162.1911,236.2449s7.5142-20.7253,36.4762-17.4392a375.8766,375.8766,0,0,1,48.8041,8.543s55.4593-18.4011,16.3605-39.76h-54.805s-49.674-31.2231-3.951-48.4717,53.7339,0,53.7339,0l18.98,7.6412,16.4527-3.5307s-30.41,0-34.7544-14.787l-4.3443-14.7871s-8.6886-23.002-20.2734-21.359-70.9571,6.2224-70.9571,6.2224,6.9341-65.7509-42.1481-61.4532S58.2014,44.6471,43.72,49.5762,33.1589,78.602,55.8168,82.9836s45.8277,22.4547,47.2758,45.4568L62.5457,144.87Z" transform="translate(0 3)"/><path class="cls-138" d="M188.2063,286.8319s22.0458-17.0931,39.423-17.0931,89.6283-27.5557,94.7737-33.4939,31.2112-56.8714,31.2112-56.8714-2.8962-37.7891-17.3772-37.7891-41.995,1.643-41.995,1.643l-16.4527,3.5307-18.98-7.6412s-8.7768-11.1762-29.3913-6.8188-46.7124,9.8811-43.0761,30.1213,22.6845,25.1692,22.6845,25.1692h54.805s41.1323,18.729-16.3605,39.76c0,0-71.073-29.5268-85.28,8.8962l19.8424,20.293Z" transform="translate(0 3)"/><path class="cls-151" d="M256.2456,117.4054s-5.4466,24.179,37.9964,25.822l41.995-1.643s13.0329,0,17.3772,37.7891L322.403,236.2449s22.5226-9.2242,32.6593-24.0113,21.7216-26.288,13.033-39.4321-17.3773-41.0751-17.3773-41.0751l-39.0987,3.286-10.1367,3.286S271.829,137.5876,256.2456,117.4054Z" transform="translate(0 3)"/><path class="cls-75" d="M350.718,131.7264S328.6268,63.5792,421.49,36.8616l176.8533,4.4995s49.482,7.4311,46.4625-4.4995S628.045-3,628.045-3H344.0937L309.5858,36.8616s13.2124,51.6573,4.0027,60.117a231.8138,231.8138,0,0,1-20.83,16.5539l18.8606,21.48Z" transform="translate(0 3)"/><path class="cls-126" d="M253.6952-3h90.3985L309.5858,36.8616s10.3162,46.7283,4.0027,60.117-20.83,16.5539-20.83,16.5539-15.8939-34.3823-8.6534-44.24,23.17-9.858,18.8254-21.359S255.1433,41.3611,253.6952-3Z" transform="translate(0 3)"/><path class="cls-152" d="M399.2107,44.9623s-2.1534,40.76,22.4643,63.762,20.027,27.829,20.027,27.829L399.163,108.165l21.4389,28.3883-4.7193,47.7493,26.1582,36.2859-4.4366-52.716,12.4783-7.3935-5.2378-17.2516-1.1708-25.822-.2773-25.1111-25.85-37.028L421.49,36.8616S404.26,38.7054,399.2107,44.9623Z" transform="translate(0 3)"/><path class="cls-153" d="M481.6969,38.3934s-16.5788,25.97-25.2674,25.97-30.225-10.26-27.4214-27.31Z" transform="translate(0 3)"/><path class="cls-154" d="M421.49,36.8616l-3.9438,18.4047,25.85,37.028,1.4481,50.9331,5.2378,17.2516-12.4783,7.3935,4.4366,52.716-.0923,60.6513-10.1367,11.5011s11.5848,18.073,17.3772,8.215,7.24-59.1482,7.24-59.1482V160.6013L492.632,77.5072l4.5816-38.719-15.5167-.3948s-19.475,25.97-25.2674,25.97-27.3288-5.3305-27.4214-27.31Z" transform="translate(0 3)"/><path class="cls-155" d="M399.2107,44.9623l-13.5074,7.1364,13.46,56.0663,42.539,28.3883s-.068-10.6977-12.9437-20.9063S400.0016,80.97,399.9775,60.3441,399.2107,44.9623,399.2107,44.9623Z" transform="translate(0 3)"/><path class="cls-156" d="M415.8826,184.3026S433.26,235.2357,433.26,256.5948s-1.4481,36.1461-1.4481,36.1461L441.9485,281.24l.0923-60.6513Z" transform="translate(0 3)"/><path class="cls-157" d="M502.6009,38.9252s.1679,117.4463,7.4084,124.0183S528.8346,215.52,528.8346,215.52L534.627,320.672s26.0658,3.286,27.5139,9.858,37.6507-71.3484,37.6507-71.3484l36.2026-2.5868s-11.03-24.27-24.3405-20.35-20.5507,21.9929-20.5507,21.9929H576.622s-4.3443,34.5031-11.5848,36.1461-18.4556-7.552-18.4556-7.552l-7.61-46.6672,9.0892-31.1039-23.57-67.4764,6.1929-12.8593,43.0426,11.2163s8.6886-8.215-1.4481-13.144-41.995-8.215-41.995-8.215S518.6979,62.72,531.7308,61.0772,567.2863,90.46,567.2863,90.46s28.161,18.2645,28.161,6.7635-26.62-28.0519-27.7912-41.957-1.1092-16.3411-1.1092-16.3411Z" transform="translate(0 3)"/><path class="cls-99" d="M586.7587,545.7636l14.481-73.9352s-10.1367-59.1482-15.9291-65.72,10.1367-46.0041,10.1367-46.0041l23.17-3.286s-11.5848-23.0021-28.962-19.7161-18.8253,8.215-18.8253,8.215l-8.6887-14.787-27.5139-9.858L556.3485,363.39l15.9292,36.1461,7.24,29.5741v54.2191Z" transform="translate(0 3)"/><path class="cls-79" d="M539.84,330.9235s.58,25.8946,4.9239,39.0386,24.5339,44.7107,24.5339,44.7107l7.3244,71.3134,10.1367,59.7774-7.24-62.4342V429.11l-7.24-29.5741Z" transform="translate(0 3)"/><path class="cls-112" d="M586.7587,545.7636l30.41-54.2191V370.3466l15.9292-.3845s-21.7216-98.58-24.6178-98.58H633.098l7.24-11.501-4.3443-3.286-36.2026,2.5868L562.1409,330.53l8.6887,14.787s33.3063-23.002,47.7873,11.5011l-23.17,3.286s-13.0329,37.7891-10.1367,46.0041,15.9291,50.9332,15.9291,65.72S586.7587,545.7636,586.7587,545.7636Z" transform="translate(0 3)"/><path class="cls-158" d="M562.1409,294.5281S570.83,236.3543,576.622,227.58s10.1367-21.9184-1.4481-18.6324-15.9292,3.286-15.9292,3.286-4.3443-55.8621,20.2735-60.7911,23.17,18.073,23.17,18.073l26.0659-11.501s11.5848-85.4363,31.8582-96.9373L628.045-3s16.8843,37.0051,16.761,39.8616-1.0407,5.1507-10.7187,6.4681-67.54-4.4045-67.54-4.4045l1.1092,16.3411s-5.2836,4.0676,25.0108,34.5133c0,0,11.5109,17.8212-10.9556,8.5249L567.2863,90.46S547.66,57.7912,531.7308,61.0772c0,0-15.9291,11.501-1.4481,57.5052,0,0,32.0282,3.32,37.7357,6.589s14.396,4.912,5.7074,14.77l-43.0426-11.2163L524.49,141.5844l23.57,67.4764-9.0892,31.1039,7.61,46.6672S556.3485,294.6724,562.1409,294.5281Z" transform="translate(0 3)"/><path class="cls-159" d="M683.7815,98.8663l-23.17-37.7891s-28.962,27.9311-31.8582,96.9373L613.6473,164.68,638.89,176.0875h12.8788l.1541-26.288h13.0329l8.6886-42.7182Z" transform="translate(0 3)"/><path class="cls-160" d="M591.5665,151.4953l11.1213,21.3062s2.8962,18.0731,17.3772,24.6451l2.2141,41.1065s-16.6951-13.1754-31.1761,19.6847H576.622s-1.4481,36.4346-14.4811,36.29c0,0,7.2406-58.1738,14.4811-66.9481s8.3028-21.1294.5311-19.0594-17.9084,3.713-17.9084,3.713S552.9313,141.69,591.5665,151.4953Z" transform="translate(0 3)"/><path class="cls-161" d="M650.4752,207.3046s14.481-9.858,13.0329-19.716-11.7389-11.5011-11.7389-11.5011H638.89L613.6473,164.68l-10.9595,4.8357s-1.9691-19.61-11.1213-18.02l11.1213,21.3062s1.4481,19.7161,17.3772,24.6451S650.4752,207.3046,650.4752,207.3046Z" transform="translate(0 3)"/><path class="cls-162" d="M586.7587,545.7636l43.4431-52.5761,18.5126-133.0834,23.205-123.8592,16.2681-117.6625-4.406-19.7161-10.1367,8.215L664.9562,149.8H651.9233l-.1541,26.288s26.22,9.8581-1.294,31.2171l-30.41-9.858,2.2141,41.1065s12.267,9.8266,13.7151,18.0417l4.3443,3.286-7.24,11.501H608.48l24.6178,98.58-15.9292.3845V491.5445Z" transform="translate(0 3)"/><path class="cls-163" d="M849.7587-3,821.3512,70.9352l-6.347,80.4684s-22.615,77.26-32.7517,80.5461-41.5636,0-41.5636,0-20.7048-24.6451,3.9129-27.9311,31.8583-1.643,31.8583-1.643-7.24-34.5031-17.3773-37.7891S782.0984,150.56,782.0984,150.56s-5.6383-40.193,3.05-45.122,14.481-29.5741,8.6886-27.9311-39.0988,4.9291-39.0988,4.9291S716.04,62.72,746.9742,66.0062s35.5556,4.929,49.1739-4.929,23.755-23.0021,19.4107-27.9311-24.4069-3.8453-24.4069-3.8453-20.4842-7.6557,11.374-19.1568S821.3512-1.357,821.3512-1.357Z" transform="translate(0 3)"/><path class="cls-164" d="M822.7993-3H700.9431s-6.0081,27.1271,0,29.9936,23.3853,7.7955,23.3853,7.7955,13.0329,18.0731,31.8582,16.43S799.63,43.0041,799.63,43.0041L809.7968,30.44l-18.6449-1.14s-16.855-4.9381,2.3279-15.3334C793.48,13.9674,830.04,1.929,822.7993-3Z" transform="translate(0 3)"/><path class="cls-165" d="M809.7968,30.44s21.9685,7.6347-13.6487,30.6368c0,0-7.5181,9.3267-28.0841,7.1278s-28.83-2.51-28.83-2.51l47.3624-7.9036s13.0329,1.643,11.5848-4.929-4.1065-8.46-4.1065-8.46l5.5546-1.3983Z" transform="translate(0 3)"/><path class="cls-166" d="M700.9431-3H690.4058l5.2687,51.038s18.3939,13.0392,32.9366,13.0392l19.3324,3.1643,38.6533-6.45s14.481,1.643,11.5848-4.929a75.0353,75.0353,0,0,0-4.1065-8.46L776.5393,48.22l-20.3527,2.9993s-18.8253-1.643-31.8582-16.43c0,0-22.1529-5.733-23.3853-7.7955S694.935,21.6451,700.9431-3Z" transform="translate(0 3)"/><path class="cls-167" d="M628.045-3h62.3608l5.2687,51.038S712.62,61.0772,728.6111,61.0772s19.3324,3.1643,19.3324,3.1643-13.8708.24-12.95,3.4668S725.7765,79.15,725.7765,79.15l-14.481,29.5741,24.6177,24.6451L715.64,167.8725l-27.4523-49.29-4.406-19.7161-23.17-37.7891Z" transform="translate(0 3)"/><path class="cls-168" d="M740.6889,231.95s-22.1529-11.501-23.601-19.7161-1.4481-44.3611-1.4481-44.3611l6.5627-11.1689,31.0879,1.3109-5.7924,27.9311-8.2636,7.2362,34.8226-.413,2.4031,9.6068S707.8139,194.1606,740.6889,231.95Z" transform="translate(0 3)"/><path class="cls-169" d="M734.993,67.7083s9.6088,13.0849,19.7455,14.728,39.0988-4.9291,39.0988-4.9291,4.7659,15.6091-2.6854,20.9486-13.2858-4.2738-13.2858-4.2738l-15.887,12.8993L734.993,112.64l-23.6975-3.9153L725.7765,79.15Z" transform="translate(0 3)"/><path class="cls-2" d="M774.057,192.7688s-6.2855-24.8963-14.9742-28.1823c0,0-5.8895-1.7917,4.2958-6.6464a142.6334,142.6334,0,0,1,18.72-7.38s-8.1129-39.371,9.0535-52.1045c0,0-2.3087,2.9431-7.7762.8553l-18.5,17.6283-47.1063-1.7343,18.1442,18.1643-13.7107,23.3342,31.0879,1.3109-5.7924,27.9311-8.2636,7.2362Z" transform="translate(0 3)"/><polygon class="cls-170" points="711.295 111.724 717.769 118.205 764.875 119.939 783.376 102.311 777.866 97.182 761.979 110.081 734.993 115.64 711.295 111.724"/></svg>