<svg id="Underground" xmlns="http://www.w3.org/2000/svg" viewBox="0 0 1920.1109 1080.2132">
  <defs>
    <style>
      .cls-1 {
        fill: #8e643f;
      }

      .cls-2 {
        fill: #b18252;
      }

      .cls-3 {
        fill: #854f21;
      }

      .cls-4 {
        fill: #a16e3d;
      }

      .cls-5 {
        fill: #683314;
      }

      .cls-6 {
        fill: #724027;
      }

      .cls-7 {
        fill: #724221;
      }

      .cls-8 {
        fill: #895a34;
      }

      .cls-9 {
        fill: #754b2c;
      }

      .cls-10 {
        fill: #99683c;
      }

      .cls-11 {
        fill: #4d1c1d;
      }

      .cls-12 {
        fill: #a6754f;
      }

      .cls-13 {
        fill: #6a3919;
      }

      .cls-14 {
        fill: #9f6c44;
      }
    </style>
  </defs>
  <polygon class="cls-1" points="0.027 700.985 1.593 1080.213 1920 1080.213 1920 954.336 1124.513 793.294 728.83 809.213 205.694 809.213 0.027 700.985"/>
  <polygon class="cls-2" points="774.787 711.504 881 793.294 1151 809.213 1225.17 694.067 1038 619.213 774.787 711.504"/>
  <path class="cls-3" d="M680.3078,430.7662s181.2851,140.7657,280.4886,127,471.1823-46.0042,471.1823-46.0042l-39.83-100.3224L965.4705,331.8085Z" transform="translate(0 0.2132)"/>
  <polygon class="cls-4" points="1409.766 445.474 1427 534.213 1772 828.213 1920 740.341 1920 522.656 1790.447 343.148 1409.766 445.474"/>
  <path class="cls-5" d="M540,0" transform="translate(0 0.2132)"/>
  <path class="cls-5" d="M1920,24.2894V194s-53.766,56.8432-69.2095-16.6409-120.1312-11.4736-120.1312-11.4736-16.1644,23.5994-34.8364,11.4736-39.2078,78.204-39.2078,78.204-120.4527-18.8795-130.1381-78.204-104.2942,21.5655-104.2942,21.5655S1373.8216,101.6417,1366,163s-55.1,21.765-69.578,21.8725-21.501,23.4918-34.0156,37.6515-48.4939-37.759-49.06-37.6515c-100.3327,19.0733-138.9915,0-138.9915,0s-13.746,32.9316-60.6756,65.9707-78.216-42.4789-78.216-42.4789C886.97,19.57,761,239,761,239s23.8507-7.5212-9-50-33.546,24.4514-42,51-68.6287-26.9158-68.6287-26.9158C596,170,561.5909,203.6445,517.8737,252.7512S435.3137,307,435.3137,307,520.9186,161.1656,517.79,123.4067s-25.8526,42.4788-107.1972,9.44S294.0922,283.8823,294.0922,283.8823s-46.93-33.0391-92.0286-69.6934-62.8391,107.4524-71.8922,91.5856-55.9161,0-55.9161,0c-35.2471-77.2252-74.2553,0-74.2553,0V0H1920Z" transform="translate(0 0.2132)"/>
  <path class="cls-5" d="M1.5929,641.7388.0272,191.6881C9.421,188.0754,20.38,177.2373,20.38,177.2373c18.7875-36.1271,54.7968,10.8381,54.7968,10.8381l64.1906,7.2254c15.6563-46.9652,26.6156-65.0287,54.7969-83.0922s104.8968,46.9651,104.8968,46.9651S319.4147,104.9832,346.03,47.18s84.5437-36.127,84.5437-36.127L641.3713,213.0842l38.9365,212.5944L490.9057,446.0975,403,735,41,829,1.5929,1080V636.8194" transform="translate(0 0.2132)"/>
  <path class="cls-5" d="M461.8865,151.9483" transform="translate(0 0.2132)"/>
  <path class="cls-6" d="M1.5929,641.7388S59.521,381.8813,482.24,480.2022c0,0,114.3239-69.0164,198.0681-22.2181,0,0,232.4787-116.0457,396.8692-45.3775S1419.8156,515.764,1419.8156,515.764s172.4519-109.3025,330.58-47.8519S1920,540.28,1920,540.28V166.87s-20.6469,17.9853-41,24.13-39.3639-45.7035-39.3639-45.7035-97.835-46.088-126.4159,0c0,0-37.9747,39.9428-48.9341,64.5231s-104.8968-6.1451-104.8968-6.1451-93.9375-132.1187-154.9968-110.611-70.4532,46.0879-70.4532,46.0879,7.8282,58.3781-43.8374,43.0154c0,0-25.05,58.3781-82.9781-9.2176s-86.1094-36.87-86.1094-36.87-79.8468,39.9429-76.7156,76.8132-90.8062,3.0725-90.8062,3.0725S869.5151,79.1111,843.3992,90.6961s-48.0347,36.1652-58.994,60.7454-37.5751-9.2176-37.5751-9.2176-48.5343-9.2176-75.15,49.1605c0,0-32.8781-3.0725-82.9781-12.29C588.7021,179.0943,432,190,253,248,18,37,1.5929,636.8194,1.5929,636.8194" transform="translate(0 0.2132)"/>
  <path class="cls-3" d="M1.5929,690.3182V636.8194S33.4372,507.83,156.59,440.9647c133.0781-72.2541,319.3874,10.8381,319.3874,10.8381S371.08,549.3458,292.799,610.7618c-75.1449,58.9554-180.0468,68.6414-212.9249,65.0287-26.5855-2.9213-78.2812,14.5277-78.2812,14.5277" transform="translate(0 0.2132)"/>
  <path class="cls-7" d="M1920,740.1274s-147.2194-54.8824-214.7745,0c0,0-145.8362-78.7877-170.8862-78.7877,0,0-39.1406-122.832-181.6125-133.67,0,0-31.046-76.5586-103.1979,106.2289,0,0-70.5864,45.5047-76.8489,59.9555,0,0,369.4874,122.832,605.8967,61.416Z" transform="translate(0 0.2132)"/>
  <path class="cls-8" d="M1920,522.4427V740.1274s-119.5045-46.2734-214.7745,0c0,0-153.6643-78.7877-170.8862-78.7877,0,0-39.1406-119.2193-181.6125-133.67,0,0-17.17-38.9572-51.64,5.81s-30.5476,105.2316-83.3915,121.9647L1172.68,693.854s-216.0562-43.3525-278.6811-10.8381-84.5438,36.127-84.5438,36.127-173.7843-180.6352-214.49-169.7971c0,0-40.7063,39.74-65.7563,43.3525s-50.1,50.5778-114.2905,57.8032c0,0-36.0094-7.2254-53.2313,28.9017s-92.8382,10.915-92.8382,10.915-55.8961-21.7531-96.6024,17.9866L.0272,700.7719s-5.9006-36.8454,155.9606-30.9134c0,0,89.8425,16.77,326.2518-218.0557,0,0,112.7583-81.15,198.0682-26.1242s174.55,101.991,255.9629,91.1529,267.7218-57.8033,267.7218-57.8033,154.53,69.177,215.823,34.5885,227.6776-139.1786,404.3788-21.8549Z" transform="translate(0 0.2132)"/>
  <path class="cls-3" d="M1419.8155,493.6167s-259.66-70.7155-342.6386-121.2934S790.701,334.5258,680.3078,425.6786c0,0,175.0675,119.7214,280.4886,87.3736s164.9149-25.1224,243.1961-54.024C1203.9925,459.0282,1378.8761,528.2052,1419.8155,493.6167Z" transform="translate(0 0.2132)"/>
  <path class="cls-9" d="M.0272,700.7719S45.43,805.8478,181.64,852.813c54.5479,18.8082,627.8154-133.67,627.8154-133.67s103.8975,101.4632,240.6065,61.57S1172.68,693.854,1172.68,693.854s189.7911,59.4878,370.648,75.2241c0,0,292.6453,2.8718,376.672-28.9507V954.1225s-672.17-21.83-755.1481-97.6968-521.353-54.1906-792.206,173.41c0,0-371.053,145.5075-371.053-59.11S.0272,700.7719.0272,700.7719Z" transform="translate(0 0.2132)"/>
  <path class="cls-10" d="M809.4551,719.1429s160.1392,102.9154,223.3243,65.9085c0,0,130.5069-29.7814,139.9006-91.1974C1172.68,693.854,909.6551,625.2126,809.4551,719.1429Z" transform="translate(0 0.2132)"/>
  <path class="cls-7" d="M.0272,700.7719l172.2187,7.5329s56.106-45.0426,122.7733-11.6832c0,0,52.5767,15.2959,66.6673-17.2184s53.2313-28.9017,53.2313-28.9017,43.8374-32.5143,112.7249-65.0286c0,0,46.9688-14.4508,67.3219-36.1271s129.3336,87.0347,129.3336,87.0347l91.4194,82.7624s-524.86,141.9852-549.5342,148.1209c-116.5343,28.9787-105.9915-21.1512-139.3742-38.6981C44.3865,785.2419.0272,700.7719.0272,700.7719Z" transform="translate(0 0.2132)"/>
  <polygon class="cls-5" points="1920 0.213 1902 97.213 1920 101.213 1920 0.213"/>
  <path class="cls-11" d="M1771,0s-40.3277,22.8159-66.6467,55.7147c0,0-16.4493,3.29-39.4784,6.58,0,0,16.4493,9.87,29.6088,9.87l-16.4493,32.8988s-26.109,3.29-37.7286,0-21.4892-3.29-37.9385,9.87c0,0,23.0291-13.1595,39.4785-3.29,0,0,13.1594,0,13.1594,6.58s-75.667,3.29-75.667,3.29-29.6089-9.87-46.0583-9.87c0,0-23.0291-16.4494-23.0291-13.1595s9.87,13.1595,9.87,13.1595-39.4785-16.4494-125.0152,32.8987c0,0,78.9569-29.6088,92.1164-29.6088s85.5367,13.16,85.5367,16.4493S1529.99,167.57,1529.99,167.57l52.6379-29.6088s69.0874,3.29,75.6671-3.29-39.4785,52.638-59.2177,59.2177h-26.249s-17.9193-9.87-30.3788,0l40.1784,6.58s-36.1886,19.7392-72.3772,23.0291c0,0,9.87,6.58,32.8988,0s69.0873-32.8988,69.0873-32.8988l78.9569-85.5366-3.29,32.8987s-29.6089,49.3481-36.1886,69.0873,39.4784-65.7974,39.4784-65.7974h6.58l9.87,69.0873-9.87,13.16s-32.8987,0-39.4785,13.16c0,0,29.6089-9.87,32.8987-6.58s-23.0291,26.319-23.0291,26.319-19.7392,13.1595-23.0291,13.1595c0,0-26.319,13.1595-42.7683,13.1595,0,0-16.4494-6.58-23.0291-6.58s19.7392,13.1595,19.7392,13.1595l65.7975-23.0291v26.319l6.58-32.8987,42.7684-42.7684s6.58,55.9279,3.29,78.957-19.7392,55.9278-19.7392,55.9278l26.319-59.2177V249.8172l-4.9348-41.1235s-16.4494-55.9278-13.1595-72.3772,0-55.9278,0-55.9278,23.0291,32.8987,23.0291,39.4785v23.0291l6.58-26.319s-16.4493-32.8987-16.4493-39.4785,0-39.4784,75.667-69.0873c0,0,6.58,9.87-9.87,26.319,0,0-9.87,9.87-19.7392,9.87s-13.1595-3.29-16.4494,0,23.0291,6.58,23.0291,6.58,0,9.87-9.87,13.1594-39.4785,6.58-39.4785,6.58l39.4785,9.87-46.0582,125.0152,19.7392-36.1886s19.7393,26.319,19.7393,36.1886,0,23.0291-6.58,26.319-16.4493,0-19.7392,6.58,32.8987-9.87,32.8987-9.87,3.29-36.1886-13.1595-55.9279c0,0-6.58-39.4784,19.7393-75.667,0,0,9.87-23.0291,9.87-3.29s17.749,107.1309,17.749,107.1309l-24.3288,31.0438,26.319-19.7393s0,59.2177-9.87,75.6671c0,0-26.319,9.87-36.1886,26.319s-3.29,16.4493-3.29,16.4493,6.58-23.0291,36.1886-32.8987c0,0-36.1886,141.4645-46.0582,157.9139,0,0-19.7392,26.319-16.4494,42.7683l29.6089-55.9278s3.29,101.9861,23.0291,121.7253c0,0-26.319-101.9861-16.4494-138.1747s32.8988-101.986,32.8988-101.986,16.4493,52.638,16.4493,59.2177l-9.87,26.319,13.1595-23.0291,9.87,78.9569V386.3469l-23.0291-65.7975,9.87-55.9278s9.87,3.08,13.1595,13.0545,3.29-3.1849,3.29-3.1849l-13.1595-19.7392V205.4039s29.6089,49.3481,36.1886,95.4063-3.29,82.2468-3.29,82.2468l13.1595-42.7683s-3.29-95.4064-46.0582-148.0443c0,0-23.0291-75.6671-16.4494-118.4354S1807.9843,40.91,1807.9843,40.91l23.0291,69.0874V77.0988L1817.8539,40.91l6.58-26.3189S1818.681,0,1845,0Z" transform="translate(0 0.2132)"/>
  <path class="cls-11" d="M1920,233c1,30-5.0948,39.8463-5.0948,39.8463L1920,307l-11.6746-24.2841,9.87-39.4785-3.29-46.0582s-32.8987,72.3772-36.1886,101.986-6.58,101.9861,16.4494,148.0443l-16.4494-32.8987-9.87,23.0291,3.29-29.6089s-6.58-111.8556,0-121.7252,23.0292-65.7975,23.0292-65.7975l6.58-26.319,9.87-26.319V144.5412L1919,125s-.8049-26.517-4.0948-39.6765-9.87-36.1886-9.87-36.1886l-9.87-13.16-23.0292,29.6089-16.4493-13.16s3.29,19.7392-3.29,13.16,3.29,49.3481,3.29,49.3481l3.29,36.1886-7.56-39.1985-2.31-6.86V81.2637s-26.3189,36.9585-26.3189,50.118,6.37-26.9489,6.37-26.9489l13.37-32.2688V52.4248l8.89-19.8792L1849,0h13l3.5571,12.9463,23.0291,13.1595-26.319-9.87,6.58,46.0582,23.0291-29.6088-11.69-32.8988h14.9795S1903.5506,24.13,1920,34" transform="translate(0 0.2132)"/>
  <g id="cayou">
    <path class="cls-12" d="M1539.973,877.8174s-3.9082,25.801-19.6525,34.3292l-9.1842-16.4Z" transform="translate(0 0.2132)"/>
    <path class="cls-13" d="M1485.8723,892.92s-.2791,16.84,25.9407,23.6091l8.5075-4.3827-9.1842-16.4Z" transform="translate(0 0.2132)"/>
    <path class="cls-14" d="M1507.2,859.01s-24.7052,17.7124-23.5048,29.5206,27.4408,7.2162,27.4408,7.2162l28.8367-17.9289S1515.0724,852.4494,1507.2,859.01Z" transform="translate(0 0.2132)"/>
    <path class="cls-12" d="M1501.9943,252.2429s-3.9082,25.8011-19.6525,34.3292l-9.1842-16.4Z" transform="translate(0 0.2132)"/>
    <path class="cls-13" d="M1447.8936,267.3458s-.2791,16.8395,25.9407,23.609l8.5075-4.3827-9.1842-16.4Z" transform="translate(0 0.2132)"/>
    <path class="cls-14" d="M1469.2215,233.4351s-24.7051,17.7123-23.5048,29.5206,27.4409,7.2161,27.4409,7.2161l28.8367-17.9289S1477.0937,226.8749,1469.2215,233.4351Z" transform="translate(0 0.2132)"/>
    <path class="cls-12" d="M261.9943,453.2429s-3.9082,25.8011-19.6525,34.3292l-9.1842-16.4Z" transform="translate(0 0.2132)"/>
    <path class="cls-13" d="M207.8936,468.3458s-.2791,16.8395,25.9407,23.609l8.5075-4.3827-9.1842-16.4Z" transform="translate(0 0.2132)"/>
    <path class="cls-14" d="M229.2215,434.4351s-24.7051,17.7123-23.5048,29.5206,27.4409,7.2161,27.4409,7.2161l28.8367-17.9289S237.0937,427.8749,229.2215,434.4351Z" transform="translate(0 0.2132)"/>
    <path class="cls-12" d="M1234.9943,424.2429s-3.9082,25.8011-19.6525,34.3292l-9.1842-16.4Z" transform="translate(0 0.2132)"/>
    <path class="cls-13" d="M1180.8936,439.3458s-.2791,16.8395,25.9407,23.609l8.5075-4.3827-9.1842-16.4Z" transform="translate(0 0.2132)"/>
    <path class="cls-14" d="M1202.2215,405.4351s-24.7051,17.7123-23.5048,29.5206,27.4409,7.2161,27.4409,7.2161l28.8367-17.9289S1210.0937,398.8749,1202.2215,405.4351Z" transform="translate(0 0.2132)"/>
    <path class="cls-12" d="M789.9943,684.2429s-3.9082,25.8011-19.6525,34.3292l-9.1842-16.4Z" transform="translate(0 0.2132)"/>
    <path class="cls-13" d="M735.8936,699.3458s-.2791,16.8395,25.9407,23.609l8.5075-4.3827-9.1842-16.4Z" transform="translate(0 0.2132)"/>
    <path class="cls-14" d="M757.2215,665.4351s-24.7051,17.7123-23.5048,29.5206,27.4409,7.2161,27.4409,7.2161l28.8367-17.9289S765.0937,658.8749,757.2215,665.4351Z" transform="translate(0 0.2132)"/>
    <path class="cls-12" d="M441.9943,102.2429s-3.9082,25.8011-19.6525,34.3292l-9.1842-16.4Z" transform="translate(0 0.2132)"/>
    <path class="cls-13" d="M387.8936,117.3458s-.2791,16.84,25.9407,23.609l8.5075-4.3827-9.1842-16.4Z" transform="translate(0 0.2132)"/>
    <path class="cls-14" d="M409.2215,83.4351s-24.7051,17.7123-23.5048,29.5206,27.4409,7.2161,27.4409,7.2161l28.8367-17.9289S417.0937,76.8749,409.2215,83.4351Z" transform="translate(0 0.2132)"/>
    <path class="cls-12" d="M714,223.4689s-3.9082,25.8011-19.6525,34.3292l-9.1842-16.4Z" transform="translate(0 0.2132)"/>
    <path class="cls-13" d="M659.8993,238.5718s-.2791,16.84,25.9407,23.6091l8.5075-4.3828-9.1842-16.4Z" transform="translate(0 0.2132)"/>
    <path class="cls-14" d="M681.2273,204.6611s-24.7052,17.7123-23.5048,29.5206,27.4408,7.2161,27.4408,7.2161L714,223.4689S689.0994,198.1009,681.2273,204.6611Z" transform="translate(0 0.2132)"/>
    <path class="cls-12" d="M355.9574,885.67S350,925,326,938l-14-25Z" transform="translate(0 0.2132)"/>
    <path class="cls-13" d="M273.4885,908.6921s-.4254,25.67,39.543,35.9888L326,938l-14-25Z" transform="translate(0 0.2132)"/>
    <path class="cls-14" d="M306,857s-37.66,27-35.83,45S312,913,312,913l43.9574-27.33S318,847,306,857Z" transform="translate(0 0.2132)"/>
  </g>
</svg>
